<svg width="111" height="63" viewBox="0 0 111 63" fill="none" xmlns="http://www.w3.org/2000/svg">
<path d="M26.2992 0.0046806C27.7992 -0.0553179 29.3293 0.474759 30.8393 0.834759H30.849C31.969 1.10476 33.0597 1.51464 33.7797 2.71464C34.7595 4.33443 35.1694 6.13421 34.6996 7.99394C34.5297 8.65386 33.8897 9.41393 32.9399 9.23417C30.6699 8.80417 28.3893 8.31406 26.0893 8.11406C23.8094 7.9241 21.5492 8.35469 19.5492 9.71464C18.3194 10.5549 17.7197 13.2747 18.1996 15.0945C18.3496 15.6644 18.4398 16.2742 18.4399 16.8641C18.4499 19.2941 19.5497 21.2745 20.4897 23.3045C20.9997 24.3944 21.5296 25.4745 22.1196 26.5144C22.8695 27.8344 23.7097 29.0742 24.4496 30.4041C26.1496 33.4641 27.8892 36.5246 29.4692 39.6746C30.0992 40.9446 30.5099 42.4346 30.7699 43.8846C31.1399 45.9544 31.4593 48.0943 31.4194 50.1941C31.3894 51.4641 30.6699 52.7346 30.1899 53.9646C29.2899 56.2546 27.4992 57.5348 25.7992 58.8748C25.1994 59.3447 24.5496 59.7848 23.8598 60.0447C22.5598 60.5447 21.2291 60.9645 19.8891 61.3045C18.6992 61.6044 17.4693 61.7844 16.2494 61.9744C15.7795 62.0544 15.2996 61.964 14.8198 61.9939C13.0799 62.0939 11.3497 62.2742 9.60979 62.3143C7.42979 62.3643 5.23924 62.3544 3.04924 62.2644C2.40937 62.2444 1.75948 61.8945 1.15959 61.5945C0.0697014 61.0546 0.269777 59.8947 0.359789 58.8348C0.22981 58.0949 -0.100118 57.2947 0.0297112 56.6248C0.189711 55.7848 0.569828 54.774 1.14983 54.324C3.00965 52.8741 4.61 51.0346 6.89983 50.2146C8.29974 49.7148 9.63975 49.9648 10.9897 49.6648C11.2197 49.605 11.7098 50.1347 11.8198 50.5047C12.0297 51.1845 12.1391 51.9343 12.1391 52.6541C12.1291 53.8439 12.6093 54.2739 13.559 54.1141C15.3789 53.8041 17.1893 53.4545 19.0092 53.1346C20.7291 52.8346 22.2991 52.1443 23.6391 50.8045C24.849 49.6045 25.319 47.6447 24.6791 45.8748C23.8292 43.5249 23.0497 41.1345 22.0297 38.8846C21.1697 37.0046 19.9494 35.3542 18.9994 33.5242C17.6395 30.8843 16.3795 28.1739 15.0795 25.4939C14.9897 25.314 14.9795 25.0843 14.8696 24.9344C13.4796 22.8944 13.1091 20.3439 12.6791 17.9939C11.9892 14.2041 11.8998 10.2941 14.0297 6.85429C14.5896 5.9543 14.5895 4.70408 15.5395 3.94413C17.1794 2.63418 18.8498 1.47401 20.8598 1.07402C22.6696 0.71402 24.4695 0.0847213 26.2992 0.0046806ZM84.1 10.4441C84.8602 9.42459 86.8599 9.78491 87.1899 11.0848C87.5998 12.6946 87.8094 14.3846 87.9594 16.0545C88.1294 17.8843 88.1494 19.7342 88.2094 21.574C88.2894 23.9739 88.3391 26.3841 88.4291 28.784C88.4491 29.3039 88.55 29.8141 88.6 30.324C88.69 31.214 89.1598 31.0439 89.5698 30.7439C91.9497 28.974 94.4399 27.3539 96.6498 25.324C98.2196 23.8841 99.4795 21.9543 100.709 20.0945C101.089 19.5145 100.959 18.424 100.929 17.574C100.859 15.9243 101.02 14.3845 101.87 13.0047C102.07 12.6847 102.2 12.2945 102.33 11.9246C102.619 11.1247 102.9 10.4944 103.839 10.3943C105.059 10.2643 105.94 10.7643 106.41 11.9441C107.07 13.5941 107.669 15.2947 108.049 17.0447C108.249 17.9446 107.929 19.0043 107.839 19.9842C107.819 20.184 107.749 20.3841 107.759 20.574C107.839 21.804 107.959 23.0247 108.039 24.2547C108.149 26.0546 108.25 27.8649 108.33 29.6648C108.42 31.8746 108.47 34.0944 108.57 36.3143C108.61 37.1042 108.799 37.8942 108.839 38.6941C108.859 39.0741 108.669 39.4643 108.629 39.6443C108.799 40.6843 109 41.5646 109.07 42.4646C109.23 44.3944 109.269 46.3242 109.469 48.2439L109.459 48.2547C109.559 49.2346 109.86 50.2149 110.15 51.1648C110.57 52.5446 109.98 53.6045 109.41 54.6443C109.04 55.3342 107.57 55.5445 106.85 55.3348C105.53 54.9348 104.889 53.7647 104.209 52.5848C102.839 50.2248 102.46 47.5543 102.23 44.8143C102.07 42.9243 101.79 41.0343 101.7 39.1443C101.57 36.6143 101.6 34.0642 101.53 31.5242C101.52 30.9743 101.379 30.4243 101.249 29.5144C100.38 30.3343 99.6894 30.9541 99.0395 31.6141C97.2995 33.374 95.6098 35.1743 93.4799 36.3943C92.06 37.2043 90.8294 38.444 89.5395 39.534C89.3495 39.694 89.2094 40.0645 89.2094 40.3445C89.1894 41.4545 89.2194 42.5647 89.2494 43.6746C89.2894 45.2445 89.4501 46.8149 89.3901 48.3748C89.36 49.1246 89.0493 49.9142 88.7094 50.574C87.9494 52.064 86.8593 52.6142 85.3393 51.9842C84.0096 51.4341 83.5393 50.2244 83.1293 48.8445C82.7093 47.4245 82.78 46.1043 83.06 44.6443C83.4399 42.6944 83.0599 40.7842 82.0199 39.0242C81.4799 38.1042 81.29 36.9944 81.81 35.7644C82.25 34.7245 82.4399 33.4542 82.4399 32.2742C82.4599 29.0344 82.3299 25.7845 82.2299 22.5447C82.2099 21.6549 82.2198 20.7247 82.0199 19.8748C81.35 17.1149 82.7195 14.8046 83.1596 12.2947C83.2796 11.6247 83.7 10.9841 84.1 10.4441ZM65.2797 12.0945C66.5897 9.77453 69.3692 9.35488 71.2592 10.4549C73.4192 9.96488 73.6098 16.7244 73.6098 16.7244C73.8898 20.6944 74.1696 24.6545 74.4496 28.5545C74.4539 28.5829 75.2565 33.9725 74.2397 33.5447C74.2197 35.2046 74.1192 36.7844 74.2192 38.3543C74.3492 40.4943 74.6196 42.6344 74.8696 44.7644V44.7439C75.0095 45.9439 75.0699 47.1841 75.4399 48.324C75.8098 49.444 75.3793 50.0842 74.7094 50.9441C73.3194 52.7341 71.5296 52.8743 69.4897 52.3943C67.6997 51.9743 66.7698 50.5845 66.8198 48.8846C66.8798 46.8146 66.7599 44.7341 66.7299 42.6541C66.6999 40.8142 66.6891 38.9742 66.6391 37.1443C66.6091 36.3444 66.4594 35.5344 66.4594 34.7244C66.4294 31.4844 66.4591 28.2544 66.4291 25.0144C66.4291 24.6345 66.2198 24.2545 65.9799 23.4549C65.04 25.3048 64.3192 26.8343 63.5092 28.3143C62.2892 30.5642 61.0591 32.814 59.7192 34.9939C58.7792 36.5239 57.6393 37.9441 56.5893 39.4041C55.1293 41.434 51.8598 41.9242 49.8198 40.3943C49.4998 40.1543 49.1692 39.7944 49.0492 39.4344C48.5993 38.1145 48.1895 36.7747 47.8696 35.4148C47.1796 32.4748 46.539 29.5343 45.809 26.3143C45.0991 27.4342 45.2498 28.4148 45.3198 29.3348C45.5698 32.5146 45.9696 35.6949 46.1596 38.8748C46.2795 40.8245 46.1193 42.7842 46.0893 44.7439C46.0793 44.9139 45.9792 45.1147 46.0492 45.2547C46.9291 46.9946 45.3997 47.8747 44.5698 48.9646C44.0197 49.6846 39.9494 50.2844 39.2094 49.7244C38.1195 48.9045 36.8996 48.0545 37.0893 46.4549C37.2493 45.0749 37.0796 43.7243 36.6596 42.3543C36.3496 41.3643 36.3792 40.2839 36.2592 39.2439C36.0992 37.8541 35.7296 36.4543 35.8295 35.0945C35.9995 32.8645 36.4395 30.6444 36.8295 28.4344C37.1795 26.4545 37.5895 24.4746 38.0395 22.5047C38.4695 20.6647 39.1998 18.8539 39.3998 16.9939C39.55 15.5845 40.4993 14.9046 41.3891 14.1248C42.1491 13.4648 43.0499 13.0741 44.2299 13.1141C45.1797 13.144 45.9796 12.9949 46.9994 13.4549C47.9393 13.8849 48.3896 14.4444 48.9096 15.1443C51.3796 18.4643 52.6296 22.1948 53.4496 26.0848C53.6896 27.2146 53.9692 28.335 54.2592 29.4549C54.3094 29.6447 54.54 29.7951 54.8598 30.1648C55.5997 29.0349 56.3291 28.0644 56.8891 27.0144C57.669 25.5246 58.2191 23.9145 59.059 22.4646C61.079 18.9846 63.2897 15.5945 65.2797 12.0945Z" fill="#B32B3C"/>
</svg>
