<?xml version="1.0" encoding="UTF-8"?>
<svg id="Layer_2" data-name="Layer 2" xmlns="http://www.w3.org/2000/svg" viewBox="0 0 297.7 61.8">
  <defs>
    <style>
      .cls-1 {
        fill: #231f20;
      }

      .cls-2 {
        fill: #ee2a24;
      }
    </style>
  </defs>
  <g id="Layer_1-2" data-name="Layer 1" focusable="false">
    <path class="cls-2" d="M41.3,20.6V0h-20.7v20.6H0v20.7h20.6v20.5h20.7v-20.5h20.6v-20.7h-20.6Z"/>
    <path class="cls-1" d="M82.5,32h4.9c1.9,0,3.3.8,3.3,2.9s-1.6,2.8-3.4,2.8h-4.8v-5.7ZM78,41.3h10c3.7,0,7.3-1.8,7.3-6,0-2.6-1.3-4.5-3.8-5.2,1.8-.9,2.8-2.3,2.8-4.3,0-3.8-2.6-5.1-6.6-5.1h-9.7v20.6ZM82.5,24.1h4.2c1.6,0,3.1.4,3.1,2.4,0,1.7-1.2,2.5-2.8,2.5h-4.6v-4.9h.1ZM97.1,26.3h3.9v2.8h.1c.8-1.9,2.7-3.2,4.7-3.2.3,0,.6.1.9.1v3.9c-.4-.1-1-.1-1.5-.1-3,0-4,2.2-4,4.8v6.8h-4.1v-15.1ZM108.7,26.3h4.1v15h-4.1v-15ZM112.8,24h-4.1v-3.4h4.1v3.4ZM121.5,26.3h3v2.8h-3v7.4c0,1.4.4,1.8,1.7,1.8.4,0,.8,0,1.3-.1v3.2c-.7.1-1.5.1-2.4.1-2.5,0-4.7-.6-4.7-3.6v-8.8h-2.5v-2.8h2.5v-4.5h4.1v4.5h0ZM127.4,26.3h4.1v15h-4.1v-15ZM131.6,24h-4.1v-3.4h4.1v3.4ZM137.2,36.4c0,1.8,1.5,2.5,3.2,2.5,1.2,0,2.7-.5,2.7-1.9,0-1.3-1.7-1.7-4.6-2.3-2.4-.5-4.8-1.4-4.8-4,0-3.8,3.3-4.8,6.5-4.8s6.3,1.1,6.6,4.8h-3.9c-.1-1.6-1.3-2-2.8-2-.9,0-2.3.2-2.3,1.4,0,1.5,2.3,1.7,4.7,2.2s4.7,1.4,4.7,4.2c0,4-3.4,5.2-6.8,5.2s-6.9-1.3-7.1-5.3h3.9ZM148.9,20.6h4.1v7.8h.1c1-1.7,2.8-2.5,4.4-2.5,4.4,0,5.4,2.5,5.4,6.2v9.2h-4.1v-8.5c0-2.5-.7-3.7-2.6-3.7-2.2,0-3.2,1.2-3.2,4.3v7.9h-4.1v-20.7h0ZM171.9,24.1h5c2,0,3.1.9,3.1,2.9,0,2.1-1.1,3-3.1,3h-5v-5.9ZM167.4,41.3h4.5v-8.1h4.6c2.3,0,3.1,1,3.5,3.1.2,1.7.2,3.7.7,5h4.5c-.8-1.2-.8-3.6-.9-4.9-.1-2.1-.8-4.2-3-4.8v-.1c2.2-.9,3.2-2.7,3.2-5.2,0-3.1-2.3-5.7-6-5.7h-11.1v20.7ZM189.9,32.2c.1-1.2.8-3.2,3.4-3.2,2,0,2.9,1.1,3.3,3.2h-6.7ZM200.7,34.8c.3-4.6-2.2-8.9-7.3-8.9-4.5,0-7.6,3.4-7.6,7.9s2.9,7.9,7.6,7.9c3.4,0,5.9-1.5,7-5.1h-3.6c-.3,1-1.6,2-3.2,2-2.3,0-3.5-1.2-3.6-3.8h10.7ZM213.4,33.7c0,2.4-.8,4.8-3.5,4.8s-3.6-2.5-3.6-4.8c0-2.5.9-4.8,3.6-4.8,2.6.1,3.5,2.4,3.5,4.8ZM213.4,41.3h3.9v-20.7h-4.1v7.5h-.1c-1-1.5-2.7-2.2-4.4-2.2-4.4,0-6.6,3.7-6.6,7.8s2.2,8,6.7,8c1.9,0,3.6-.7,4.5-2.3h.1v1.9h0ZM235.1,27.5c-.3-2.1-2.3-3.6-4.5-3.6-4,0-5.6,3.5-5.6,7.1s1.5,6.9,5.6,6.9c2.8,0,4.4-1.9,4.7-4.6h4.4c-.5,5.2-4,8.5-9.1,8.5-6.4,0-10.1-4.8-10.1-10.8s3.7-10.9,10.1-10.9c4.6,0,8.4,2.6,8.9,7.4h-4.4,0ZM241.6,26.3h3.9v2.8h.1c.8-1.9,2.8-3.2,4.8-3.2.3,0,.6.1.9.1v3.9c-.4-.1-1-.1-1.5-.1-3,0-4,2.2-4,4.8v6.8h-4.1v-15.1h-.1ZM255.9,33.8c0-2.4.8-4.8,3.6-4.8s3.6,2.4,3.6,4.8-.8,4.8-3.6,4.8-3.6-2.5-3.6-4.8ZM251.7,33.8c0,4.8,3,7.9,7.7,7.9s7.8-3.1,7.8-7.9-3-7.9-7.8-7.9-7.7,3.1-7.7,7.9ZM272.5,36.4c0,1.8,1.5,2.5,3.2,2.5,1.2,0,2.7-.5,2.7-1.9,0-1.3-1.7-1.7-4.7-2.3-2.4-.5-4.7-1.4-4.7-4,0-3.8,3.3-4.8,6.5-4.8s6.3,1.1,6.6,4.8h-3.9c-.1-1.6-1.3-2-2.8-2-.9,0-2.3.2-2.3,1.4,0,1.5,2.3,1.7,4.7,2.2,2.4.5,4.7,1.4,4.7,4.2,0,4-3.4,5.2-6.8,5.2s-6.8-1.3-7-5.3h3.8,0ZM287.7,36.4c0,1.8,1.5,2.5,3.1,2.5,1.2,0,2.7-.5,2.7-1.9,0-1.3-1.7-1.7-4.7-2.3-2.3-.5-4.7-1.4-4.7-4,0-3.8,3.3-4.8,6.5-4.8s6.3,1.1,6.6,4.8h-3.9c-.1-1.6-1.3-2-2.8-2-.9,0-2.2.2-2.2,1.4,0,1.5,2.3,1.7,4.6,2.2,2.4.5,4.8,1.4,4.8,4.2,0,4-3.4,5.2-6.9,5.2s-6.8-1.3-7-5.3h3.9Z"/>
  </g>
</svg>