<?xml version="1.0" encoding="UTF-8"?>
<svg id="Layer_2" xmlns="http://www.w3.org/2000/svg" version="1.1" viewBox="0 0 219.7 21.7">
  <!-- Generator: Adobe Illustrator 29.7.0, SVG Export Plug-In . SVG Version: 2.1.1 Build 138)  -->
  <defs>
    <style>
      .st0 {
        fill: #231f20;
      }
    </style>
  </defs>
  <g id="Layer_1-2" focusable="false">
    <path class="st0" d="M4.5,11.9h4.9c1.9,0,3.3.8,3.3,2.9s-1.6,2.8-3.4,2.8h-4.8v-5.7ZM0,21.2h10c3.7,0,7.3-1.8,7.3-6s-1.3-4.5-3.8-5.2c1.8-.9,2.8-2.3,2.8-4.3,0-3.8-2.6-5.1-6.6-5.1H0s0,20.6,0,20.6ZM4.5,4h4.2c1.6,0,3.1.4,3.1,2.4s-1.2,2.5-2.8,2.5h-4.6V4h.1ZM19.1,6.2h3.9v2.8h0c.8-1.9,2.7-3.2,4.7-3.2s.6.1.9.1v3.9c-.4-.1-1-.1-1.5-.1-3,0-4,2.2-4,4.8v6.8h-4.1s0-15.1,0-15.1ZM30.7,6.2h4.1v15h-4.1V6.2ZM34.8,3.9h-4.1V.5h4.1v3.4ZM43.5,6.2h3v2.8h-3v7.4c0,1.4.4,1.8,1.7,1.8s.8,0,1.3,0v3.2c-.7,0-1.5,0-2.4,0-2.5,0-4.7-.6-4.7-3.6v-8.8h-2.5v-2.8h2.5V1.7h4.1v4.5h0ZM49.4,6.2h4.1v15h-4.1V6.2ZM53.6,3.9h-4.1V.5h4.1v3.4ZM59.2,16.3c0,1.8,1.5,2.5,3.2,2.5s2.7-.5,2.7-1.9-1.7-1.7-4.6-2.3c-2.4-.5-4.8-1.4-4.8-4,0-3.8,3.3-4.8,6.5-4.8s6.3,1.1,6.6,4.8h-3.9c-.1-1.6-1.3-2-2.8-2s-2.3.2-2.3,1.4,2.3,1.7,4.7,2.2c2.4.5,4.7,1.4,4.7,4.2,0,4-3.4,5.2-6.8,5.2s-6.9-1.3-7.1-5.3h3.9ZM70.9.5h4.1v7.8h.1c1-1.7,2.8-2.5,4.4-2.5,4.4,0,5.4,2.5,5.4,6.2v9.2h-4.1v-8.5c0-2.5-.7-3.7-2.6-3.7s-3.2,1.2-3.2,4.3v7.9h-4.1V.5h0ZM93.9,4h5c2,0,3.1.9,3.1,2.9s-1.1,3-3.1,3h-5V4ZM89.4,21.2h4.5v-8.1h4.6c2.3,0,3.1,1,3.5,3.1.2,1.7.2,3.7.7,5h4.5c-.8-1.2-.8-3.6-.9-4.9-.1-2.1-.8-4.2-3-4.8h0c2.2-1,3.2-2.8,3.2-5.3s-2.3-5.7-6-5.7h-11.1v20.7ZM111.9,12.1c.1-1.2.8-3.2,3.4-3.2s2.9,1.1,3.3,3.2h-6.7ZM122.7,14.7c.3-4.6-2.2-8.9-7.3-8.9s-7.6,3.4-7.6,7.9,2.9,7.9,7.6,7.9,5.9-1.5,7-5.1h-3.6c-.3,1-1.6,2-3.2,2-2.3,0-3.5-1.2-3.6-3.8h10.7ZM135.4,13.6c0,2.4-.8,4.8-3.5,4.8s-3.6-2.5-3.6-4.8.9-4.8,3.6-4.8c2.6.1,3.5,2.4,3.5,4.8ZM135.4,21.2h3.9V.5h-4.1v7.5h-.1c-1-1.5-2.7-2.2-4.4-2.2-4.4,0-6.6,3.7-6.6,7.8s2.2,8,6.7,8,3.6-.7,4.5-2.3h.1v1.9h0ZM157.1,7.4c-.3-2.1-2.3-3.6-4.5-3.6-4,0-5.6,3.5-5.6,7.1s1.5,6.9,5.6,6.9,4.4-1.9,4.7-4.6h4.4c-.5,5.2-4,8.5-9.1,8.5s-10.1-4.8-10.1-10.8,3.7-10.9,10.1-10.9,8.4,2.6,8.9,7.4h-4.4,0ZM163.6,6.2h3.9v2.8h.1c.8-1.9,2.8-3.2,4.8-3.2s.6.1.9.1v3.9c-.4-.1-1-.1-1.5-.1-3,0-4,2.2-4,4.8v6.8h-4.1V6.2h-.1,0ZM177.9,13.7c0-2.4.8-4.8,3.6-4.8s3.6,2.4,3.6,4.8-.8,4.8-3.6,4.8-3.6-2.5-3.6-4.8ZM173.7,13.7c0,4.8,3,7.9,7.7,7.9s7.8-3.1,7.8-7.9-3-7.9-7.8-7.9-7.7,3.1-7.7,7.9ZM194.5,16.3c0,1.8,1.5,2.5,3.2,2.5s2.7-.5,2.7-1.9-1.7-1.7-4.7-2.3c-2.4-.5-4.7-1.4-4.7-4,0-3.8,3.3-4.8,6.5-4.8s6.3,1.1,6.6,4.8h-3.9c-.1-1.6-1.3-2-2.8-2s-2.3.2-2.3,1.4,2.3,1.7,4.7,2.2c2.4.5,4.7,1.4,4.7,4.2,0,4-3.4,5.2-6.8,5.2s-6.8-1.3-7-5.3h3.8,0ZM209.7,16.3c0,1.8,1.5,2.5,3.1,2.5s2.7-.5,2.7-1.9-1.7-1.7-4.7-2.3c-2.3-.5-4.7-1.4-4.7-4,0-3.8,3.3-4.8,6.5-4.8s6.3,1.1,6.6,4.8h-3.9c-.1-1.6-1.3-2-2.8-2s-2.2.2-2.2,1.4,2.3,1.7,4.6,2.2c2.4.5,4.8,1.4,4.8,4.2,0,4-3.4,5.2-6.9,5.2s-6.8-1.3-7-5.3h3.9Z"/>
  </g>
</svg>