<?xml version="1.0" encoding="UTF-8"?>
<svg id="Layer_2" data-name="Layer 2" xmlns="http://www.w3.org/2000/svg" viewBox="0 0 84.42 45.07">
  <defs>
    <style>
      .cls-1 {
        fill-rule: evenodd;
      }

      .cls-1, .cls-2 {
        fill: #fff;
      }

      .cls-3 {
        fill: #0058a5;
      }
    </style>
  </defs>
  <g id="Layer_1-2" data-name="Layer 1">
    <g>
      <polygon class="cls-3" points="11.75 0 0 11.75 0 33.01 11.96 45.07 72.47 45.07 84.42 33.12 84.42 11.75 72.67 0 11.75 0"/>
      <polygon class="cls-2" points="12.78 3.48 71.24 3.48 81.05 13.29 81.05 31.69 71.44 41.29 13.08 41.29 3.37 31.58 3.37 12.88 12.78 3.48"/>
      <polygon class="cls-3" points="14.01 6.13 70.38 6.13 78.39 14.14 78.39 30.46 69.86 38.99 14.3 38.99 5.78 30.46 5.78 14.22 14.01 6.13"/>
      <path class="cls-1" d="M66.32,13.71h-2.89l-5.73,12.68c-1.01.75-2.34,1.25-3.68,1.25-3.47,0-5.6-2.7-5.6-5.41s2.05-5.54,5.63-5.54c1.6,0,3.17.64,4.21,1.7v-3.75c-1.29-.6-2.76-.94-4.26-.94-3.6,0-6.47,1.67-8.06,4.07-.59-2.64-3.01-3.65-6.47-3.65h-5.07v9.21c-1.48-3.38-7.23-2.83-7.23-5.19,0-1.04,1.14-1.81,2.33-1.81s2.15.51,2.86,1.32l1.75-2.17c-1.17-1.09-3.52-1.79-5.22-1.79-2.31,0-4.15,1.11-5.02,2.72-1-1.6-3.07-2.29-5.72-2.29h-5.04v16.06h3.73v-6.47h.05l4.64,6.47h4.5c.74.27,1.55.43,2.44.43,3.06,0,5.16-1.41,5.94-3.56v3.13h3.73v-6.01h1.85c2.03,0,3.58-.46,4.62-1.36.3,4.2,4.17,7.8,9.32,7.8.97,0,1.88-.17,2.77-.43h3.23l1.57-3.39h6.64l1.47,3.39h3.98l-7.25-16.48ZM17.29,21.53h-.48v-4.83h.51c1.98,0,3.47.38,3.47,2.36s-1.45,2.47-3.5,2.47ZM28.42,27.85c-1.6,0-2.94-1.11-3.45-2.34l-1.63,1.34-2.73-3.43c1.74-.25,2.9-1.27,3.48-2.54.75.93,1.99,1.52,3.47,2.03,1.5.49,3.32.96,3.32,2.62,0,1.23-.94,2.32-2.46,2.32ZM38.87,21.59h-.76v-4.86h.66c2.08,0,3.5.3,3.5,2.36s-1.19,2.49-3.4,2.49ZM62.54,24.26l2.1-5.83h.05l2.38,5.83h-4.54Z"/>
    </g>
  </g>
</svg>