<?xml version="1.0" encoding="UTF-8"?>
<svg id="Layer_2" xmlns="http://www.w3.org/2000/svg" version="1.1" viewBox="0 0 206.4 41.3">
  <!-- Generator: Adobe Illustrator 29.7.0, SVG Export Plug-In . SVG Version: 2.1.1 Build 138)  -->
  <defs>
    <style>
      .st0 {
        fill: #fff;
      }
    </style>
  </defs>
  <g id="Layer_1-2">
    <g>
      <path class="st0" d="M175,7.2c0,.1.4,0,.4.2,0,.2-.3.6-.2,1.1.2,1.5.7,3,.9,4.4.4,4.9.4,14.4,0,19.4,0,1-1.2,3.5-2.1,4-.4.3-2.5.2-3,0-.1,0-1.2-2-1.2-2.2-.2-1,0-3.5,0-4.6-.2-4.1-.1-8.2-.3-12.2,0-1,0-1.9,0-2.9-.5.2-.7.7-1,1.1-2.3,3.2-2.4,6.5-4.8,9.6-1.2,1.6-2,1.7-3.9,1.2-2.6-.7-6-5.1-8.1-6.9-.4.3-.4.5-.4,1-.3,2.8.2,4.1-1.4,6.4-.3.5.3,1.7-.8,2.4-1.2.9-2.5.9-3.6-.3-2.2-2.4-.6-4.6-.3-7.2.3-2.2-.2-4.9,0-6.9,0-.2.5-1.7.6-1.8.2-.2.7-.2.8-.3.5-.4.4-1,1.3-1,.8,0,1.6.6,2.1.6s.9-.4,1.4-.4c1.7-.1,7.8,8,8.8,7.9.7-.9,1.5-1.8,2.2-2.7,2.8-3.8,4.8-7.9,8.6-11,1.6-1.3,3.3-.8,4.2.9h0ZM147.4,16.4v-1.1h-.3l-.3,1.1h.6ZM149.9,26.1l.3-1.9c-.4,0-.8,1.9-.3,1.9Z"/>
      <path class="st0" d="M188.4,13.4l-.6,2.5c2.9-1,5.7-1.7,8.2.6v.4c-.5.7-.3,1.6-.6,2.3-1.3,3-5.6,2.6-8.3,3.4l.3,4.2c3,1.5,6.6-.6,9.2-2.2,1.7.4,1.4,1.9,1.3,3.3-1.1.6-2,2.1-2.8,2.8-2.4,1.9-4.8,2.5-7.9,2.1-4.1-.5-4.7-1.7-5.6-5.5-.7-2.9,0-4.4-.1-7.1,0-.6-.5-1.1-.5-1.4,0-.5,1-1.1.2-2h1.4c.4-.3.7-5.4.6-6.2,0-1.1-1.1-2.6.3-2.6,0,.7,0,1.5.3,2.1.1.3-.2.5.4.4.6-.6,1.4-.3,1.8-.5.8-.3,1.8-1.3,2.3-1.5,2-.8,10.5-3.4,12.5-3.6,1.5-.1,2.7,0,4,.7.2.1,1.6,1.2,1.6,1.3.2,1.2-.9,2.9-1.8,3.6-2,1.5-6.8,1.7-9.2,2.1-2.2.4-4.5,1.4-6.8.8h0Z"/>
    </g>
    <g>
      <path class="st0" d="M14.6,3.8c.2.3,1.7.7,2.1.9-.2,4.4,2.3,8.4,3.8,12.4.6,1.6,1.1,3.3,1.5,5,1.3-.8,2.6.3,3.9.6.2.2-.8,2.8-1.1,3.2-.4.6-1.3,1.1-1.4,1.4-.1.5,1,3.9,1.1,4.9.1,2-.3,5.2-2.1,6.2-.6,0-1.4-.4-1.9-.8-1.2-1.1-2-6.5-2.4-8.3-3.6.1-7.1.9-10.6.5-.9,2.1-2,4.1-2.8,6.4-.4,1.1-.8,5.5-3,4.9-2-.5-1.7-4-1.6-5.6.4-5.3,4.4-15.6,6.5-20.9.9-2.3,2-4.6,3.2-6.8,0-.8-1.9-3.3-2.1-4.5C6.7-.3,10.9-.9,13.1,1.2c.9.9,1,2.1,1.4,2.6ZM13.1,15.8l-.6.4-3,8.5c.9-.4,6.2-1,6.4-1.5,0,0-2.8-7.3-2.8-7.3Z"/>
      <path class="st0" d="M47.3,12.6c1,1.3.4.7.7,2.2,0,.5.5.7.5,1.3,0,2.1-2.3,4.6-3.5,6.2,2.4,2.4,4.9,4.4,5.7,7.9.4,1.9-1.8,5.4-3.3,6.7-3.8,3.3-11.1,4.2-15.5,1.6-.4-.2-3.1-2.8-3.2-3.1-1.2-2.1.9-4.3,3.1-3.2l-1.6-13.9c-.8-.6-1.8-1.2-1.9-2.3,0-.5,0-2.5.3-2.8.1-.2.8-.2,1-.5,1.8-1.5,1.4-1.9,4-2.2,2-.2.8-.1,1.9-.6,4.4-2,9-1,11.9,2.8h0ZM37.9,13.9c-2.5.6-3.6,3.4-2,5.5,1.4.1,7.1-2.4,6.3-4.1-.9-1.2-3-1.6-4.4-1.3ZM32.5,17.5c-.5,0-1.2,0-1.4.5.5,0,1.2,0,1.4-.5ZM36.4,33.5c1.5.3,8.3-1,7.9-3.1-.4-1.6-5.5-4.8-7.4-4.4.2,2.6.4,4.9-.5,7.5Z"/>
      <path class="st0" d="M62.9,14.2c5.9-.2,12.9,4.8,11.6,11.3-.7,3.6-3.3,5.5-6.5,6.8s-8.1,0-11.2-1.6c-4.5-2.4-5.4-8.5-2.4-12.6,1.5-2,6.1-3.9,8.5-3.9ZM62.3,20.3c-2.3.4-4.5,1.6-3.5,4.2,1.3,3.4,5.4,4.2,8.5,2.9,2.7-1.1,2.6-1.8,1.2-4.1-1.6-2.9-2.9-3.6-6.2-3.1h0Z"/>
      <path class="st0" d="M78.8,15.9c.3-.3,1.2-.2,1.4-1.2l2.5,1.4c-.2,3.4-1.3,6.2.2,9.5.9,2,2.1,2.2,4.3,2.1,7.2-.1,10.4-10.3,3.7-13.7,0-.7.8-1,1.4-1l-.3-1.1c1.1-.5.9,1.4,1.7.4-.4-.6-.9-1-.1-1.5.9,1,1.3.1,2,0,.9-.1,3,1.1,3.5,1.9,1.5,2.4,1.5,6.2.6,8.9-2.8,7.6-8.5,13.1-17.2,11.3-2.9-.6-4.6-2.3-5.3-5.2-.8-3.2-.8-9.5,1.7-11.9h0Z"/>
      <path class="st0" d="M104.4,8.9c.7-.1,2.1.4,3,.5,3.1.2,6.9.2,9.9.6.7.1,4.2,1.5,4.3,2.1-.2,1.2-1.5,3.6-2.7,3.9-.6.1-2.1-.2-2.3.5.6,1.5,0,3,0,4.4,0,1.9,0,8.4-.6,9.6-.2.5-.7.5-.9.8-.7,1.1.3,2.5-2.2,2.2-1.6-.2-2-1.3-2.4-2.6l.4-15.1-8.7-2.9c-.5-.3-1.2-2.2-1.1-2.7.3-1.6,1.2-.7,2-.8.5,0,.8-.4,1.2-.5h0Z"/>
    </g>
  </g>
</svg>