<svg width="266" height="50" viewBox="0 0 266 50" fill="none" xmlns="http://www.w3.org/2000/svg">
<path fill-rule="evenodd" clip-rule="evenodd" d="M201.384 19.495C201.446 19.4795 201.518 19.4616 201.603 19.4391C201.999 20.0445 202.292 20.5874 202.104 21.3808C201.164 25.5356 198.847 28.5839 195.068 30.5465C194.441 30.8806 193.961 30.7136 193.502 30.296C193.265 30.0952 193.075 29.8467 192.892 29.606L192.842 29.5408L192.813 29.5026C191.247 27.5191 191.184 23.3225 192.98 21.1929L192.983 21.1887C193.483 20.6056 193.963 20.0454 194.88 20.4204C197.093 21.3181 199.16 21.0885 201.06 19.6061C201.121 19.5603 201.215 19.5369 201.384 19.495ZM207.054 27.7444L207.054 27.7442C207.137 27.659 207.228 27.5655 207.323 27.4565V27.4982C207.389 27.5855 207.444 27.6525 207.489 27.7071L207.49 27.7083L207.49 27.7085C207.574 27.81 207.623 27.8689 207.637 27.9367C208.618 31.4025 208.973 34.9728 209.244 38.5431L209.249 38.6081C209.414 40.7361 209.576 42.8185 211.395 44.41C213.274 46.0594 216.072 45.7253 217.178 43.4496C217.658 42.4683 217.992 41.4243 218.285 40.3595C218.41 39.8375 218.347 39.2321 218.285 38.6683C218.198 37.8486 218.089 37.0363 217.979 36.2225C217.905 35.6683 217.83 35.1135 217.763 34.5552C217.729 34.2796 217.703 34.004 217.676 33.7283C217.636 33.315 217.596 32.9016 217.533 32.4882L217.533 32.4865C217.136 30.0234 216.74 27.5603 216.28 25.1181C215.946 23.3434 215.571 21.5896 215.153 19.8566C214.902 18.796 214.632 17.742 214.361 16.6881C213.955 15.1072 213.549 13.5262 213.211 11.9227C212.606 8.99972 215.299 6.01407 218.264 6.38988C219.558 6.55691 220.874 6.99537 222.085 7.51733C223.671 8.20633 225.258 11.3173 224.82 12.9458C224.527 13.9897 223.964 14.9919 223.358 15.8897C222.73 16.8266 222.067 17.7367 221.405 18.6448C220.636 19.6996 219.868 20.7518 219.162 21.8401C217.909 23.8027 217.721 25.9323 218.452 28.1872C219.141 30.296 220.373 31.9663 221.897 33.4904C222.069 33.6603 222.239 33.8331 222.41 34.0058L222.41 34.006L222.41 34.0062L222.41 34.0064C223.662 35.2772 224.907 36.5412 226.929 36.5596C227.08 36.5596 227.232 36.6479 227.384 36.7363C227.441 36.7694 227.498 36.8025 227.555 36.831C229.517 37.7079 232.775 36.7475 233.839 34.9311C234.695 33.4904 234.257 31.9872 232.816 31.7575C230.081 31.319 228.474 29.4191 226.97 27.4356C226.407 26.684 225.989 25.5983 226.469 24.6379C226.778 24.0212 227.123 23.4234 227.47 22.8246C228.156 21.6394 228.844 20.4505 229.246 19.105C229.495 18.2709 229.833 17.4632 230.169 16.6577C230.565 15.709 230.96 14.7633 231.209 13.7809C231.772 11.5052 232.148 9.22939 231.167 6.80746C229.622 2.98666 226.824 1.00318 222.941 0.230672C221.166 -0.124266 219.433 -0.0198723 217.617 0.230672C214.986 0.606488 212.627 1.21197 210.935 3.42511C210.759 3.63642 210.494 3.80318 210.24 3.96296L210.24 3.96306C210.193 3.99269 210.146 4.02208 210.1 4.05147C208.806 4.86574 208.033 6.05583 207.49 7.43382C206.969 8.74918 206.447 10.0437 205.883 11.4216C203.461 10.7535 201.248 10.4612 199.014 11.1502C198.943 11.1786 198.852 11.1684 198.769 11.1589C198.73 11.1545 198.692 11.1502 198.659 11.1502C198.262 11.2129 197.865 11.2807 197.469 11.3486L197.468 11.3487C197.072 11.4165 196.675 11.4843 196.279 11.5469C195.715 11.6304 195.151 11.7348 194.587 11.8392C194.532 11.8484 194.476 11.8572 194.42 11.866C194.091 11.9173 193.745 11.9712 193.46 12.1315C190.224 13.8853 187.489 16.0985 186.09 19.6479C186.041 19.7455 185.949 19.8218 185.823 19.9267C185.734 20.0012 185.627 20.0902 185.505 20.2116C185.359 18.938 185.234 17.8523 185.109 16.7666C185.085 16.544 185.07 16.3165 185.055 16.0877C185.015 15.5011 184.976 14.9063 184.795 14.3655C183.751 11.2755 182.687 8.20633 181.517 5.17892C180.724 3.13281 180.181 2.81963 178.114 3.07017C176.172 3.29984 174.168 5.22068 174.586 7.26679C174.817 8.4255 175.232 9.50811 175.647 10.5926C175.718 10.7783 175.789 10.964 175.859 11.1502C177.112 14.3655 177.989 17.6644 178.281 21.1094C178.386 22.3203 178.386 23.5313 177.759 24.6796C177.07 25.9532 176.757 26.2038 175.463 25.7653C174.168 25.3373 172.884 24.8884 171.6 24.4396L171.6 24.4395L171.599 24.4393C170.315 23.9905 169.032 23.5417 167.737 23.1137C167.257 22.9467 166.694 22.7797 166.234 22.884C163.478 23.5313 161.766 24.5752 161.516 27.8114C161.398 29.3516 161.362 30.9081 161.326 32.4657C161.305 33.3996 161.283 34.3338 161.244 35.2651C161.23 35.5071 161.157 35.7491 161.073 36.0308L161.073 36.0311L161.073 36.0316L161.073 36.0322L161.072 36.0331C161.033 36.1639 160.992 36.3033 160.952 36.4552C160.83 36.3712 160.722 36.3068 160.627 36.2507C160.464 36.1533 160.342 36.0809 160.263 35.975C159.887 35.4263 159.505 34.8812 159.124 34.336C158.213 33.0349 157.302 31.7331 156.463 30.3795C155.571 28.9483 154.778 27.4508 153.981 25.9461C153.883 25.7606 153.785 25.5751 153.686 25.3895C153.269 24.5961 152.83 23.761 152.621 22.884C152.391 21.962 152.218 21.0342 152.045 20.1067L152.045 20.1062C151.889 19.2697 151.734 18.4334 151.536 17.6017C151.369 16.871 151.055 16.1402 150.638 15.5347C150.095 14.7205 149.343 14.4282 148.237 14.5535C146.904 14.7034 146.036 15.4919 145.167 16.2818C144.947 16.4816 144.727 16.6814 144.499 16.871C144.186 17.1215 144.019 17.6853 143.977 18.1237C143.964 18.2706 143.949 18.4191 143.933 18.5684C143.851 19.353 143.767 20.1605 143.977 20.8797C144.031 21.0732 144.085 21.2669 144.138 21.4608C144.835 23.986 145.539 26.5345 146.566 28.9389C147.548 31.2146 148.8 33.4487 150.304 35.3904C151.336 36.7118 152.263 38.1066 153.189 39.501C154.472 41.4333 155.755 43.3647 157.319 45.099C157.862 45.7253 158.279 46.5187 158.572 47.3121C159.428 49.5461 161.035 50.4439 163.249 49.7967C163.322 49.7736 163.395 49.7495 163.468 49.7255L163.468 49.7253L163.469 49.7252C163.724 49.6408 163.975 49.5577 164.251 49.5253C164.981 49.4417 165.378 48.9824 165.587 48.3352C165.733 47.8341 165.879 47.333 166.046 46.8319C166.868 44.3336 167.056 41.7514 167.244 39.1671V39.1669V39.1668V39.1666V39.1664C167.304 38.3386 167.364 37.5105 167.445 36.6849C167.591 35.0772 167.779 33.4904 167.988 31.7575C168.216 31.79 168.423 31.8144 168.615 31.8371C169.04 31.8871 169.39 31.9283 169.721 32.0289L169.722 32.0291L169.722 32.0292C171.976 32.7598 174.231 33.4905 176.465 34.2629C178.615 35.0146 180.828 33.8871 182.144 32.0498C182.693 31.2719 183.164 30.4495 183.647 29.6069C183.825 29.2961 184.004 28.9825 184.19 28.6674C184.266 28.7689 184.332 28.843 184.383 28.9008L184.384 28.9015L184.384 28.9016C184.459 28.986 184.503 29.0355 184.503 29.085C184.553 30.1765 184.971 31.1427 185.389 32.1106C185.676 32.772 185.962 33.4342 186.132 34.1377C186.2 34.4618 186.491 34.7581 186.766 35.0378L186.766 35.0379L186.766 35.038C186.828 35.1006 186.889 35.1623 186.946 35.2234C187.272 35.558 187.612 35.8777 187.952 36.1967L187.952 36.1969L187.952 36.197L187.953 36.1971L187.953 36.1972C188.418 36.6344 188.883 37.0702 189.305 37.5409C190.62 39.0233 192.312 39.2112 194.065 38.8354C197.573 38.0629 200.371 36.0794 202.855 33.5531C204.421 31.9663 205.841 30.3169 206.676 28.229C206.746 28.0603 206.883 27.92 207.054 27.7444ZM25.9383 11.5523L26.0306 11.5671C25.9904 11.8233 25.9457 12.0718 25.902 12.3147L25.902 12.3149L25.902 12.315L25.9019 12.3151L25.9019 12.3151C25.7869 12.9549 25.6788 13.5557 25.6788 14.1566C25.6788 15.6564 25.7004 17.152 25.722 18.6471C25.7478 20.4405 25.7737 22.2332 25.7623 24.0322C25.7603 24.244 25.7574 24.4559 25.7537 24.6677C25.4878 20.148 23.5413 16.5331 19.2691 14.4279C18.9768 14.2817 18.6845 13.9477 18.5801 13.6345C18.1853 12.4185 17.3844 11.5012 16.584 10.5843C16.3261 10.289 16.0683 9.99365 15.8241 9.68842L15.8032 9.7093C14.4325 9.76151 13.372 10.483 12.3103 11.2053C11.674 11.6382 11.0372 12.0714 10.333 12.3609C9.39344 12.7367 8.43302 13.2587 7.68139 13.9477C5.25946 16.1608 2.96281 18.5201 1.87712 21.7563C1.76482 22.0892 1.64558 22.4205 1.52637 22.7518C1.025 24.1451 0.524013 25.5374 0.540881 27.0386C0.557257 28.0212 0.702089 29.0167 0.844392 29.9947C0.883511 30.2636 0.922439 30.5312 0.958454 30.7968C1.06285 31.444 1.209 32.0913 1.43866 32.6967C2.37821 35.1395 4.11114 36.8933 6.28252 38.2296C8.47478 39.5449 10.7923 40.2548 13.4022 39.5449C14.9263 39.1274 16.2625 38.3757 17.6196 37.5615C19.6449 36.3296 21.2943 34.8055 22.8184 33.0517C24.403 31.2246 25.399 29.1345 25.6902 26.8591C25.6419 28.0644 25.573 29.2669 25.4909 30.4628C25.2821 33.9496 24.781 37.3737 23.5074 40.6725C23.1734 41.5285 22.9854 42.4681 22.8602 43.3867C22.6514 45.0153 23.5283 45.9757 24.7184 46.3097C26.3678 46.7691 27.8502 46.3724 28.8732 44.9735C30.5435 42.6768 31.3787 40.067 31.9215 37.311C32.694 33.3649 32.9655 29.3771 33.1534 25.3684C33.2606 23.0578 33.3134 20.7473 33.3662 18.4406V18.4405V18.4403V18.4402V18.4401V18.44C33.4059 16.7032 33.4455 14.9686 33.5083 13.2379C33.6105 10.6838 33.6526 10.6892 36.1005 11.0037L36.2643 11.0248C38.6236 11.3171 40.962 11.6094 43.1543 12.528L43.1738 12.5359C43.3786 12.6179 43.6201 12.7146 43.8224 12.6742C44.2529 12.5982 44.6868 12.6929 45.1186 12.7871C45.4404 12.8573 45.761 12.9272 46.0781 12.9261C45.2972 15.3869 44.8952 17.947 44.7413 20.5248C44.6786 21.5688 44.3655 22.3831 43.2171 22.7589C40.7117 23.5523 39.1249 25.0973 39.3755 27.9577C39.3755 27.9884 39.3773 28.0209 39.3793 28.0478L39.3755 28.0412C39.3823 28.0889 39.3847 28.1077 39.3847 28.1077L39.384 28.1006C39.383 28.0907 39.3811 28.0714 39.3793 28.0478C40.3393 29.7136 41.6121 30.5254 43.5721 30.2334V30.2752C43.6175 30.6837 43.6649 31.0579 43.7093 31.4086C43.8079 32.1871 43.8917 32.8492 43.9061 33.5114C43.9375 34.524 43.9375 35.5314 43.9375 36.5361C43.9375 37.5409 43.9375 38.5431 43.9688 39.5453C44.0105 41.0904 44.8874 41.8837 46.4116 41.9673C47.7478 42.0299 48.4368 41.6541 48.8753 40.297C49.6687 37.8542 50.2115 35.3696 50.4203 32.8015C50.429 32.6017 50.4196 32.3983 50.4102 32.1944C50.397 31.908 50.3837 31.6204 50.4203 31.34C50.5873 30.1708 50.7961 30.0246 51.9444 30.0246C52.0995 30.0246 52.2546 30.0251 52.4098 30.0255C53.3403 30.0281 54.2709 30.0306 55.2015 29.9411C55.9386 29.8697 56.6785 29.8106 57.419 29.7515L57.4191 29.7515L57.4191 29.7515C60.1398 29.5344 62.8689 29.3166 65.4947 28.4796C65.6199 28.4379 65.7728 28.4703 65.9843 28.5151L65.9844 28.5151C66.0905 28.5375 66.2113 28.5631 66.3507 28.584C66.2996 29.1981 66.2523 29.8064 66.2054 30.4105V30.4107C66.0991 31.7783 65.9945 33.1251 65.8496 34.4718C65.711 35.7029 65.5502 36.9308 65.3894 38.158L65.3893 38.1581C65.1384 40.0736 64.8876 41.9874 64.7222 43.909C64.5552 45.8507 65.098 46.3935 66.9562 46.8529C68.0837 47.1243 70.2759 46.3727 70.6726 45.4122C71.299 43.8255 71.8418 42.1969 72.2594 40.5475C72.4735 39.6767 72.5608 38.7669 72.6479 37.8581C72.6882 37.4377 72.7285 37.0175 72.7814 36.6014C72.9404 35.2525 73.1053 33.9054 73.2701 32.5592C73.6461 29.488 74.0216 26.4208 74.3264 23.3435C74.5352 21.1095 74.6604 18.8546 74.5352 16.6205C74.4811 15.6541 74.5787 14.6906 74.6764 13.7257C74.8426 12.0848 75.0093 10.4399 74.4308 8.77015C74.3709 8.59959 74.3154 8.43075 74.2607 8.26468C73.9341 7.2719 73.6399 6.37774 72.6561 5.80537C72.0924 5.47131 71.5078 5.13725 71.0275 4.86583C68.1254 6.32734 67.0188 8.68663 67.332 11.6932C67.5826 14.1986 67.5199 16.6623 67.0188 19.1469C66.8518 20.0029 66.4342 20.4205 65.7244 20.7336C63.9288 21.5061 62.0706 21.882 60.108 22.1325C58.0046 22.3934 55.9267 22.3359 53.8445 22.2784H53.8444C53.2604 22.2622 52.676 22.246 52.0906 22.2369C51.2763 22.2369 50.9631 21.7358 51.1093 21.0259C51.2106 20.5802 51.3045 20.1308 51.3985 19.681L51.3986 19.6806L51.3987 19.6801C51.6921 18.276 51.9864 16.868 52.5082 15.5557C53.1763 13.8645 52.6125 12.4239 52.0488 11.0042C51.4944 9.59973 50.8256 9.29114 49.5066 9.47038C49.7842 8.62582 49.8815 7.69412 49.8146 6.68198C49.7519 5.80508 49.1464 5.28311 48.5201 4.96993C47.911 4.66537 47.2096 4.56066 46.5216 4.45792C46.4077 4.44093 46.2943 4.42399 46.1817 4.40621C45.2778 4.24942 44.3658 4.23115 43.4511 4.21282C42.2951 4.18966 41.1346 4.16641 39.9807 3.86336C38.0599 3.36227 36.0137 3.13261 34.0094 3.06997L33.7283 3.05879C31.6891 2.97714 29.6184 2.89422 27.6623 3.61282C27.3411 3.73234 27.0178 3.84918 26.6944 3.96611C25.2099 4.50279 23.7209 5.04108 22.4008 5.84684C20.647 6.91165 19.3108 8.47755 19.102 10.7116C18.9767 11.9434 19.6866 12.5907 20.5844 13.1961C21.417 13.771 21.9108 13.2919 22.4411 12.7774L22.5261 12.695C22.6403 12.5904 22.7675 12.4987 22.8959 12.4062L22.8959 12.4062C23.0492 12.2957 23.204 12.1841 23.3404 12.0478C24.1265 11.2617 25.0488 11.4096 25.9383 11.5523ZM81.2997 3.44606C83.6172 3.94715 86.3106 4.57351 88.0017 5.61744L88.0601 5.65401C89.7741 6.72791 91.5107 7.81603 93.4719 8.37343C95.0587 8.83276 95.7268 9.91845 96.4158 11.0459C96.8334 11.7349 96.2279 13.5305 95.4763 13.9689C94.7247 14.3865 93.8895 14.7623 93.0544 15.0129C92.595 15.1381 91.8434 15.0755 91.405 14.8876C90.5611 14.5184 89.7339 14.1076 88.9075 13.6972C88.4254 13.4577 87.9436 13.2184 87.4589 12.9876C87.0547 12.8011 86.639 12.6377 86.1945 12.463L86.1944 12.463C86.0419 12.403 85.886 12.3417 85.726 12.2777C85.25 13.3249 85.2759 14.3517 85.3011 15.3542C85.3202 16.1108 85.3389 16.8536 85.1413 17.5809C84.8341 18.7513 84.8139 20.0036 84.7935 21.2733V21.2737C84.7847 21.816 84.7759 22.3614 84.7447 22.905C86.4358 24.1995 88.5028 25.0137 90.5907 25.7654C91.0198 25.9198 91.4347 26.159 91.8356 26.3899C91.8861 26.4191 91.9364 26.4481 91.9865 26.4768C92.0225 26.4973 92.0583 26.5177 92.0939 26.5379C92.3688 26.7044 92.6336 26.8777 92.8965 27.0495L92.8966 27.0496L92.8967 27.0497L92.8968 27.0498L92.8969 27.0498L92.8972 27.05L92.8972 27.05C93.2931 27.3089 93.6844 27.5648 94.0983 27.7906C96.7708 29.2312 97.1883 32.029 94.8499 33.8454C94.4115 34.1795 93.973 34.5344 93.639 34.9938C93.0394 35.8331 92.4827 36.7031 91.9267 37.5721C91.0305 38.9726 90.136 40.3705 89.0665 41.6332C86.8952 44.2221 84.0348 45.8507 80.4436 46.0803C79.0239 46.1639 77.6459 45.8507 76.5184 45.1408C75.224 44.3265 74.8482 42.9485 74.8273 41.5079C74.8074 37.7887 75.1664 34.0884 75.5254 30.389L75.5254 30.3888L75.5789 29.8367C75.6154 29.4592 75.7017 29.0816 75.788 28.704C75.8496 28.4344 75.9112 28.1647 75.9547 27.895C76.0132 27.5541 76.0171 27.0543 76.0216 26.4802C76.0267 25.8235 76.0326 25.0697 76.1218 24.3456C76.1218 24.3456 77.0195 13.8436 77.7085 11.5679L78.8151 5.0746C79.003 3.92627 80.1305 3.15376 81.2788 3.4043L81.2997 3.44606ZM83.137 40.1508C83.4253 39.9345 83.7012 39.7332 83.9673 39.5391L83.9674 39.539L83.9675 39.5389L83.9676 39.5389L83.9677 39.5388C84.472 39.1708 84.9409 38.8286 85.3919 38.4596C85.7343 38.1798 86.0776 37.9008 86.4209 37.6219C87.7939 36.5061 89.1668 35.3904 90.4863 34.2212C91.3006 33.5114 91.1962 33.0938 90.2357 32.551C88.1061 31.3609 85.893 30.3796 83.5128 29.7323C82.8865 32.551 82.0513 38.0838 83.137 40.1508ZM247.927 15.2274C247.766 15.28 247.597 15.3354 247.423 15.4046C247.366 15.2461 247.296 15.099 247.23 14.9602C247.101 14.6891 246.987 14.4498 247.014 14.2193C247.139 13.1544 247.291 12.0949 247.442 11.0353C247.593 9.97567 247.745 8.91607 247.87 7.85126C248.037 6.36887 248.183 4.84473 248.121 3.36234C248.079 2.17226 246.868 1.06569 246.012 1.21184C245.177 1.35799 244.342 1.60853 243.527 1.90083C242.337 2.31841 241.627 3.04916 241.043 4.30188C240.561 5.29532 240.508 6.27854 240.455 7.25869C240.433 7.67929 240.41 8.09934 240.354 8.51938C240.097 10.3194 239.966 12.1352 239.836 13.9523L239.836 13.9527L239.835 13.953L239.835 13.9534C239.754 15.0867 239.673 16.2204 239.56 17.3511C239.513 17.8397 239.378 18.3241 239.242 18.8062L239.242 18.8064C239.077 19.3953 238.913 19.9809 238.913 20.5664C238.929 22.066 238.491 23.4104 238.051 24.7621L238.051 24.7632L238.05 24.7641L238.05 24.7649C237.908 25.2001 237.767 25.6361 237.639 26.0784C237.347 27.0597 237.201 28.0827 237.097 29.1058C237.045 29.7414 237.029 30.3771 237.013 31.0102C236.998 31.6455 236.982 32.2782 236.93 32.9057C236.866 33.5816 236.774 34.2576 236.682 34.9335C236.564 35.8026 236.445 36.6717 236.387 37.5408C236.303 38.8144 237.326 40.3385 238.349 40.7143C239.665 41.1945 241.168 40.7561 242.107 39.6286C242.45 39.2143 242.777 38.7844 243.074 38.3927L243.214 38.2089C243.896 38.4505 244.555 38.6971 245.199 38.9385L245.2 38.9386L245.2 38.9388L245.2 38.9389C246.449 39.4066 247.647 39.8553 248.872 40.2132C249.816 40.4863 250.788 40.6634 251.764 40.8412C252.43 40.9624 253.097 41.0839 253.758 41.2363C256.639 41.8835 259.479 41.8 262.276 40.7769C263.425 40.3594 264.197 39.5869 264.824 38.5638C266.285 36.1628 265.095 34.6177 262.61 34.7848C259.145 35.0144 255.762 34.5969 252.484 33.5112C250.334 32.8013 248.183 32.0914 246.617 30.2958C245.093 28.542 245.072 27.1849 246.743 25.5981C247.168 25.1858 247.577 24.757 247.986 24.328L247.986 24.3279L247.986 24.3278L247.987 24.3276C248.883 23.388 249.781 22.4469 250.856 21.673C251.536 21.1828 252.262 20.7526 252.987 20.3222L252.987 20.3221C254.486 19.4326 255.987 18.5425 257.098 17.1214C257.182 17.017 257.412 16.9544 257.579 16.9544C258.1 16.9891 258.347 16.6911 258.619 16.3614L258.62 16.3603C258.675 16.2943 258.73 16.2271 258.79 16.161C259.228 15.639 259.792 15.1797 260.397 14.8665C262.652 13.6973 263.529 11.7138 263.8 9.3754C263.947 8.24796 263.153 7.49632 262.005 7.28754C259.702 6.86881 258.006 8.06369 256.332 9.24304L256.331 9.24389L256.33 9.24456L256.329 9.24523C256.168 9.35885 256.007 9.47233 255.846 9.58419C254.34 10.6353 252.883 11.7429 251.425 12.8518L251.425 12.8519L251.425 12.852L251.424 12.8521C250.536 13.5272 249.648 14.2028 248.747 14.8665C248.527 15.0314 248.244 15.1239 247.927 15.2274ZM105.874 23.6859C105.683 24.2023 105.487 24.7347 105.276 25.287C104.199 23.8125 103.621 22.522 103.995 20.9004C104.579 18.2488 105.289 15.7016 107.774 13.9686C107.979 14.0669 108.192 14.1651 108.42 14.2699L108.42 14.27C108.724 14.4101 109.053 14.562 109.423 14.7411C108.943 16.6202 108.171 18.3114 107.356 20.0026C106.804 21.1673 106.358 22.3747 105.874 23.6859ZM105.717 32.9548C105.681 32.3261 105.644 31.6974 105.603 31.0738C105.672 31.0491 105.742 31.0274 105.811 31.0056C105.895 30.9795 105.978 30.9534 106.062 30.9221C106.347 31.2601 106.64 31.5918 106.933 31.9232L106.933 31.9233C107.564 32.6358 108.193 33.347 108.734 34.1166C109.836 35.6589 111.38 36.5479 112.941 37.4472L113.14 37.5616C114.158 38.15 115.272 38.1569 116.373 38.1638H116.374C116.718 38.1659 117.061 38.168 117.399 38.1879C118.276 38.2297 119.278 38 120.03 37.5824C121.157 36.9352 121.825 34.1583 121.408 32.7386C121.094 31.6738 119.215 30.3584 117.963 30.1914C115.603 29.8782 113.474 28.3332 113.683 25.9321C113.688 25.8729 113.693 25.8134 113.698 25.7537C113.703 25.7035 113.707 25.6532 113.712 25.6028C113.803 24.5487 113.899 23.4399 114.372 22.5707C115.374 20.7751 115.937 18.8334 116.167 16.8708L116.195 16.6484C116.501 14.2357 116.811 11.7877 115.353 9.43796C114.267 7.68415 113.098 6.47318 111.01 6.07649C107.607 5.42925 103.264 7.28745 101.594 10.294C99.318 14.428 97.6477 18.7916 96.8543 23.4476C96.6037 24.9926 96.4367 26.642 96.6873 28.1661C96.896 29.3771 96.9796 30.5463 96.896 31.7573C96.8752 32.0496 96.8543 32.3836 96.9796 32.6342C97.6743 34.0616 97.643 35.573 97.6117 37.0899V37.09C97.5912 38.0803 97.5706 39.073 97.7521 40.0461C97.7819 40.2067 97.8071 40.3632 97.8318 40.5167L97.8319 40.5171C97.9453 41.2218 98.0484 41.8622 98.5455 42.5307C99.2458 43.4825 100.054 43.5229 100.971 43.5688L100.971 43.5688C101.12 43.5762 101.272 43.5838 101.427 43.5955C104.266 43.8252 106.145 42.4054 106.166 39.7121C106.166 38.661 106.07 37.6186 105.975 36.5737L105.975 36.5733C105.922 35.9994 105.869 35.4246 105.832 34.8473C105.79 34.2209 105.754 33.5892 105.717 32.9575L105.717 32.9548ZM12.9428 31.3605C12.7132 31.5275 12.3582 31.5484 12.3582 31.5484V31.5275C10.1242 31.444 8.89235 30.2122 7.80666 28.7715C7.66051 28.5628 7.63963 28.2078 7.66051 27.9155C7.93194 25.0343 9.60223 22.9046 11.6692 21.1508C13.9868 19.1882 17.39 20.3157 18.5801 23.1134C19.6866 25.765 18.9141 26.9969 16.5757 29.0012C15.7571 29.7097 14.8078 30.2638 13.8623 30.8157C13.5538 30.9958 13.2458 31.1756 12.9428 31.3605Z" fill="#B32B3C"/>
</svg>
