<?xml version="1.0" encoding="UTF-8"?>
<svg id="Layer_1" xmlns="http://www.w3.org/2000/svg" version="1.1" viewBox="0 0 266 50">
  <!-- Generator: Adobe Illustrator 29.6.1, SVG Export Plug-In . SVG Version: 2.1.1 Build 9)  -->
  <defs>
    <style>
      .st0 {
        fill: #fff;
        fill-rule: evenodd;
      }
    </style>
  </defs>
  <path class="st0" d="M201.4,19.5c0,0,.1,0,.2,0,.4.6.7,1.1.5,1.9-.9,4.2-3.3,7.2-7,9.2-.6.3-1.1.2-1.6-.3-.2-.2-.4-.4-.6-.7h0c0,0,0-.1,0-.1-1.6-2-1.6-6.2.2-8.3h0c.5-.6,1-1.1,1.9-.8,2.2.9,4.3.7,6.2-.8,0,0,.2,0,.3-.1ZM207.1,27.7h0c0,0,.2-.2.3-.3h0c0,.1.1.2.2.3h0c0,.1.1.2.1.2,1,3.5,1.3,7,1.6,10.6h0c.2,2.2.3,4.3,2.1,5.9,1.9,1.6,4.7,1.3,5.8-1,.5-1,.8-2,1.1-3.1.1-.5,0-1.1,0-1.7,0-.8-.2-1.6-.3-2.4,0-.6-.1-1.1-.2-1.7,0-.3,0-.6,0-.8,0-.4,0-.8-.1-1.2h0c-.4-2.5-.8-4.9-1.3-7.4-.3-1.8-.7-3.5-1.1-5.3-.3-1.1-.5-2.1-.8-3.2-.4-1.6-.8-3.2-1.1-4.8-.6-2.9,2.1-5.9,5.1-5.5,1.3.2,2.6.6,3.8,1.1,1.6.7,3.2,3.8,2.7,5.4-.3,1-.9,2-1.5,2.9-.6.9-1.3,1.8-2,2.8-.8,1.1-1.5,2.1-2.2,3.2-1.3,2-1.4,4.1-.7,6.3.7,2.1,1.9,3.8,3.4,5.3.2.2.3.3.5.5h0c1.3,1.3,2.5,2.5,4.5,2.6.2,0,.3,0,.5.2,0,0,.1,0,.2,0,2,.9,5.2,0,6.3-1.9.9-1.4.4-2.9-1-3.2-2.7-.4-4.3-2.3-5.8-4.3-.6-.8-1-1.8-.5-2.8.3-.6.7-1.2,1-1.8.7-1.2,1.4-2.4,1.8-3.7.2-.8.6-1.6.9-2.4.4-.9.8-1.9,1-2.9.6-2.3.9-4.6,0-7-1.5-3.8-4.3-5.8-8.2-6.6-1.8-.4-3.5-.3-5.3,0-2.6.4-5,1-6.7,3.2-.2.2-.4.4-.7.5h0s0,0-.1,0c-1.3.8-2.1,2-2.6,3.4-.5,1.3-1,2.6-1.6,4-2.4-.7-4.6-1-6.9-.3,0,0-.2,0-.2,0,0,0,0,0-.1,0-.4,0-.8.1-1.2.2h0c-.4,0-.8.1-1.2.2-.6,0-1.1.2-1.7.3,0,0-.1,0-.2,0-.3,0-.7.1-1,.3-3.2,1.8-6,4-7.4,7.5,0,0-.1.2-.3.3,0,0-.2.2-.3.3-.1-1.3-.3-2.4-.4-3.4,0-.2,0-.5,0-.7,0-.6,0-1.2-.3-1.7-1-3.1-2.1-6.2-3.3-9.2-.8-2-1.3-2.4-3.4-2.1-1.9.2-3.9,2.2-3.5,4.2.2,1.2.6,2.2,1.1,3.3,0,.2.1.4.2.6,1.3,3.2,2.1,6.5,2.4,10,.1,1.2.1,2.4-.5,3.6-.7,1.3-1,1.5-2.3,1.1-1.3-.4-2.6-.9-3.9-1.3h0s0,0,0,0c-1.3-.4-2.6-.9-3.9-1.3-.5-.2-1-.3-1.5-.2-2.8.6-4.5,1.7-4.7,4.9-.1,1.5-.2,3.1-.2,4.7,0,.9,0,1.9,0,2.8,0,.2,0,.5-.2.8h0s0,0,0,0c0,.1,0,.3-.1.4-.1,0-.2-.1-.3-.2-.2,0-.3-.2-.4-.3-.4-.5-.8-1.1-1.1-1.6-.9-1.3-1.8-2.6-2.7-4-.9-1.4-1.7-2.9-2.5-4.4,0-.2-.2-.4-.3-.6-.4-.8-.9-1.6-1.1-2.5-.2-.9-.4-1.8-.6-2.8h0c-.2-.8-.3-1.7-.5-2.5-.2-.7-.5-1.5-.9-2.1-.5-.8-1.3-1.1-2.4-1-1.3.1-2.2.9-3.1,1.7-.2.2-.4.4-.7.6-.3.3-.5.8-.5,1.3,0,.1,0,.3,0,.4,0,.8-.2,1.6,0,2.3,0,.2.1.4.2.6.7,2.5,1.4,5.1,2.4,7.5,1,2.3,2.2,4.5,3.7,6.5,1,1.3,2,2.7,2.9,4.1,1.3,1.9,2.6,3.9,4.1,5.6.5.6,1,1.4,1.3,2.2.9,2.2,2.5,3.1,4.7,2.5,0,0,.1,0,.2,0h0s0,0,0,0c.3,0,.5-.2.8-.2.7,0,1.1-.5,1.3-1.2.1-.5.3-1,.5-1.5.8-2.5,1-5.1,1.2-7.7h0c0-.8.1-1.7.2-2.5.1-1.6.3-3.2.5-4.9.2,0,.4,0,.6,0,.4,0,.8,0,1.1.2h0c2.3.7,4.5,1.5,6.7,2.2,2.2.8,4.4-.4,5.7-2.2.5-.8,1-1.6,1.5-2.4.2-.3.4-.6.5-.9,0,.1.1.2.2.2h0c0,0,.1.1.1.2,0,1.1.5,2.1.9,3,.3.7.6,1.3.7,2,0,.3.4.6.6.9h0c0,0,.1.1.2.2.3.3.7.7,1,1h0s0,0,0,0h0c.5.4.9.9,1.4,1.3,1.3,1.5,3,1.7,4.8,1.3,3.5-.8,6.3-2.8,8.8-5.3,1.6-1.6,3-3.2,3.8-5.3,0-.2.2-.3.4-.5ZM25.9,11.6h0c0,.3,0,.5-.1.8h0s0,0,0,0h0c-.1.6-.2,1.2-.2,1.8,0,1.5,0,3,0,4.5,0,1.8,0,3.6,0,5.4,0,.2,0,.4,0,.6-.3-4.5-2.2-8.1-6.5-10.2-.3-.1-.6-.5-.7-.8-.4-1.2-1.2-2.1-2-3.1-.3-.3-.5-.6-.8-.9h0c-1.4,0-2.4.8-3.5,1.5-.6.4-1.3.9-2,1.2-.9.4-1.9.9-2.7,1.6-2.4,2.2-4.7,4.6-5.8,7.8-.1.3-.2.7-.4,1-.5,1.4-1,2.8-1,4.3,0,1,.2,2,.3,3,0,.3,0,.5.1.8.1.6.3,1.3.5,1.9.9,2.4,2.7,4.2,4.8,5.5,2.2,1.3,4.5,2,7.1,1.3,1.5-.4,2.9-1.2,4.2-2,2-1.2,3.7-2.8,5.2-4.5,1.6-1.8,2.6-3.9,2.9-6.2,0,1.2-.1,2.4-.2,3.6-.2,3.5-.7,6.9-2,10.2-.3.9-.5,1.8-.6,2.7-.2,1.6.7,2.6,1.9,2.9,1.6.5,3.1,0,4.2-1.3,1.7-2.3,2.5-4.9,3-7.7.8-3.9,1-7.9,1.2-11.9.1-2.3.2-4.6.2-6.9h0c0-1.7,0-3.5.1-5.2.1-2.6.1-2.5,2.6-2.2h.2c2.4.3,4.7.6,6.9,1.5h0c.2,0,.4.2.6.1.4,0,.9,0,1.3.1.3,0,.6.1,1,.1-.8,2.5-1.2,5-1.3,7.6,0,1-.4,1.9-1.5,2.2-2.5.8-4.1,2.3-3.8,5.2,0,0,0,0,0,0h0s0,0,0,0h0s0,0,0,0c1,1.7,2.2,2.5,4.2,2.2h0c0,.5,0,.8.1,1.2,0,.8.2,1.4.2,2.1,0,1,0,2,0,3s0,2,0,3c0,1.5.9,2.3,2.4,2.4,1.3,0,2-.3,2.5-1.7.8-2.4,1.3-4.9,1.5-7.5,0-.2,0-.4,0-.6,0-.3,0-.6,0-.9.2-1.2.4-1.3,1.5-1.3s.3,0,.5,0c.9,0,1.9,0,2.8,0,.7,0,1.5-.1,2.2-.2h0c2.7-.2,5.4-.4,8.1-1.3.1,0,.3,0,.5,0h0c.1,0,.2,0,.4,0,0,.6,0,1.2-.1,1.8h0c-.1,1.4-.2,2.7-.4,4.1-.1,1.2-.3,2.5-.5,3.7h0c-.3,1.9-.5,3.8-.7,5.8-.2,1.9.4,2.5,2.2,2.9,1.1.3,3.3-.5,3.7-1.4.6-1.6,1.2-3.2,1.6-4.9.2-.9.3-1.8.4-2.7,0-.4,0-.8.1-1.3.2-1.3.3-2.7.5-4,.4-3.1.8-6.1,1.1-9.2.2-2.2.3-4.5.2-6.7,0-1,0-1.9.1-2.9.2-1.6.3-3.3-.2-5,0-.2-.1-.3-.2-.5-.3-1-.6-1.9-1.6-2.5-.6-.3-1.1-.7-1.6-.9-2.9,1.5-4,3.8-3.7,6.8.3,2.5.2,5-.3,7.5-.2.9-.6,1.3-1.3,1.6-1.8.8-3.7,1.1-5.6,1.4-2.1.3-4.2.2-6.3.1h0c-.6,0-1.2,0-1.8,0-.8,0-1.1-.5-1-1.2.1-.4.2-.9.3-1.3h0s0,0,0,0c.3-1.4.6-2.8,1.1-4.1.7-1.7.1-3.1-.5-4.6-.6-1.4-1.2-1.7-2.5-1.5.3-.8.4-1.8.3-2.8,0-.9-.7-1.4-1.3-1.7-.6-.3-1.3-.4-2-.5-.1,0-.2,0-.3,0-.9-.2-1.8-.2-2.7-.2-1.2,0-2.3,0-3.5-.3-1.9-.5-4-.7-6-.8h-.3c-2,0-4.1-.2-6.1.5-.3.1-.6.2-1,.4-1.5.5-3,1.1-4.3,1.9-1.8,1.1-3.1,2.6-3.3,4.9-.1,1.2.6,1.9,1.5,2.5.8.6,1.3,0,1.9-.4h0c.1-.2.2-.3.4-.4h0c.2-.1.3-.2.4-.4.8-.8,1.7-.6,2.6-.5ZM81.3,3.4c2.3.5,5,1.1,6.7,2.2h0c1.7,1.1,3.5,2.2,5.4,2.8,1.6.5,2.3,1.5,2.9,2.7.4.7-.2,2.5-.9,2.9-.8.4-1.6.8-2.4,1-.5.1-1.2,0-1.6-.1-.8-.4-1.7-.8-2.5-1.2-.5-.2-1-.5-1.4-.7-.4-.2-.8-.3-1.3-.5h0c-.2,0-.3-.1-.5-.2-.5,1-.5,2.1-.4,3.1,0,.8,0,1.5-.2,2.2-.3,1.2-.3,2.4-.3,3.7h0c0,.5,0,1.1,0,1.6,1.7,1.3,3.8,2.1,5.8,2.9.4.2.8.4,1.2.6,0,0,.1,0,.2,0,0,0,0,0,.1,0,.3.2.5.3.8.5h0s0,0,0,0h0s0,0,0,0h0c.4.3.8.5,1.2.7,2.7,1.4,3.1,4.2.8,6.1-.4.3-.9.7-1.2,1.1-.6.8-1.2,1.7-1.7,2.6-.9,1.4-1.8,2.8-2.9,4.1-2.2,2.6-5,4.2-8.6,4.4-1.4,0-2.8-.2-3.9-.9-1.3-.8-1.7-2.2-1.7-3.6,0-3.7.3-7.4.7-11.1h0s0-.6,0-.6c0-.4.1-.8.2-1.1,0-.3.1-.5.2-.8,0-.3,0-.8,0-1.4,0-.7,0-1.4.1-2.1,0,0,.9-10.5,1.6-12.8l1.1-6.5c.2-1.1,1.3-1.9,2.5-1.7h0ZM83.1,40.2c.3-.2.6-.4.8-.6h0s0,0,0,0h0c.5-.4,1-.7,1.4-1.1.3-.3.7-.6,1-.8,1.4-1.1,2.7-2.2,4.1-3.4.8-.7.7-1.1-.3-1.7-2.1-1.2-4.3-2.2-6.7-2.8-.6,2.8-1.5,8.4-.4,10.4ZM247.9,15.2c-.2,0-.3.1-.5.2,0-.2-.1-.3-.2-.4-.1-.3-.2-.5-.2-.7.1-1.1.3-2.1.4-3.2.2-1.1.3-2.1.4-3.2.2-1.5.3-3,.3-4.5,0-1.2-1.3-2.3-2.1-2.2-.8.1-1.7.4-2.5.7-1.2.4-1.9,1.1-2.5,2.4-.5,1-.5,2-.6,3,0,.4,0,.8-.1,1.3-.3,1.8-.4,3.6-.5,5.4h0s0,0,0,0h0c0,1.1-.2,2.3-.3,3.4,0,.5-.2,1-.3,1.5h0c-.2.6-.3,1.2-.3,1.8,0,1.5-.4,2.8-.9,4.2h0s0,0,0,0h0c-.1.4-.3.9-.4,1.3-.3,1-.4,2-.5,3,0,.6,0,1.3,0,1.9,0,.6,0,1.3,0,1.9,0,.7-.2,1.4-.2,2-.1.9-.2,1.7-.3,2.6,0,1.3.9,2.8,2,3.2,1.3.5,2.8,0,3.8-1.1.3-.4.7-.8,1-1.2v-.2c.8.2,1.5.5,2.1.7h0c1.2.5,2.4.9,3.7,1.3.9.3,1.9.5,2.9.6.7.1,1.3.2,2,.4,2.9.6,5.7.6,8.5-.5,1.1-.4,1.9-1.2,2.5-2.2,1.5-2.4.3-3.9-2.2-3.8-3.5.2-6.8-.2-10.1-1.3-2.1-.7-4.3-1.4-5.9-3.2-1.5-1.8-1.5-3.1.1-4.7.4-.4.8-.8,1.2-1.3h0s0,0,0,0c.9-.9,1.8-1.9,2.9-2.7.7-.5,1.4-.9,2.1-1.4h0c1.5-.9,3-1.8,4.1-3.2,0-.1.3-.2.5-.2.5,0,.8-.3,1-.6h0c0,0,.1-.1.2-.2.4-.5,1-1,1.6-1.3,2.3-1.2,3.1-3.2,3.4-5.5.1-1.1-.6-1.9-1.8-2.1-2.3-.4-4,.8-5.7,2h0s0,0,0,0h0c-.2.1-.3.2-.5.3-1.5,1.1-3,2.2-4.4,3.3h0s0,0,0,0c-.9.7-1.8,1.4-2.7,2-.2.2-.5.3-.8.4ZM105.9,23.7c-.2.5-.4,1-.6,1.6-1.1-1.5-1.7-2.8-1.3-4.4.6-2.7,1.3-5.2,3.8-6.9.2,0,.4.2.6.3h0c.3.1.6.3,1,.5-.5,1.9-1.3,3.6-2.1,5.3-.6,1.2-1,2.4-1.5,3.7ZM105.7,33c0-.6,0-1.3-.1-1.9,0,0,.1,0,.2,0,0,0,.2,0,.3,0,.3.3.6.7.9,1h0c.6.7,1.3,1.4,1.8,2.2,1.1,1.5,2.6,2.4,4.2,3.3h.2c1,.7,2.1.7,3.2.7h0c.3,0,.7,0,1,0,.9,0,1.9-.2,2.6-.6,1.1-.6,1.8-3.4,1.4-4.8-.3-1.1-2.2-2.4-3.4-2.5-2.4-.3-4.5-1.9-4.3-4.3,0,0,0-.1,0-.2,0,0,0-.1,0-.2,0-1.1.2-2.2.7-3,1-1.8,1.6-3.7,1.8-5.7v-.2c.3-2.4.6-4.9-.8-7.2-1.1-1.8-2.3-3-4.3-3.4-3.4-.6-7.7,1.2-9.4,4.2-2.3,4.1-3.9,8.5-4.7,13.2-.3,1.5-.4,3.2-.2,4.7.2,1.2.3,2.4.2,3.6,0,.3,0,.6,0,.9.7,1.4.7,2.9.6,4.5h0c0,1,0,2,.1,3,0,.2,0,.3,0,.5h0c.1.7.2,1.3.7,2,.7,1,1.5,1,2.4,1h0c.1,0,.3,0,.5,0,2.8.2,4.7-1.2,4.7-3.9,0-1.1,0-2.1-.2-3.1h0c0-.6-.1-1.1-.1-1.7,0-.6,0-1.3-.1-1.9h0ZM12.9,31.4c-.2.2-.6.2-.6.2h0c-2.2-.1-3.5-1.3-4.6-2.8-.1-.2-.2-.6-.1-.9.3-2.9,1.9-5,4-6.8,2.3-2,5.7-.8,6.9,2,1.1,2.7.3,3.9-2,5.9-.8.7-1.8,1.3-2.7,1.8-.3.2-.6.4-.9.5Z"/>
</svg>