<svg width="152" height="50" viewBox="0 0 152 50" fill="none" xmlns="http://www.w3.org/2000/svg">
<path fill-rule="evenodd" clip-rule="evenodd" d="M0.588423 20.5668C1.1919 21.5663 1.1919 22.5658 0.90902 23.6785V23.7162V27.2805C0.90902 27.7336 0.908264 28.1859 0.907509 28.6377C0.904492 30.4429 0.901488 32.2408 0.946737 34.0508C0.9587 34.8523 1.02379 35.6462 1.08904 36.4422C1.12665 36.901 1.16432 37.3605 1.1919 37.8225C1.22019 38.3128 1.23433 38.8079 1.24848 39.3029C1.26262 39.7979 1.27676 40.293 1.30505 40.7833C1.38049 41.9714 2.13483 42.688 3.19092 43.0652C5.45395 43.8573 8.22618 42.4051 8.28275 39.1615C8.29949 38.2908 8.27164 37.4201 8.24374 36.5478C8.20878 35.4551 8.17374 34.3598 8.22617 33.2587C8.30064 31.7055 8.24309 30.1523 8.18553 28.5992C8.14106 27.399 8.09658 26.1988 8.11302 24.9986C8.11302 23.8671 8.24503 22.6413 9.50856 22.0189C9.89418 21.8261 10.2744 21.6171 10.6543 21.4082C11.2777 21.0655 11.9003 20.7232 12.5448 20.4537C15.4901 19.2174 17.226 16.7016 18.9354 14.2243C18.9991 14.1319 19.0628 14.0396 19.1265 13.9474C20.5409 11.8919 20.8992 9.51566 20.6352 6.9886C20.39 4.65013 19.6357 2.6134 18.0892 0.859542C17.4481 0.124054 16.6748 -0.158825 15.7319 0.086337C15.4199 0.167721 15.1129 0.253982 14.8071 0.339859C14.2627 0.49278 13.7227 0.644482 13.1671 0.765248C10.0366 1.4253 7.52841 3.23573 5.49167 5.53649C3.07776 8.28985 2.0594 11.7598 1.64451 15.3996C1.5125 16.5688 1.13532 17.7569 0.682716 18.8507C0.437554 19.473 0.267826 20.0388 0.588423 20.5668ZM13.1294 11.2507C11.7905 12.4953 10.4515 13.6834 8.73536 14.5509V14.5321C7.50955 12.8159 7.43411 12.1936 8.43362 10.8735C8.46666 10.8299 8.49969 10.7862 8.53276 10.7425C9.44339 9.53854 10.3743 8.30774 11.8848 7.76181C12.0277 7.71605 12.169 7.6651 12.31 7.6142C12.6342 7.49726 12.9575 7.38062 13.2992 7.32806C13.8083 7.25262 14.2232 7.5355 14.1666 8.06355C14.1498 8.2295 14.1371 8.3963 14.1244 8.56306C14.0521 9.51434 13.9799 10.4644 13.1294 11.2507ZM71.1237 15.6011C71.017 14.7226 70.9105 13.8447 70.8181 12.9668H70.7992C70.8746 12.9479 70.9501 12.9479 71.0255 12.9479C71.0051 12.7237 70.975 12.4971 70.9447 12.2697C70.8909 11.866 70.8369 11.4602 70.8369 11.0621C70.8181 9.85512 70.1392 9.0442 69.3094 8.34643C68.2156 7.4035 66.7635 7.66752 65.8771 8.79904C65.1605 9.70425 65.0662 10.7603 65.1416 11.8353C65.3113 14.1549 65.4999 16.4745 65.764 18.7753C65.8218 19.2614 65.6879 22.6101 65.5802 25.3034L65.5801 25.3052L65.58 25.3063L65.58 25.3068V25.3069L65.58 25.3082C65.5123 27.0012 65.4549 28.4342 65.4622 28.7326C65.4999 29.3927 65.4056 30.0716 65.2548 30.7316C65.1592 31.1399 65.0196 31.5402 64.8803 31.9399C64.7171 32.4078 64.5542 32.8749 64.4627 33.353C63.9912 35.748 62.4825 37.2945 60.4081 38.4071C60.0686 38.5957 59.5594 38.5768 59.1634 38.5014C58.4091 38.3883 57.6359 38.1997 56.9004 37.9545C55.9952 37.6716 55.2785 37.9922 54.8448 38.6711C54.1093 39.8404 53.4681 41.085 54.5053 42.4429C54.6508 42.628 54.7499 42.8502 54.8481 43.0704L54.8481 43.0705C54.89 43.1644 54.9317 43.2579 54.9768 43.3481C55.7877 44.9133 57.5604 45.8186 59.352 45.5357C60.7715 45.3139 62.0634 44.7559 63.3551 44.198C63.7109 44.0444 64.0666 43.8907 64.425 43.7441C64.5193 43.7064 64.5947 43.6498 64.6701 43.5932C66.8955 41.764 68.555 39.4632 69.6488 36.8607C70.554 34.692 71.365 32.4101 71.233 29.9584C71.2222 29.7645 71.2607 29.5705 71.2992 29.3765L71.2992 29.3764C71.328 29.2309 71.3569 29.0855 71.365 28.9401C71.4027 28.2396 71.4527 27.5392 71.5028 26.8387C71.6278 25.0875 71.7529 23.3364 71.6856 21.5852C71.6071 19.5836 71.3652 17.5911 71.1237 15.6013L71.1237 15.6011ZM85.0184 11.5147C83.4909 10.5717 81.0581 10.006 78.9648 9.55336L78.946 9.51565C77.9087 9.28934 76.8904 9.98711 76.7206 11.0243L75.7211 16.8894C75.0988 18.945 74.2879 28.4309 74.2879 28.4309C74.2074 29.0848 74.202 29.7656 74.1974 30.3586V30.3589C74.1933 30.8774 74.1898 31.3289 74.137 31.6368C74.0977 31.8804 74.0421 32.124 73.9864 32.3676C73.9085 32.7086 73.8306 33.0497 73.7976 33.3907L73.7492 33.8895L73.7491 33.8899C73.4249 37.2313 73.1007 40.5734 73.1186 43.9327C73.1375 45.2339 73.477 46.4786 74.6462 47.2141C75.6646 47.8553 76.9092 48.1382 78.1916 48.0627C81.4353 47.8553 84.0189 46.3843 85.9802 44.0458C86.9462 42.9053 87.7542 41.6427 88.5637 40.3776C88.8902 39.8673 89.217 39.3566 89.5545 38.8534C89.8277 40.0134 90.2521 41.1546 90.8081 42.2732C91.9962 44.6871 94.0895 46.0638 96.7863 46.0072C99.1059 45.9506 101.444 45.6489 103.613 44.6494C103.83 44.5551 104.066 44.5032 104.301 44.4513C104.537 44.3995 104.773 44.3476 104.99 44.2533L105.028 44.2156C106.593 43.499 109.704 41.1605 107.027 37.6151C106.63 37.1059 105.895 37.6151 105.405 38.0111C105.254 38.1243 105.069 38.2039 104.885 38.2835C104.793 38.3233 104.701 38.3631 104.613 38.4071C102.708 39.3124 100.652 39.4066 98.5967 39.4821C96.9371 39.5575 96.0319 38.954 95.5228 37.4076C95.1456 36.2573 95.2964 35.1257 95.485 33.9754C95.8056 32.0518 96.5788 30.2791 97.4652 28.5629C97.6167 28.2725 97.9205 28.0751 98.2292 27.8744C98.3815 27.7754 98.5351 27.6756 98.6721 27.5634C99.9168 26.545 101.199 25.8473 102.934 26.1113C105.122 26.4508 106.084 25.6964 106.536 23.6031C106.557 23.4661 106.614 23.3409 106.669 23.2176L106.669 23.2175C106.713 23.1202 106.756 23.024 106.781 22.9242C107.309 20.9629 106.291 19.5673 104.254 19.4542C104.066 19.4542 103.858 19.4353 103.67 19.3976C101.426 19.0204 99.4076 19.5296 97.5595 20.812C97.3225 20.9765 97.0826 21.1377 96.8428 21.2989C95.4608 22.2276 94.0821 23.1541 93.2786 24.6969C92.4224 25.1725 92.0836 25.9856 91.7421 26.8051C91.542 27.2853 91.341 27.7677 91.0344 28.1858C90.481 28.9237 90.2682 29.9009 90.0551 30.8796C90.0303 30.9936 90.0054 31.1077 89.9801 31.2215C89.7991 31.1083 89.6202 30.9913 89.4403 30.8736C89.2027 30.7182 88.9632 30.5616 88.7147 30.411C88.6379 30.3676 88.5605 30.323 88.4825 30.2781L88.4814 30.2774C88.1193 30.0688 87.7445 29.8528 87.3569 29.7133C85.4711 29.0343 83.604 28.2989 82.0765 27.1296C82.1047 26.6385 82.1127 26.1458 82.1206 25.6559C82.1391 24.509 82.1573 23.3778 82.4348 22.3207C82.6133 21.6637 82.5963 20.9928 82.5791 20.3094C82.5563 19.4038 82.5329 18.4764 82.9629 17.5306C83.1074 17.5884 83.2482 17.6437 83.3859 17.6979C83.7875 17.8557 84.163 18.0033 84.5281 18.1718C84.9659 18.3802 85.4011 18.5964 85.8365 18.8126L85.8368 18.8127C86.5831 19.1834 87.3302 19.5545 88.0924 19.8879C88.4884 20.0576 89.1674 20.1142 89.5822 20.0011C90.3366 19.7747 91.0909 19.4353 91.7698 19.0581C92.4488 18.6621 92.9957 17.0402 92.6185 16.4179C91.9961 15.3995 91.3927 14.4189 89.9594 14.004C88.188 13.5005 86.6193 12.5177 85.0712 11.5477L85.0184 11.5147ZM81.3555 42.1543L81.3552 42.1546L81.353 42.1561C81.1135 42.3309 80.8651 42.5122 80.6055 42.7069C79.6249 40.8399 80.3792 35.8423 80.945 33.2964C83.0949 33.881 85.0939 34.7674 87.0175 35.8423C87.885 36.3326 87.9793 36.7098 87.2438 37.351C86.0519 38.4071 84.8118 39.4149 83.5717 40.4227L83.5691 40.4248C83.2599 40.676 82.9507 40.9273 82.6423 41.1793C82.235 41.5125 81.8117 41.8214 81.3564 42.1537L81.3556 42.1542L81.3555 42.1543ZM36.3444 28.2046C36.4367 27.9278 36.5236 27.651 36.6102 27.3752C36.7537 26.9182 36.8964 26.464 37.061 26.017C37.7399 24.3009 38.5509 22.6602 40.1161 21.5475C40.2807 21.4279 40.3859 21.2014 40.4883 20.9811C40.5149 20.9237 40.5414 20.8666 40.5687 20.812C41.9831 17.7758 44.4348 16.3991 47.7727 16.2671C49.0363 16.2105 50.1489 16.5311 51.2616 16.9649C51.3685 17.0026 51.4753 17.0466 51.5822 17.0906C51.7959 17.1786 52.0097 17.2666 52.2234 17.3043C53.8264 17.6061 54.8447 18.6433 55.75 19.8691C56.0894 20.3406 56.4477 20.812 56.8815 21.1892C58.0884 22.283 58.8051 23.7351 59.0879 25.2061C59.4463 27.1485 59.8046 29.2041 58.6542 31.1089C58.5053 31.3493 58.433 31.6384 58.3611 31.9255L58.3611 31.9256L58.361 31.9256L58.361 31.9257L58.361 31.9258L58.361 31.9259C58.3145 32.1115 58.2682 32.2964 58.2016 32.4667C57.4284 34.4091 55.9951 35.7292 54.3921 37.0682C52.4308 38.7278 50.1489 39.5387 47.7916 40.0101C45.1703 40.5382 42.4169 41.0851 39.9087 39.2558C39.0723 38.6459 38.4935 37.9072 38.0087 37.0695C37.7487 37.4132 37.4576 37.672 37.1554 37.7847C36.4199 38.0676 35.4958 38.1242 34.7226 37.9733C34.4251 37.9112 34.1213 37.8636 33.8166 37.816C32.8274 37.6612 31.8293 37.505 31.0074 36.8418L30.9148 36.7688L30.9147 36.7687C29.6078 35.7384 28.3296 34.7308 27.5374 33.1832C27.1336 32.389 26.6433 31.6332 26.1556 30.8816L26.1556 30.8815C25.9601 30.5802 25.765 30.2795 25.5761 29.9773C25.5007 29.9867 25.4253 30.0008 25.3498 30.015C25.2797 30.0281 25.2096 30.0413 25.1394 30.0506C25.0951 30.5797 25.0468 31.1088 24.9984 31.6399L24.9983 31.6403L24.9983 31.6406C24.9442 32.2332 24.8899 32.8282 24.8407 33.4284C24.8054 33.8864 24.7793 34.3443 24.7533 34.8017L24.7533 34.802V34.802C24.6956 35.8137 24.6382 36.8225 24.4823 37.8225C24.1052 40.2364 22.2193 41.2359 19.7111 40.6701C19.5702 40.637 19.431 40.6083 19.294 40.5801C18.4961 40.4156 17.7773 40.2675 17.2783 39.35C16.9121 38.6652 16.9089 38.0612 16.9054 37.4015C16.9048 37.28 16.9041 37.1566 16.9012 37.0304C16.8715 36.1412 17.0224 35.2637 17.173 34.3875C17.4058 33.0337 17.638 31.6832 17.2029 30.2979C17.1399 30.0932 17.1821 29.8492 17.2197 29.6315C17.2271 29.5884 17.2344 29.5463 17.2406 29.5058C17.4858 28.4309 17.5424 27.3936 17.5235 26.281C17.5046 24.8854 17.863 23.4333 18.3156 22.0755C19.6545 18.0209 21.7101 14.3434 24.3126 10.9489C26.1985 8.47841 30.3474 7.40346 33.2893 8.42183C35.0998 9.06302 35.9861 10.3077 36.7216 12.0238C37.6979 14.3018 37.1143 16.4064 36.5327 18.5039L36.4576 18.7752C35.9861 20.4914 35.2129 22.1509 34.1003 23.6408C33.5291 24.3903 33.2958 25.4271 33.0806 26.3833L33.0442 26.545C32.564 28.6133 34.1634 30.2475 36.1779 30.8812C36.1844 30.0705 36.2459 29.2489 36.3078 28.4234L36.3255 28.1858L36.3444 28.2046ZM53.2983 28.5629C53.5624 27.0543 53.2606 26.4319 51.9216 25.7153C51.5256 25.4984 51.1343 25.2721 50.743 25.0458C50.3517 24.8195 49.9604 24.5932 49.5643 24.3763C49.3569 24.2632 49.0928 24.1877 48.8665 24.1877L48.8108 24.1865C47.151 24.149 45.4978 24.1116 44.4348 25.7341C44.3405 25.885 44.1707 26.0359 44.0199 26.1302C42.266 27.356 41.606 29.0344 41.8323 31.1277C42.0397 33.089 43.7559 34.2017 45.3777 34.0131C46.9618 33.8245 48.4139 33.3153 49.8283 32.7118C51.6765 31.9198 52.8457 30.5054 53.336 28.5629H53.2983ZM110.976 18.4409L111.06 18.4542C111.023 18.6858 110.983 18.9104 110.943 19.1299C110.839 19.7077 110.742 20.2504 110.742 20.7931C110.742 22.1474 110.761 23.4977 110.781 24.8476V24.8482V24.8487V24.8492L110.781 24.8503C110.804 26.4697 110.828 28.0887 110.817 29.7133C110.798 31.6557 110.704 33.5982 110.572 35.5217C110.383 38.6711 109.931 41.764 108.781 44.7436C108.479 45.5168 108.309 46.3655 108.196 47.1953C108.007 48.6662 108.799 49.5337 109.874 49.8355C111.364 50.2504 112.703 49.892 113.627 48.6285C115.136 46.5541 115.89 44.1967 116.381 41.7074C117.078 38.1431 117.323 34.5411 117.493 30.9202C117.59 28.8332 117.638 26.7461 117.685 24.6626V24.6621L117.685 24.6603V24.6602V24.6601C117.721 23.092 117.757 21.526 117.814 19.9634C117.906 17.6564 117.944 17.6613 120.155 17.9454L120.303 17.9643C122.434 18.2284 124.546 18.4924 126.527 19.3222L126.544 19.3292C126.729 19.4033 126.947 19.4907 127.13 19.4542C127.519 19.3856 127.911 19.4711 128.301 19.5562C128.876 19.6816 129.446 19.806 129.996 19.4353C131.92 18.1529 132.693 16.3236 132.542 14.0417C132.486 13.2497 131.939 12.7782 131.373 12.4953C130.823 12.2202 130.189 12.1257 129.568 12.0329C129.465 12.0175 129.363 12.0022 129.261 11.9861C128.445 11.8445 127.621 11.828 126.795 11.8115C125.75 11.7906 124.702 11.7696 123.66 11.4958C121.925 11.0432 120.077 10.8358 118.266 10.7792L118.013 10.7691C116.171 10.6953 114.3 10.6205 112.533 11.2695C112.243 11.3775 111.951 11.483 111.659 11.5886L111.659 11.5886C110.318 12.0734 108.973 12.5596 107.781 13.2874C106.197 14.2492 104.99 15.6636 104.801 17.6815C104.688 18.7941 105.329 19.3787 106.14 19.9256C106.892 20.4449 107.338 20.0121 107.817 19.5474L107.894 19.473C107.997 19.3785 108.112 19.2957 108.228 19.2121C108.367 19.1124 108.507 19.0116 108.63 18.8884C109.34 18.1784 110.173 18.312 110.976 18.4409ZM149.327 23.2071C151.703 21.7361 152.25 19.3222 150.76 16.7008L150.779 16.7386C150.671 16.7206 150.562 16.697 150.451 16.6731C150.212 16.6216 149.967 16.5688 149.723 16.5688C147.328 16.4934 144.932 16.418 142.537 16.418C140.369 16.3991 138.257 16.8706 136.276 17.7003C135.22 18.1529 134.202 18.9073 133.353 19.7182C131.939 21.0572 130.77 22.6224 130.147 24.4895C130.078 24.6999 130.006 24.9121 129.933 25.1258L129.933 25.1259C129.491 26.4249 129.032 27.7738 129.129 29.0532C129.18 29.7453 129.214 30.4397 129.248 31.1347V31.1348V31.135C129.352 33.2616 129.456 35.3937 130.053 37.4831C130.312 38.3887 130.393 39.3564 130.473 40.3133L130.473 40.3136L130.473 40.314L130.473 40.3144C130.51 40.7519 130.547 41.1872 130.6 41.6131C130.17 41.8434 129.751 42.0573 129.343 42.2656C128.514 42.6883 127.731 43.0881 126.998 43.5555C126.494 43.8873 126.055 44.3312 125.615 44.7753C125.43 44.9624 125.245 45.1495 125.055 45.3283C123.622 46.6861 124.678 48.9303 126.734 49.0057C129.223 49.0811 131.713 49.1377 134.108 48.2325C134.444 48.1078 134.756 47.8923 135.066 47.6788C135.224 47.5695 135.381 47.4608 135.541 47.365C137.194 46.352 137.436 44.7389 137.678 43.1206L137.678 43.1201C137.743 42.6899 137.807 42.2592 137.898 41.8394C137.932 41.7214 137.875 41.5731 137.822 41.4352L137.804 41.3868C136.729 38.1997 136.031 34.9183 135.843 31.5614C135.748 30.015 135.993 28.4121 136.352 26.9034C136.654 25.621 137.408 24.414 138.69 23.886C141.274 22.8299 143.952 22.547 146.649 23.5088C147.592 23.8483 148.459 23.7351 149.327 23.2071ZM25.6139 24.81C25.9067 24.2947 26.1777 23.7993 26.4392 23.3211C27.0201 22.2595 27.5545 21.2825 28.1786 20.3594C29.1404 18.945 30.0456 17.5494 30.7246 15.9464C30.3832 15.7228 30.0859 15.5211 29.8143 15.337C29.6508 15.2261 29.4967 15.1216 29.3479 15.0224C26.8963 16.2482 25.9345 18.4358 25.0481 20.6988C24.5012 22.1132 24.8407 23.3579 25.6139 24.81Z" fill="#B32B3C"/>
</svg>
