<?xml version="1.0" encoding="UTF-8" standalone="no"?>
<!DOCTYPE svg PUBLIC "-//W3C//DTD SVG 1.1//EN" "http://www.w3.org/Graphics/SVG/1.1/DTD/svg11.dtd">
<svg width="100%" height="100%" viewBox="0 0 224 60" version="1.1" xmlns="http://www.w3.org/2000/svg" xmlns:xlink="http://www.w3.org/1999/xlink" xml:space="preserve" xmlns:serif="http://www.serif.com/" style="fill-rule:evenodd;clip-rule:evenodd;stroke-linecap:round;stroke-linejoin:round;stroke-miterlimit:1.5;">
    <g transform="matrix(1,0,0,1,0,2)">
        <path d="M27,4C27,4 17.933,0.311 14,6C10.067,11.689 12.267,19.366 21,34C29.733,48.634 9.15,46.866 7,47C4.85,47.134 6,44 6,44" style="fill:none;stroke:white;stroke-width:6px;"/>
    </g>
    <g transform="matrix(1,0,0,1,0,2)">
        <path d="M42,38C42,38 42.331,17.193 44,16C45.669,14.807 51,30 51,30C51,30 63.234,9.739 64,13C64.766,16.261 65,40 65,40" style="fill:none;stroke:white;stroke-width:6px;"/>
    </g>
    <g transform="matrix(1,0,0,1,1,2)">
        <path d="M85,10L86,41L85,30L101,19L101,9C101,9 100.431,37.008 102,42" style="fill:none;stroke:white;stroke-width:6px;"/>
    </g>
    <g transform="matrix(1,0,0,1,-1,0)">
        <path d="M111,44L118,12L128,45L125,33L112,35" style="fill:none;stroke:white;stroke-width:6px;"/>
    </g>
    <g transform="matrix(1,0,0,1,0,2)">
        <path d="M134,41L134,21C134,21 135.522,7.706 147,10C158.478,12.294 136,28 136,28L136,33C136,33 141.413,36.68 147,38" style="fill:none;stroke:white;stroke-width:6px;"/>
    </g>
    <g transform="matrix(1,0,0,1,0,2)">
        <path d="M156,41C156,41 153.826,6.307 166,11C178.174,15.693 152.401,34.511 168,35" style="fill:none;stroke:white;stroke-width:6px;"/>
    </g>
    <g transform="matrix(1,0,0,1,0,2)">
        <path d="M180,21C180,21 193.195,20.388 189,33C184.648,46.082 174.737,40.891 175,33C175.24,25.801 172.627,27.205 183,17" style="fill:none;stroke:white;stroke-width:6px;"/>
    </g>
    <g transform="matrix(1,0,0,1,-2,0)">
        <path d="M198,43L198,21C198,21 213.397,10.042 219,23C224.603,35.958 219.402,43.637 215,44C210.598,44.363 201,42 201,42" style="fill:none;stroke:white;stroke-width:6px;"/>
    </g>
    <path d="M218,53L116,53L54,55L9,56" style="fill:none;stroke:white;stroke-width:6px;"/>
</svg>
