<svg width="224" height="50" viewBox="0 0 224 50" fill="none" xmlns="http://www.w3.org/2000/svg">
<path fill-rule="evenodd" clip-rule="evenodd" d="M24.7333 0.66941C24.4662 0.605723 24.1983 0.535402 23.93 0.464989C22.9821 0.216193 22.0299 -0.0337507 21.0923 0.00375449C20.1065 0.0468492 19.1315 0.288946 18.1577 0.530762L18.1577 0.53077C17.6817 0.648968 17.206 0.767098 16.7294 0.861888C15.1174 1.18269 13.7781 2.113 12.4628 3.16361C11.989 3.54267 11.8098 4.07372 11.6341 4.59471C11.5272 4.91147 11.4216 5.2245 11.2518 5.49741C9.54355 8.25627 9.61573 11.3921 10.1691 14.4316C10.1965 14.5813 10.2236 14.732 10.2508 14.8834L10.2508 14.8835L10.2508 14.8835L10.2508 14.8835L10.2508 14.8836L10.2508 14.8836L10.2508 14.8836C10.5663 16.6387 10.8993 18.4914 11.9255 19.9975C11.9754 20.0655 11.9996 20.154 12.0243 20.2442C12.0433 20.3135 12.0625 20.3839 12.0939 20.4466C12.3955 21.0684 12.6945 21.6922 12.9935 22.3162L12.9936 22.3164L12.9936 22.3165C13.728 23.849 14.4626 25.382 15.2377 26.8866C15.5665 27.5199 15.9356 28.1264 16.3044 28.7324C16.7903 29.5307 17.2757 30.3282 17.6677 31.1853C18.3016 32.5834 18.8198 34.049 19.3382 35.5148L19.3385 35.5156L19.3386 35.5158L19.3386 35.516L19.3387 35.5161L19.3388 35.5163C19.4892 35.9418 19.6397 36.3673 19.793 36.7912C20.3063 38.2108 19.9294 39.7827 18.959 40.7451C17.8843 41.8197 16.6252 42.3731 15.2457 42.6137C14.615 42.7246 13.9857 42.84 13.3566 42.9554C12.53 43.1069 11.7037 43.2585 10.8749 43.3997C10.113 43.528 9.72801 43.1831 9.73603 42.2287C9.73603 41.6513 9.64781 41.0498 9.47939 40.5045C9.39117 40.2077 8.99819 39.7827 8.81374 39.8308C8.35486 39.9328 7.89742 39.9555 7.43716 39.9784C6.81145 40.0095 6.1805 40.0408 5.53358 40.2719C4.20302 40.7483 3.16292 41.6541 2.12355 42.5593L2.12352 42.5593L2.1235 42.5593C1.72824 42.9036 1.33309 43.2477 0.922113 43.5681C0.456957 43.929 0.152199 44.739 0.0238798 45.4127C-0.0488895 45.7877 0.0580612 46.2135 0.164755 46.6383L0.164763 46.6384C0.210931 46.8222 0.25705 47.0058 0.288538 47.1851C0.283083 47.2493 0.277124 47.314 0.271147 47.3789C0.198024 48.173 0.122023 48.9982 0.930133 49.3986L1.03326 49.4503C1.48535 49.6777 1.96908 49.921 2.4459 49.9359C4.20227 50.0081 5.95864 50.0161 7.70698 49.976C8.59374 49.9556 9.47725 49.8899 10.3616 49.8241C10.869 49.7864 11.3767 49.7486 11.8854 49.7194C12.0449 49.7094 12.2044 49.716 12.3634 49.7225C12.588 49.7317 12.8115 49.7409 13.0322 49.7033L13.2784 49.6651L13.2785 49.6651C14.1758 49.5261 15.0771 49.3864 15.9515 49.166C17.0262 48.8933 18.0928 48.5565 19.1354 48.1555C19.6888 47.947 20.2101 47.5941 20.6913 47.2171C20.7881 47.1408 20.8853 47.0648 20.9825 46.9886C22.2549 45.9926 23.5415 44.9855 24.212 43.2794C24.3059 43.0388 24.4112 42.7964 24.5172 42.5525L24.5172 42.5524L24.5172 42.5524L24.5172 42.5523L24.5173 42.5522L24.5173 42.5522C24.8458 41.796 25.1803 41.0259 25.1985 40.2558C25.2306 38.5716 24.9739 36.8554 24.6772 35.1953C24.4687 34.0324 24.1398 32.8374 23.6346 31.8189C22.57 29.6965 21.4149 27.625 20.2643 25.5618C20.0454 25.1691 19.8266 24.7767 19.6086 24.3844C19.2956 23.8218 18.9603 23.2793 18.625 22.7369L18.625 22.7369C18.3246 22.2509 18.0242 21.7649 17.7399 21.2646C17.2668 20.4305 16.8417 19.5644 16.4327 18.6902C16.3396 18.4891 16.2445 18.2887 16.1494 18.088L16.1493 18.088L16.1493 18.088L16.1493 18.088L16.1493 18.088L16.1493 18.0879C15.4742 16.6643 14.7956 15.2335 14.7886 13.5254C14.7886 13.0522 14.7164 12.563 14.5961 12.1058C14.2112 10.6462 14.6924 8.46479 15.6788 7.79112C17.2828 6.70041 19.0953 6.35555 20.9238 6.50793C22.4641 6.64186 23.9932 6.93796 25.5157 7.23281C25.8166 7.29106 26.1171 7.34926 26.4175 7.40616C27.1794 7.55052 27.6927 6.941 27.829 6.41169C28.206 4.91998 27.8771 3.47639 27.0912 2.17716C26.5137 1.21477 25.6396 0.885948 24.7413 0.66941H24.7333ZM67.9933 35.2936C68.0173 35.4962 68.0413 35.6986 68.0651 35.901V35.8849C68.0884 36.0851 68.109 36.2867 68.1296 36.4886C68.2081 37.2575 68.2872 38.032 68.5222 38.7561C68.8189 39.6543 68.4741 40.1676 67.9367 40.8573C66.822 42.2929 65.3864 42.4052 63.7503 42.0202C62.3148 41.6834 61.5689 40.5686 61.609 39.2052C61.6411 38.099 61.609 36.9893 61.577 35.8784C61.5609 35.3221 61.5449 34.7654 61.5368 34.2088C61.5288 33.7179 61.5226 33.2271 61.5164 32.7365C61.5039 31.7523 61.4914 30.7693 61.4646 29.7898C61.454 29.506 61.4245 29.2207 61.395 28.9344C61.3577 28.5735 61.3203 28.2113 61.3203 27.849C61.3083 26.5501 61.3083 25.2533 61.3083 23.9565V23.9553V23.9541C61.3083 22.6572 61.3082 21.3604 61.2962 20.0616C61.2962 19.8667 61.2274 19.6719 61.1274 19.3889C61.071 19.2294 61.0047 19.0418 60.9353 18.8105C60.6738 19.3253 60.4334 19.8092 60.204 20.2712L60.2035 20.2722C59.7718 21.1414 59.3785 21.9333 58.9544 22.7082C57.976 24.5127 56.9895 26.3172 55.9148 28.0655C55.3858 28.9266 54.7777 29.7443 54.1711 30.5601L54.171 30.5601C53.9133 30.9068 53.6557 31.2531 53.4046 31.6023C52.2337 33.2303 49.6112 33.6233 47.9751 32.3963C47.7185 32.2038 47.4538 31.9151 47.3576 31.6264C46.9967 30.5677 46.6679 29.4931 46.4112 28.4023C46.0536 26.8785 45.7127 25.3547 45.3582 23.7702C45.1643 22.903 44.9662 22.0177 44.7591 21.1042C44.2348 21.9312 44.2952 22.6631 44.3519 23.3498L44.3579 23.4218L44.3641 23.4999L44.3661 23.5262C44.4497 24.5889 44.5541 25.6515 44.6585 26.7142L44.6586 26.7145C44.8047 28.2021 44.9509 29.6897 45.0398 31.1772C45.1055 32.2448 45.0666 33.316 45.0276 34.3884V34.3885V34.3885V34.3885V34.3886V34.3886V34.3886C45.0094 34.8872 44.9913 35.3861 44.9837 35.8849C44.9809 35.9323 44.9694 35.9825 44.9579 36.0327C44.9364 36.1269 44.9149 36.2207 44.9516 36.294C45.5035 37.3852 44.8735 38.0546 44.2542 38.7127C44.0816 38.8962 43.9098 39.0788 43.7646 39.2694C43.3235 39.8468 40.0594 40.328 39.4659 39.8789L39.3712 39.8077C38.5228 39.1714 37.6188 38.4934 37.7657 37.2564C37.894 36.1496 37.7577 35.0669 37.4209 33.9682C37.2484 33.4173 37.2071 32.8316 37.1659 32.2461C37.1477 31.9877 37.1295 31.7293 37.1001 31.474C37.0603 31.1283 37.0043 30.7818 36.9483 30.4357C36.8239 29.6659 36.6999 28.8982 36.7552 28.1457C36.871 26.6267 37.143 25.1135 37.414 23.6061L37.414 23.6061L37.414 23.6059C37.4621 23.3386 37.5101 23.0714 37.5572 22.8044C37.8379 21.2165 38.1667 19.6285 38.5276 18.0486C38.6524 17.5147 38.8087 16.9839 38.9649 16.4532C39.2405 15.5172 39.516 14.5816 39.6183 13.6296C39.727 12.608 40.3593 12.0642 41.0067 11.5075C41.076 11.448 41.1454 11.3883 41.2143 11.3279C41.8238 10.7986 42.5456 10.4858 43.492 10.5179C43.6663 10.5234 43.8344 10.5213 43.9997 10.5193H43.9997C44.5568 10.5125 45.0827 10.5061 45.7135 10.7906C46.4674 11.1354 46.8283 11.5845 47.2453 12.1459C49.2262 14.8085 50.2287 17.8 50.8863 20.9197C51.0788 21.826 51.3034 22.7242 51.536 23.6225C51.5613 23.7186 51.6441 23.802 51.7662 23.925C51.8376 23.9969 51.9225 24.0824 52.0172 24.1919C52.1988 23.9144 52.3798 23.649 52.5563 23.3901C52.9563 22.8033 53.3336 22.2499 53.6452 21.6656C53.9202 21.1402 54.1596 20.5963 54.3988 20.0528L54.3988 20.0527L54.3988 20.0526L54.3988 20.0526L54.3988 20.0526L54.3989 20.0525L54.3989 20.0525L54.3989 20.0525L54.3989 20.0525C54.7037 19.3599 55.0081 18.668 55.3855 18.0165C56.131 16.7321 56.9088 15.4631 57.6869 14.1936L57.687 14.1935L57.6871 14.1933L57.6872 14.1931L57.6873 14.1929L57.6874 14.1927L57.6876 14.1925L57.6876 14.1924L57.6877 14.1922L57.6878 14.1921L57.6879 14.192L57.6879 14.1919L57.688 14.1918C58.6002 12.7033 59.5128 11.2144 60.3739 9.69984C61.4245 7.83921 63.6541 7.50238 65.1699 8.38457C66.9022 7.99159 67.0545 13.4131 67.0545 13.4131C67.2791 16.597 67.5037 19.7729 67.7282 22.9007C67.7282 22.9007 68.3778 27.2475 67.5598 26.9026C67.5551 27.29 67.545 27.672 67.535 28.0499L67.535 28.0514V28.0514V28.0515V28.0516V28.0517V28.0517V28.0518C67.5106 28.9719 67.4869 29.8681 67.5438 30.7602C67.6357 32.2732 67.8148 33.7861 67.9933 35.2936ZM216.522 16.5489C219.321 18.2652 221.206 21.1283 222.449 24.5288L222.441 24.5528C223.291 26.8786 223.796 29.2846 224.005 31.6424C223.892 34.5938 223.724 37.3927 222.136 39.6784C221.326 40.8413 220.412 41.9801 219.369 42.8543C217.829 44.1455 216.201 45.3726 214.469 46.2788C213.461 46.8052 212.32 47.013 211.189 47.219C210.907 47.2703 210.625 47.3215 210.347 47.3776C209.36 47.57 208.358 47.6342 207.355 47.6823C206.834 47.7064 206.305 47.6182 205.791 47.5059C205.437 47.4257 205.084 47.3241 204.731 47.2226L204.731 47.2225C204.095 47.0396 203.461 46.8569 202.816 46.8001C202.443 46.7691 202.064 46.9419 201.682 47.1157C201.472 47.2112 201.262 47.307 201.052 47.3695C200.057 47.6663 199.343 47.0888 199.111 45.9179C199.031 45.5073 198.929 45.1018 198.827 44.6973C198.674 44.0906 198.522 43.4863 198.445 42.8704C198.357 42.1766 198.314 41.475 198.271 40.7739V40.7738V40.7737V40.7735V40.7734V40.7733V40.7732C198.216 39.878 198.161 38.9834 198.012 38.1065C197.883 37.3386 197.832 36.5684 197.782 35.8021V35.8018C197.739 35.1436 197.696 34.4883 197.603 33.8399C197.353 32.1048 197.448 30.4073 197.544 28.7034V28.7033V28.7032V28.703V28.7029V28.7028V28.7026L197.544 28.6987C197.565 28.325 197.586 27.9511 197.603 27.5763C197.659 26.3092 197.595 25.018 197.451 23.7508C197.422 23.459 197.239 23.1967 197.053 22.9299L197.053 22.9298C196.933 22.7566 196.811 22.5816 196.729 22.3955C196.32 21.4571 196.488 20.5027 196.793 19.5885C197.33 17.9524 198.084 16.5409 199.536 15.7389C199.941 15.5115 200.317 15.2193 200.694 14.9273L200.694 14.9271C201.102 14.6115 201.508 14.296 201.95 14.0627C202.973 13.5167 204.077 13.4205 205.212 13.3216L205.358 13.3089C206.898 13.1725 208.398 13.2848 209.826 13.766L210.217 13.8966C212.37 14.6149 214.564 15.3466 216.522 16.5489ZM217.011 37.1762C218.238 35.9973 218.8 34.3131 218.8 32.4124L218.808 32.4043C218.872 32.3963 218.944 32.3803 219.016 32.3643L219.016 32.3642C218.907 31.8553 218.802 31.3457 218.696 30.8362L218.696 30.8354L218.696 30.8346C218.461 29.6987 218.226 28.5636 217.95 27.44C217.868 27.1178 217.666 26.8298 217.466 26.5449C217.392 26.4397 217.319 26.3349 217.252 26.229C217.069 25.9424 216.891 25.6488 216.713 25.3551C216.284 24.6461 215.854 23.9358 215.343 23.3177C213.884 21.5614 211.903 20.9278 209.946 20.3263C209.517 20.1976 209.074 20.1359 208.632 20.0743C208.082 19.9977 207.534 19.9213 207.019 19.7168C205.575 19.1394 204.308 19.6206 203.065 20.2782C202.736 20.4466 202.423 21.1203 202.423 21.5694C202.412 22.6656 202.464 23.7618 202.516 24.8579C202.541 25.3738 202.566 25.8896 202.584 26.4054C202.597 26.7974 202.602 27.1909 202.607 27.5846C202.614 28.1091 202.62 28.634 202.648 29.1563C202.68 29.8088 202.728 30.4596 202.775 31.1096L202.775 31.11C202.832 31.8979 202.89 32.6844 202.92 33.471C202.951 34.2756 202.953 35.0826 202.955 35.8907V35.8918V35.892V35.8923V35.8925V35.8927V35.8929V35.8932C202.957 36.5663 202.958 37.2402 202.977 37.914C203.001 38.8925 203.145 39.7747 204.324 39.494C204.41 39.4714 204.506 39.5456 204.606 39.6234C204.684 39.6835 204.765 39.7457 204.845 39.7666C205.211 39.8654 205.581 39.9973 205.95 40.1293C206.812 40.437 207.675 40.745 208.494 40.6328C208.85 40.5842 209.211 40.5466 209.573 40.5089C211.063 40.3536 212.582 40.1953 213.924 39.2534C214.306 38.9828 214.709 38.7449 215.111 38.5076L215.111 38.5076C215.782 38.1118 216.45 37.7177 217.011 37.1762ZM143.18 7.21365C144.551 6.949 145.923 6.74048 147.302 6.53196L147.31 6.51592C148.802 6.29136 149.748 6.96503 150.269 8.62516C150.935 10.7424 151.079 12.8597 150.719 15.0973C150.349 17.3758 149.213 19.0439 148.051 20.7493C147.978 20.8567 147.905 20.9642 147.831 21.0721C146.256 23.3964 144.265 25.1705 142.272 26.9456L142.041 27.1512L141.885 27.2902C141.326 27.7907 140.756 28.2996 140.22 28.8354C139.547 29.5091 139.699 30.3993 140.493 30.8645C142.338 31.9456 144.171 33.038 146.007 34.1323L147.037 34.7461C147.34 34.9284 147.639 35.1187 147.938 35.3089L147.938 35.3091L147.938 35.3093L147.939 35.3094L147.939 35.3096L147.939 35.3099L147.939 35.31L147.94 35.3101L147.94 35.3101C148.376 35.5879 148.812 35.8654 149.259 36.1175C149.682 36.355 149.697 36.7422 149.711 37.1269C149.719 37.3398 149.727 37.5519 149.804 37.7375C150.093 38.4273 150.045 38.9004 149.379 39.1811C149.291 39.2132 149.171 39.3656 149.171 39.4618C149.164 40.6897 148.34 40.5923 147.778 40.5258C147.705 40.5172 147.637 40.509 147.575 40.5044C145.85 40.3761 144.11 40.1195 142.426 39.6704C141.779 39.4959 141.172 39.1243 140.562 38.7512C140.219 38.5412 139.875 38.3307 139.523 38.1546C139.057 37.9218 138.581 37.7256 138.103 37.5289C137.873 37.4342 137.643 37.3394 137.413 37.2403L137.34 37.2959L137.265 37.3525L137.162 37.4311L137.117 37.4649C137.301 38.5235 137.486 39.5821 137.662 40.6488C137.672 40.7202 137.686 40.7937 137.7 40.8675C137.741 41.084 137.782 41.3035 137.734 41.4829C137.157 43.4959 134.975 45.0918 133.187 44.8432C131.743 44.6507 130.236 42.8222 130.572 41.2182C130.876 39.7736 130.725 38.3802 130.575 36.9912C130.495 36.252 130.415 35.514 130.404 34.7702C130.393 34.1251 130.421 33.4782 130.449 32.8313V32.831V32.8307V32.8304V32.8301C130.482 32.07 130.515 31.3097 130.484 30.5517C130.473 30.2675 130.464 29.9822 130.455 29.6964V29.6962C130.403 28.0949 130.35 26.4781 130.003 24.9538C129.578 23.0771 129.698 21.3207 130.34 19.6927C130.392 19.562 130.443 19.4265 130.495 19.2889C130.923 18.1521 131.404 16.8738 132.906 16.9739C133.107 16.9819 133.379 16.4927 133.548 16.1799C133.848 15.6417 134.135 15.0938 134.422 14.5463C134.964 13.5112 135.506 12.4775 136.13 11.5123C136.502 10.9382 137.016 10.4825 137.53 10.0262L137.53 10.026L137.53 10.0259C137.749 9.83219 137.967 9.63831 138.175 9.43518C139.611 8.02367 141.383 7.55851 143.18 7.21365ZM143.019 18.9548C144.527 17.6636 145.666 16.0195 145.947 13.79H145.939C146.003 13.2446 145.85 12.5229 145.562 12.0978C145.121 11.4402 142.835 11.4482 142.177 11.8893C141.853 12.1093 141.507 12.2848 141.162 12.4605L141.161 12.4606C140.978 12.5539 140.794 12.6473 140.613 12.7474L140.552 12.7797L140.552 12.7797C140.299 12.9135 140.041 13.0499 139.803 13.2206C138.873 13.9103 138.079 14.6642 137.462 15.8431L137.331 16.0924C136.606 17.4686 135.911 18.7886 135.737 20.4225C135.727 20.5228 135.716 20.6234 135.705 20.7241C135.658 21.1632 135.611 21.6055 135.585 22.0425C135.542 22.633 135.513 23.2199 135.485 23.8079V23.8082V23.8084V23.8086V23.8088C135.471 24.0991 135.456 24.3896 135.441 24.6811C135.489 24.7011 135.535 24.7232 135.581 24.7452C135.627 24.7673 135.673 24.7894 135.721 24.8094C135.829 24.7465 135.941 24.6884 136.052 24.6302C136.295 24.5031 136.539 24.376 136.748 24.1999C138.849 22.4676 140.95 20.7353 143.019 18.9548ZM104.636 38.692C104.544 37.8107 104.494 36.9268 104.445 36.0419C104.407 35.3805 104.37 34.7184 104.315 34.0564C104.276 33.5558 104.187 33.0628 104.091 32.5294L104.091 32.5287L104.091 32.5287V32.5286C104.048 32.2933 104.004 32.05 103.962 31.7948C103.971 31.7551 103.989 31.7028 104.01 31.6413C104.065 31.4792 104.142 31.2539 104.131 31.0329C104.115 30.7106 104.068 30.3902 104.022 30.0709C103.976 29.7547 103.93 29.4394 103.914 29.1242C103.87 28.1387 103.838 27.1533 103.806 26.1692C103.78 25.3753 103.754 24.5823 103.722 23.7909C103.658 22.3473 103.577 20.8957 103.489 19.4521C103.457 18.9589 103.417 18.4677 103.377 17.9764C103.337 17.4852 103.297 16.994 103.265 16.5008C103.26 16.4079 103.279 16.3121 103.298 16.2151C103.31 16.1529 103.322 16.0902 103.329 16.0276C103.351 15.7877 103.39 15.5418 103.429 15.2954C103.519 14.7346 103.609 14.1712 103.497 13.6697C103.192 12.2662 102.711 10.9029 102.182 9.57956C101.805 8.63321 101.099 8.23221 100.121 8.33647C99.3669 8.41667 99.1423 8.92193 98.9097 9.56352L98.8881 9.62512C98.7908 9.90314 98.6901 10.1907 98.5408 10.4297C97.8591 11.5364 97.7308 12.7715 97.7869 14.0948C97.7906 14.1994 97.7962 14.3086 97.8019 14.4201C97.8334 15.0352 97.8685 15.7221 97.6105 16.1158L97.5364 16.2278C96.5733 17.6847 95.582 19.1843 94.3544 20.3102C93.0652 21.4945 91.6571 22.5047 90.2506 23.5139L90.2505 23.5139C89.7234 23.8921 89.1966 24.2701 88.6763 24.6571C88.3475 24.8977 87.9705 25.034 87.8983 24.3202C87.8831 24.1645 87.862 24.0088 87.8409 23.8527C87.8065 23.5987 87.7719 23.3434 87.762 23.0851C87.7208 21.9873 87.6901 20.8868 87.6594 19.7867L87.6594 19.7858L87.6593 19.785L87.6593 19.7841L87.6593 19.7832L87.6593 19.7822L87.6592 19.7813C87.6362 18.9545 87.6131 18.1279 87.5856 17.3028C87.5754 16.9913 87.5667 16.6795 87.558 16.3675V16.3673C87.5253 15.2013 87.4926 14.0336 87.3851 12.8758C87.2648 11.5364 87.0964 10.1811 86.7675 8.88985C86.5029 7.84726 84.8989 7.55854 84.2894 8.37657C83.9686 8.80965 83.6317 9.32292 83.5355 9.86026C83.4251 10.4899 83.2418 11.1039 83.0583 11.7181C82.6553 13.0676 82.252 14.4183 82.6212 15.9394C82.7613 16.5346 82.7729 17.1787 82.7843 17.8077L82.7843 17.809C82.7854 17.8666 82.7864 17.924 82.7875 17.9813C82.7882 18.0145 82.7889 18.0476 82.7896 18.0807C82.8027 18.5046 82.8164 18.9287 82.8302 19.353L82.8305 19.3619L82.8308 19.3712C82.9011 21.5415 82.9715 23.7156 82.9581 25.8841C82.9581 26.8305 82.8057 27.849 82.4528 28.6831C82.0358 29.6695 82.1881 30.5597 82.6212 31.2976C83.4553 32.7091 83.7601 34.2409 83.4553 35.8048C83.2307 36.9757 83.1746 38.0343 83.5114 39.1731C83.8403 40.2799 84.2172 41.2503 85.2838 41.6914C86.5029 42.1967 87.3771 41.7556 87.9866 40.5606C88.2592 40.0313 88.5079 39.3977 88.5319 38.7962C88.563 37.9873 88.5204 37.1751 88.4777 36.3617L88.4777 36.3613L88.4776 36.3608L88.4776 36.3603C88.4543 35.9161 88.431 35.4714 88.4196 35.0268C88.3956 34.1366 88.3715 33.2464 88.3876 32.3562C88.3876 32.1316 88.4998 31.8349 88.6522 31.7066C88.9145 31.485 89.1736 31.2557 89.4329 31.0262C90.1967 30.3504 90.9619 29.6733 91.8121 29.1883C93.3815 28.2894 94.6531 26.9978 95.9316 25.6992L95.9317 25.6991L95.9325 25.6983L95.9332 25.6976L95.934 25.6968C96.0462 25.5828 96.1586 25.4687 96.2712 25.3548C96.6387 24.9816 97.0223 24.6243 97.4611 24.2155C97.6446 24.0445 97.8378 23.8645 98.0436 23.6706C98.0804 23.9287 98.1183 24.1507 98.1522 24.3493L98.1524 24.3503L98.1525 24.3509L98.1525 24.3512C98.2144 24.7134 98.263 24.998 98.2681 25.2826C98.2897 26.0658 98.2994 26.8501 98.3092 27.6343V27.6347C98.3247 28.8901 98.3403 30.145 98.4045 31.3938C98.4487 32.3228 98.5502 33.2519 98.6517 34.1809C98.7158 34.7676 98.7799 35.3544 98.8295 35.9411C99.014 38.1386 99.3187 40.2799 100.417 42.1726L100.466 42.2565C100.994 43.1739 101.507 44.0668 102.535 44.3781C103.112 44.5465 104.291 44.3781 104.588 43.8247L104.598 43.8058C105.052 42.9778 105.516 42.1321 105.181 41.0338L105.178 41.0242C104.947 40.2653 104.708 39.4826 104.628 38.7L104.636 38.692ZM127.782 32.0915C127.878 32.3963 127.757 32.8454 127.629 33.1662L127.621 33.1822C127.084 34.5296 127.028 35.6925 127.693 37.1762C128.415 38.7801 128.904 40.721 128.287 42.5816C127.862 43.8648 126.835 44.2818 125.905 44.1936C125.135 44.2096 124.349 43.2232 124.116 42.4212C123.938 41.7957 123.723 41.1841 123.508 40.5716L123.508 40.5715L123.508 40.5713C123.357 40.1394 123.205 39.7071 123.066 39.2694C122.962 38.9405 122.897 38.5957 122.865 38.2508C122.793 37.5932 122.528 37.3526 121.951 37.4649C120.395 37.7536 118.839 38.0263 117.275 38.2749C117.097 38.3046 116.91 38.2594 116.724 38.2144L116.723 38.2144C116.659 38.1987 116.594 38.1831 116.53 38.1706C115.527 37.9862 114.902 38.5315 114.789 39.6944L114.773 39.8589L114.773 39.8592L114.773 39.8596C114.658 41.0403 114.543 42.2276 114.412 43.4076C114.332 44.1134 112.712 46.0783 112.119 46.2146C111.252 46.4151 109.961 45.6853 109.464 44.6989C109.057 43.892 109.209 43.0787 109.361 42.2704L109.387 42.132C109.392 42.1031 109.397 42.0743 109.403 42.0454C109.407 42.021 109.412 41.9965 109.416 41.9721C109.488 41.5641 109.584 41.1594 109.679 40.7559L109.679 40.7558L109.679 40.7556C109.732 40.5326 109.784 40.31 109.833 40.0874C110.098 38.8443 109.825 37.7777 108.983 36.9436C108.526 36.4945 108.413 36.1175 108.71 35.4438C108.823 35.1803 108.851 34.8584 108.879 34.5388V34.5387C108.911 34.1775 108.942 33.8192 109.095 33.5511C109.388 33.0391 109.766 32.5923 110.146 32.144C110.391 31.8551 110.636 31.5655 110.859 31.2574C111.124 30.8885 111.397 30.4234 111.453 29.9662C111.531 29.377 111.568 28.7801 111.605 28.1842C111.652 27.4256 111.7 26.6689 111.83 25.9322C112.012 24.9036 112.29 23.8992 112.568 22.8962L112.568 22.8959L112.568 22.8957C112.683 22.4833 112.797 22.0711 112.905 21.6576C112.945 21.5009 112.981 21.3383 113.015 21.1799L113.033 21.0962C113.163 20.4832 113.267 19.8543 113.372 19.2252C113.616 17.7554 113.861 16.2839 114.428 15.009C114.766 14.2515 114.653 13.6084 114.545 12.9878C114.465 12.5308 114.387 12.0859 114.493 11.6166C114.529 11.4557 114.542 11.2933 114.555 11.1317C114.584 10.7617 114.613 10.3957 114.926 10.0607C115.2 9.76833 115.35 9.30717 115.498 8.8524L115.499 8.85201L115.499 8.8517C115.549 8.69554 115.6 8.54014 115.655 8.39259C115.88 7.79912 116.225 7.45426 116.802 7.45426C116.88 7.45426 116.959 7.45036 117.036 7.44649C117.47 7.42492 117.886 7.40419 118.158 8.06377C118.29 8.38345 118.517 8.64884 118.744 8.91542L118.744 8.91551L118.744 8.91557C118.887 9.08366 119.031 9.25223 119.152 9.43518C119.973 10.6668 120.441 12.0923 120.908 13.516L120.908 13.5162L120.908 13.5163C121.035 13.9003 121.161 14.2842 121.293 14.6642C121.895 16.3724 122.416 18.1208 122.929 19.8771C123.33 21.2566 123.675 22.6601 124.004 24.0636C124.165 24.7332 124.301 25.4127 124.437 26.0926L124.437 26.0927L124.437 26.0929C124.545 26.6343 124.653 27.1758 124.774 27.7126C124.902 28.2981 125.135 28.8114 125.769 28.8515C126.338 28.8916 126.659 29.3086 126.883 29.886C126.995 30.1754 127.121 30.4576 127.246 30.739C127.443 31.183 127.639 31.6252 127.782 32.0915ZM117.061 31.303C118.14 31.1109 119.123 30.9358 120.106 30.7281C120.219 30.7041 120.371 30.295 120.331 30.1186C119.978 28.5387 119.609 26.9668 119.2 25.4109C119.023 24.7317 118.822 24.0615 118.62 23.3911L118.62 23.391L118.62 23.3909C118.493 22.969 118.367 22.5471 118.246 22.1227C118.17 21.8574 118.103 21.5892 118.035 21.3215L118.035 21.3202L118.035 21.319C117.988 21.1345 117.942 20.9503 117.893 20.7674C117.797 20.7593 117.692 20.7513 117.596 20.7513C116.971 24.1999 116.393 27.6565 116.016 31.49C116.376 31.425 116.723 31.3632 117.061 31.303L117.061 31.303ZM169.333 31.7948C169.073 31.7024 168.813 31.6077 168.553 31.5131C167.957 31.2957 167.362 31.0785 166.758 30.8885C165.988 30.6479 164.906 29.0279 165.082 28.1457C165.307 26.9909 165.555 25.8119 165.964 24.7373C166.287 23.8891 166.639 23.0545 166.991 22.2198L166.991 22.2196C167.907 20.0473 168.823 17.8741 169.229 15.4582C169.261 15.266 169.297 15.0718 169.333 14.8765L169.333 14.8764C169.485 14.0527 169.64 13.2095 169.549 12.4186C169.428 11.439 169.038 10.4913 168.66 9.56984L168.66 9.56971C168.614 9.45766 168.568 9.34599 168.523 9.23471C168.026 7.99964 167.232 7.60666 166.045 7.71092C164.28 7.87132 162.732 8.74549 161.225 9.65174C159.155 10.8948 157.872 13.0682 156.653 15.2817C156.626 15.3306 156.6 15.3834 156.574 15.4364L156.574 15.4366C156.501 15.5836 156.428 15.7323 156.316 15.803C154.287 17.0461 153.798 19.4441 153.357 21.6817C153.06 23.1888 153.014 24.7661 152.968 26.339V26.3392C152.951 26.8922 152.935 27.4447 152.908 27.9933C152.895 28.237 152.88 28.4816 152.864 28.7264C152.801 29.715 152.738 30.7088 152.86 31.6665C153.076 33.3266 153.149 34.9707 153.028 36.6308C153.021 36.7393 153.016 36.8491 153.01 36.9593V36.9595C152.993 37.3297 152.975 37.7043 152.876 38.0504C152.419 39.7426 152.996 41.6112 154.295 42.5014C154.448 42.606 154.598 42.7205 154.747 42.8352C155.023 43.0459 155.299 43.2571 155.595 43.4077C155.811 43.5199 156.188 43.4879 156.373 43.3275C156.569 43.1695 156.743 42.9653 156.916 42.7622C157.137 42.5014 157.358 42.2422 157.624 42.0844C158.73 41.4107 159.027 40.2558 158.907 39.0288C158.817 38.0859 158.848 37.1745 158.88 36.2575C158.89 35.95 158.901 35.6418 158.907 35.3316C158.954 33.5729 158.838 31.8057 158.722 30.0393V30.039L158.722 30.0373C158.679 29.3878 158.637 28.7384 158.602 28.0896C158.584 27.7512 158.574 27.4103 158.563 27.069V27.0686C158.536 26.1886 158.51 25.3059 158.354 24.4566C157.736 21.1122 159.083 18.4977 160.527 15.9153C161.187 14.7362 162.289 14.3003 163.36 13.8766C163.513 13.8161 163.665 13.7559 163.815 13.6938C164.593 13.373 165.17 14.2151 164.842 15.1775C164.393 16.4767 163.895 17.7519 163.358 19.003C162.987 19.8574 162.583 20.6939 162.179 21.5307L162.179 21.5309L162.179 21.5321C161.919 22.0695 161.66 22.6069 161.409 23.1493C161.336 23.3092 161.26 23.469 161.183 23.6293C160.885 24.2573 160.582 24.8925 160.423 25.5633C160.128 26.8087 159.913 28.0823 159.761 28.9891L159.761 28.9895C159.714 29.2679 159.672 29.5118 159.637 29.7096C159.837 33.0299 160.727 35.6363 163.173 36.9356C163.336 37.0217 163.496 37.1147 163.655 37.2075C164.403 37.642 165.141 38.0708 166.053 37.7536C166.401 37.6319 166.758 37.5387 167.116 37.4453L167.116 37.4453L167.117 37.4453C167.442 37.3603 167.769 37.2751 168.09 37.1682C168.156 37.1456 168.224 37.1233 168.291 37.1009C168.821 36.9241 169.36 36.7444 169.83 36.4383C170.953 35.7165 170.865 34.4334 170.76 33.1903C170.687 32.2754 170.086 32.0685 169.488 31.8626C169.431 31.8429 169.374 31.8231 169.317 31.8028L169.333 31.7948ZM191.768 27.3481C191.85 27.6873 191.931 28.0267 192.021 28.3623C192.027 28.3841 192.039 28.4072 192.05 28.4305C192.067 28.4671 192.085 28.5044 192.085 28.5387C192.068 28.9369 192.073 29.3451 192.078 29.7538C192.088 30.6701 192.099 31.589 191.861 32.4043C190.786 36.0855 188.974 39.2052 185.958 41.1781C185.665 41.3693 185.374 41.5693 185.084 41.7694C184.302 42.3079 183.52 42.8468 182.678 43.2152C181.178 43.8728 179.566 43.7204 177.97 43.5199C177.112 43.4077 176.567 42.9666 176.013 42.2368C175.625 41.7263 175.192 41.262 174.759 40.7978C174.308 40.3137 173.856 39.8297 173.455 39.2934C173 38.6867 172.688 37.9304 172.385 37.1944C172.351 37.1131 172.318 37.0321 172.284 36.9516C171.546 35.1792 171.145 33.3186 171.346 31.3537C171.57 29.1803 171.851 27.0149 172.741 25.034C173.68 22.9488 174.65 20.9037 176.294 19.404C176.63 19.1019 176.892 18.6707 177.148 18.2513C177.197 18.1695 177.247 18.0883 177.297 18.0085C178.265 16.4394 179.664 15.5435 181.067 14.6444C181.313 14.4866 181.559 14.3287 181.804 14.167C182.421 13.7579 183.007 13.4773 183.777 13.6938C185.397 14.1429 185.902 17.0221 185.373 18.3293C185.307 18.4876 185.241 18.6435 185.167 18.8182C185.106 18.962 185.04 19.1186 184.964 19.2997C185.073 19.3419 185.166 19.3851 185.249 19.4234C185.401 19.4943 185.518 19.5483 185.637 19.5483C187.206 19.5876 188.329 20.7461 189.368 21.8171L189.439 21.8902C190.148 22.6209 190.589 23.7497 191.004 24.8116C191.049 24.9268 191.094 25.0412 191.139 25.1543C191.409 25.8548 191.589 26.6009 191.768 27.3481ZM182.068 36.6308C183.68 36.3982 184.819 35.4118 185.75 34.0805H185.758C186.544 32.9577 187.257 31.6504 186.985 30.1106C186.632 28.1217 186.127 26.2851 184.089 25.4831C182.798 24.9698 181.563 24.8335 180.264 24.7854C179.92 24.7693 179.58 24.7028 179.241 24.6365C179.074 24.6039 178.907 24.5713 178.74 24.5448L178.596 24.2561C177.281 26.261 176.222 28.3141 176.222 31.0489C176.23 33.904 177.882 35.6684 179.558 36.711C180.181 37.0963 180.79 36.9383 181.409 36.7779C181.627 36.7212 181.847 36.6643 182.068 36.6308Z" fill="#B32B3C"/>
</svg>
