<?xml version="1.0" encoding="UTF-8"?>
<svg id="Layer_2" xmlns="http://www.w3.org/2000/svg" version="1.1" viewBox="0 0 917.8 917.8">
  <!-- Generator: Adobe Illustrator 29.7.0, SVG Export Plug-In . SVG Version: 2.1.1 Build 138)  -->
  <defs>
    <style>
      .st0 {
        fill: #fff;
      }
    </style>
  </defs>
  <g id="Layer_1-2">
    <g>
      <path class="st0" d="M913.9,507.2c-.2-3.5.6-7.5,1.6-12.1,1.2-5.8,2.5-12.3,2.2-19.8-.8-16.8-.6-28.4-.2-45.5,1-38-.1-76.6-1.2-114-.4-15.9-1.5-31.9-2.5-47.5-1.2-17.2-2.3-35-2.6-52,0-3.8-.1-7.3-.2-10.6-.3-13-.5-22.4.8-37.9.3-3.9,0-8.1-.3-11.7-.2-2.6-.4-5.3-.3-7.1.3-.7,1.1-1.8,1.6-2.6,1.9-2.9,4.1-6.3,4.3-10.5.2-2.9-2.2-14-2.6-15.2-1.9-5.6-7-13.1-13.8-16.2-11.8-5.4-28.3-5.1-38.5-2-30.2,9.3-63.9,9.9-96.6,10.4-2.4,0-4.8,0-7.2.1-76.6,1.4-147.3,0-216.4-3.9-78.1-4.5-138.4-5.6-201.5-3.7-13.2.4-26.6.8-39.5,1.3-46.9,1.6-95.4,3.2-142.9,2.2-2.5,0-5.1-.1-7.6-.1-37.4-.7-72.8-1.3-107.9-14.9l-2.1-.8-2.2.2c-8.8.6-20,2.4-29.5,10.7-8.1,7.1-7.9,14.8-7.8,19.8,0,1.4,0,2.6,0,3.7-2.5,24,0,49.6,2.5,74.3.6,6.2,1.2,12.7,1.8,18.9,1.2,14.3,3,28.9,4.8,43,2.1,16.9,4.2,34.3,5.4,51.4,4.3,62,6.1,125.6,7.8,187.2.3,9.5.5,19,.8,28.4.2,6.1,1.9,12.9,3.8,20.1,1.7,6.6,3.5,13.4,3.6,18.7,0,.8-.2,1.4-1,3.2-1.1,2.4-2.6,5.7-2.7,10.2,0,4.7,1.1,8.8,2.1,12,.9,3,1.4,4.9,1.1,6.5l-.6,3.2,1.4,2.9c1.1,2.2,3.5,5.1,7.1,6.2.6.8,1.4,1.6,2.3,2.3,3.4,2.7,6.8,2.3,11.3,1.8,2.6,2,5.7,2.3,8.1,1.8,15.7-3.2,26.2-2.7,39.4-2.1,5.4.2,11.1.5,17.7.5,3.2,0,6.9-.4,11-.9,1.5-.2,3.1-.3,4.6-.5.4,8,1.4,16,2.4,23.8,1.7,13.4,3.3,26,2,38.3l-6.2,38.6v.4c-.5,3.7-2.1,7.6-3.8,11.7-3.4,7.9-7.6,17.8-3.7,30,1.3,4,3.5,6.7,5.2,8.8.5.6,1.2,1.5,1.5,2-.8,1.6-2.8,4.4-4.1,6.2-3.6,5.1-6.7,9.5-6.9,14.6-.3,8,2.9,15.9,9,22.2,6.7,7,16.1,11.1,25.2,11.1h.2c8.6,0,13.5-3.7,17.4-6.7.7-.5,1.4-1,2.2-1.6,19.7-14,41.1-39.8,60-62.4,8-9.6,15.5-18.7,22.3-26.1,34.3-37.6,66.7-64,105-92.1,3.3-2.5,7.9-5.3,12.8-8.4,9.2-5.8,18.8-11.9,24.4-17.7.8-.9,1.6-1.7,2.4-2.6,2.3.4,5.2.6,8.8.3,19-1.6,38-4.8,56.4-7.9,17-2.8,34.6-5.8,51.9-7.4,13.9-1.3,18-2.2,30.2-4.7l1.7-.3c21.9-4.5,44.5-3.9,68.4-3.3,12.1.3,24.5.6,36.8.2,32.6-1,65.7-3.3,97.7-5.5,12.8-.9,26-1.8,39-2.6,4.5-.3,9-.5,13.7-.8,26.8-1.5,57.3-3.1,82.9-11.5,7.2-2.3,21.6-17.5,23.1-19.4,9.4-11.9,6.5-21.5,4.5-28.5-.8-2.8-1.6-5.4-1.7-8.4h0ZM193.4,674c.6-10.9,1.2-22.2,1.5-33.5,0-2.5,1.3-11.7,2.4-20.6,1.4-10.3,2.9-22.1,3.8-31.5.5-5.4.8-9.5.8-12.5s0-12.4-8.4-14.5c-1-.4-3.6-2-5.3-3.1-5.5-3.4-10.7-6.6-16-6.6h0c-5.9,0-10.7,2.8-14.6,5-1.3.8-2.9,1.6-3.6,1.9-9.9,3.3-22.1,3.5-35,3.6-7.5.1-15.1.2-22.5,1-.2-2.1-.4-4.4-1.1-6.7-.8-2.6-2.3-4.4-3.4-5.7-1-1.1-1.9-2.1-2.3-3.7-9-33.9-10.5-78-11.8-116.8-.4-11.4-.8-22.2-1.3-32.6-.7-14.5-1.1-29.7-1.5-44.4-.6-24.4-1.3-49.7-3.5-73.5-1.2-12.6-3.6-25.3-5.9-37.7-2.4-12.8-4.9-26.1-5.9-38.7-1-12-2.1-36.1-1.7-44.1.4-.6.8-1.2,1.3-1.9,8.9-.7,18.1.5,27.6,1.7,6.2.8,12.5,1.6,19,1.9,69,3.3,140.9.5,210.4-2.2,23.1-.9,47-1.8,70.1-2.5,58.1-1.7,117.7.9,175.3,3.4,38,1.7,77.3,3.4,115.9,3.8,12.7.2,25.5.4,39,.7,40.1.9,81.6,1.8,120.1-.8,2.4-.2,4.6-.5,6.8-.9.5,4.3,1.1,8.6,1.8,12.8.8,5.6,1.6,11,2.1,16.3,6.3,73.5,14.8,211.9,1.2,312.2h0c0,.5-.2,1.1-.3,1.8-5.1,1.2-16,2.8-32.8,4.9-1.3.2-2.5.3-3.4.4-23.2,2.9-45.3,3.5-68.7,4.3-10.8.3-21.9.7-33.2,1.2-10.4.5-20.8,1.6-31,2.6-14.1,1.4-28.7,2.9-42.9,2.9h0c-8.2,0-16.5-1-25.3-2.1-10.5-1.3-21.4-2.7-32.2-2.1-11.7.6-23.3,3.3-34.6,5.9-8.7,2-16.9,3.9-25.1,4.9-8.2,1-16.5,1.2-25.4,1.4-9.2.2-18.7.4-28,1.6-5.9.8-11.9,1.9-17.7,3-12.2,2.4-24.8,4.8-36.3,3.4-.3-.2-.8-.5-1.2-.7-2.4-1.4-6-3.5-10.8-3.5-5.7.1-9.5,2.7-11.5,4.3-4.6-.2-15.5-1.1-17-1.2-5.8-.8-19.1.4-28.7,2.1-22.4,3.8-28.5,9.4-31.2,13.3l-.5.6-.3.7c-16.9,35.5-38.6,75.9-45.6,81.9-12.4,10.5-22.5,22-32.3,33.1-3.2,3.7-6.6,7.4-10,11.1-3.7,4.1-7.4,8.3-11.1,12.3-6.4,7.2-12.9,14.6-19.8,21.5,0-4.9,0-9.4,0-11.1.3-9.5.8-19.1,1.4-28.4h0Z"/>
      <path class="st0" d="M226.3,480.5c5,.7,10.6,1.4,17.1,1.8,40.4,2.2,65.5,1.4,106.8-9.6,6-1.6,9.7-2.3,14.4-3.2,2-.4,4.1-.8,6.6-1.3,4.5-.9,7.9-3.1,10.6-4.8,1.5-.9,2.8-1.8,3.8-2.1,4.4-1.2,9.9-.8,15.6-.2,7.2.6,14.7,1.3,21.9-1.3,2.1-.8,4.1-1.9,10.9-9.4,6.6-7.3,7.6-9.4,8-10.3,2.4-5.2,2.6-9.7,2.5-13.7-.5-11.8-5.6-23.1-10.2-33.1-2.4-5.1-4.6-10-6-14.5-6-18.7-9.8-43.7-12.8-63.8-.4-2.6-.8-5.2-1.2-7.7-3.1-20.1-7.8-57.4-4.4-82.9.3-.6.9-1.7,1.4-2.6,2-3.5,4.4-7.9,4.9-13,1.4-13.2-3.4-24.5-12.8-30.4-19.7-12.3-32.9-5.1-45.7,4-2.6,1.8-4.3,4.1-5.5,5.7-.3.4-.8,1-1,1.3-5.9,3.1-12.9,3.9-20.3,4.8-2.8.3-5.7.7-8.5,1.2-11,1.8-22.3,3.4-33.2,4.9-23.9,3.3-48.6,6.8-72.8,13.2-6.6,1.7-13.5,4.4-20.2,7-6.9,2.6-13.3,5.1-18.9,6.5-2.6.6-5.7.4-9.3.2-7.4-.5-17.5-1.2-26.8,7.1-9.9,8.9-19.3,36.6-16.6,49.4.7,3.1,2.2,5.8,3.8,8.4.8,1.3,1.8,3,2.1,3.9,7.1,22.1,2.8,72.4.2,102.5-.4,4.3-.7,8.2-1,11.7-.3,3.9-.3,8.3-.3,12.6,0,5.1,0,10.3-.6,14.2-.4,2.7-1.1,4.9-1.8,7.2-2.9,9.1-4.2,17.1,7.3,29.9,10.5,11.6,20.6,9.4,27.2,7.9,2.1-.5,4-.9,6-1,2.5-.1,4.6.4,7.2,1.1,2.9.7,6.3,1.6,10.6,1.6s6.4-.4,10.1-1.7c11.9-3.9,19.9-2.8,30.9-1.3h0ZM219,362.5l-23.8,22.6.4-41.2c6.6,4.6,15.1,11.1,20.9,15.6.6.5,1,1,1.6,1.9.3.4.6.7.9,1.1h0ZM265.8,402.5c1.4-1.2,2.5-2.4,3.4-3.6,1.2,1.4,2.5,2.9,4.2,4.1,10,7.4,18.2,13.6,26.3,20.8-4,.7-7.9,1.4-11.7,1.7-10.6.9-33.8-.2-48.6-2.2,4.5-4.1,9.5-7.8,14.8-11.7,3.8-2.9,7.8-5.8,11.6-9h0ZM327.6,343.1c1.6-.2,3.5-.8,5.3-2.2,2.8-2.3,3.5-5.2,3.9-6.7,0,0,0,0,0-.1,4-4.9,7.9-9.9,11.6-14.8,2.2-2.8,4.3-5.6,6.4-8.3l3.2,32,.2.9c1.8,6.4,2.7,14,3.5,21.4.6,5.1,1.2,10.4,2.1,15.3,1.4,7.2,3.2,14.3,5,21.2.2,1,.5,1.9.8,2.9-1.9-.2-3.4-.6-4.4-1.1-8.6-5-19.3-14.9-28.7-23.7-4.9-4.5-9.5-8.8-13.8-12.4-1.5-1.3-3.6-2.7-6-4.3-1.3-.9-3.2-2.2-5.1-3.5,2.2-2.1,4.4-4.3,6.8-6.4,1.7-1.6,3.5-3.3,5.3-5,1.6-1.5,2.8-3.3,3.8-4.9h0ZM313,266.2l-1.6,2.1c-9.6,13-19.5,26.4-29.9,37.6-8.8,9.5-15.1,15.3-18.6,18.1-10.5-7.5-37.7-30.8-52.1-44.4,2.6-.9,5.4-1.9,8.2-2.8h0c30.6-9.9,63.4-14.1,97.1-17.2l-3.1,6.5h0Z"/>
      <path class="st0" d="M544.7,385l-10.1-1.5c-1.8-.3-6.1-1.3-10.3-2.3-17.9-4.3-23.8-5.4-28.4-4-1.8.5-14.9,7.5-16.6,8.9-7.6,6.3-12.8,16.3-13.4,26-.6,8.2,2,15.8,7.2,21.6,4.1,4.5,20.6,10,21.5,10.2,6.5,1.5,11.7,1,16.2.6,2.2-.2,4.2-.4,6.2-.3,35.7,1,72.1,5.6,107.2,10,18.5,2.3,37.6,4.7,56.5,6.5,3.8.4,7.7.5,11.4.5,5,.1,10.2.2,14.7,1,4.8.9,9.7,2.5,14.4,4,7,2.3,14.8,4.8,22.8,4.8s21.8-4.6,32.1-20.5c5.7-8.8,6.7-18.2,2.8-26.5-5.9-12.6-21-18.6-32.2-20-4-.5-8,0-11.8.6-2.5.4-4.8.7-6.7.6-58.3-1.5-124.8-11.5-183.5-20.4h0Z"/>
      <path class="st0" d="M488.1,351.4c7.5,1.8,16.1,2.5,23.6,1.9h0c8.5-.7,16.6-1.6,24.4-2.5,20.1-2.2,39.2-4.4,61.4-2.9,1.9.1,5.4,1,8.5,1.8,4.9,1.3,9.2,2.4,13,2.2,2.6-.1,4.8-.8,6.6-1.3,1.7-.5,2.7-.8,3.8-.8,3.2,0,5.9,1.6,10.1,4,3.9,2.2,8.3,4.8,14,5.9,6.4,1.3,11.1.6,14.5,0,1.6-.2,2.8-.4,3.8-.4.9,0,2.8.7,4.5,1.3,3.5,1.2,8,2.8,13.4,2.8s1.8,0,2.7-.1c9.7-1,19.2-5.2,26.1-11.5,8.2-7.6,12.2-17.6,11.3-28.2-1.2-14.5-10.5-19.1-16.6-22.1-.8-.4-1.6-.8-2.4-1.2-.8-1.1-2.1-2.8-4.2-4-8.2-4.8-16-1.7-20.2,0-.9.4-2.2.9-2.7.9-13.9,2.3-29.6-.4-44.8-3-7.3-1.2-14.8-2.6-22.2-3.3-48.1-5-87.9-5.4-121.5-1.2-10.6,1.3-25.6,5.1-32.6,22.8-3.7,9.4-2.8,18.5,2.5,25.6,4.6,6.2,12.3,10.7,22.7,13.2h0Z"/>
      <path class="st0" d="M481.5,273.8c1.5,1,3.1,2.1,19.4,5.6,3.5.8,15.2,3.2,18.8,3.4,5.2.2,10.1-.6,14.3-1.2,3-.5,5.8-.9,8.3-1,6.1,0,12.2.2,18.7.5,6.6.3,13.4.6,20.2.5,6.5-.1,13.2-.7,19.7-1.3,8.3-.8,16.1-1.5,23.3-1.2.5.3,1.3.9,2.4,1.8.5.4,1,1,1.7,1.8,2.2,2.6,5.6,6.5,12.6,8.7,2.6.8,6,1.1,9.5,1.1,12.5,0,28.2-3.8,28.4-3.9,4.2-1.1,23.8-8.2,29.3-12.3,7.9-6,12.6-19.1,13.3-29.1.6-8.6-1.6-15.5-6.3-20.2-6.7-6.6-27.8-11.1-34.5-10.3-4.8.6-8.6,3-11.4,4.9-.7.4-1.6,1-2.1,1.3-1.8.2-5.5.1-8.2,0-3.3-.1-6.6-.2-9.5,0-30.7,2.6-63,2.9-91.2.9-3.9-.3-8.9-.8-14.2-1.4-21.4-2.3-48.1-5.2-62.6,1-7.4,3.2-12.9,8.6-15.5,15.2-2.3,5.9-2.1,12.3.6,18.5,1.5,3.3,12.9,15.4,14.9,16.8h0Z"/>
    </g>
  </g>
</svg>