<?xml version="1.0" encoding="UTF-8"?>
<svg id="Layer_2" xmlns="http://www.w3.org/2000/svg" version="1.1" viewBox="0 0 763.9 763.9">
  <!-- Generator: Adobe Illustrator 29.7.0, SVG Export Plug-In . SVG Version: 2.1.1 Build 138)  -->
  <defs>
    <style>
      .st0 {
        fill: #fff;
      }
    </style>
  </defs>
  <g id="Layer_1-2">
    <g>
      <path class="st0" d="M661.2,143.2c-.1-1.8-.7-3.1-1.1-4,0-.3,0-.7,0-1,0-1.4,0-3.1-.8-5.4.6-1.1.9-2.3.9-3.5v-1.3c0-1.6-.5-3.1-1.4-4.3-.2-.5-.4-1-.7-1.5-.9-1.6-5.9-6.8-6.7-7.4-1-.8-2.1-1.3-3.1-1.5,0,0,0,0,0,0-2-1.8-4-3.4-8.2-4.7-1.7-.5-3.2-.6-4.5-.6-.2-.2-.5-.4-.7-.5-1.8-1.2-3.6-1.7-5-2-1.1-.8-2.4-1.3-3.8-1.5-1-.1-2-.1-2.8,0-.2,0-.3-.2-.5-.2-.5-.9-1.2-1.7-2.2-2.5-1.5-1.1-3-1.7-4.3-1.9-.5-.9-1.1-1.7-1.9-2.3,0,0-6-5-9.4-6.4-1.1-1.2-2.6-2.2-4.8-3.1,0,0,0,0-.1-.2-.9-1.2-1.7-1.8-2.9-2.6-.5-.8-1.3-1.9-2.7-2.8-.5-.3-1.1-.6-1.6-.7-1.1-1.2-2.3-2.2-3.6-2.6-.5-.2-1-.3-1.5-.4-.5-.6-1-1-1.5-1.4-.2-.2-.5-.4-.8-.6-1.2-3.7-3.7-5.3-5.8-5.9-.9-.3-1.8-.4-2.5-.4-1.1-.7-2.6-1.7-3.2-2,0,0-.2-.2-.2-.3-.5-.6-1.6-1.6-3.1-2.5-.2-.4-.4-.8-.6-1.2-1.2-2-2.9-2.8-4.6-3.6-.2,0-.5-.2-.8-.4-.3-.4-.8-1.2-1.1-1.7-1.4-2.2-3.1-4.9-5.8-6.7-.5-.4-1.1-.6-1.6-.8-.5-.4-1-.7-1.5-.9-.1,0-.3-.1-.4-.2-.6-.8-1.4-1.5-2.4-2.2-1.1-.7-2.3-1.1-3.3-1.4-1.5-1.9-6.1-6.3-7-7.1-.6-.5-1.2-.8-1.8-1.1-.6-.8-1.3-1.5-2.2-2-.7-.4-1.5-.7-2.3-.9,0-.2-.1-.3-.2-.5l-.3-.8c-.9-2.1-1.9-4.5-3.1-6.9.2-1.1.2-2.4,0-3.6-.2-1.1-.7-2.8-2-4.2-.3-.8-.5-1.5-.8-2.2-1.6-3.5-5-5.3-7-6.3,0,0-.2,0-.2-.1-.6-.5-1.2-1.2-1.9-1.9-2.6-2.9-6.6-7.2-13.2-8-1.8-.2-3.3,0-4.5.3-.2,0-.4,0-.5-.1-2.1-.5-7.1-.4-8.8,0-2.5.5-3.9,2-5.3,3.7-.7.3-1.4.5-2.1.8h-.3c-2,.1-3.8.8-5.2,2.1-.9.8-1.5,1.8-1.9,2.7-.2,0-.4.2-.5.3-2,.4-4.1,1.3-5.5,3.8-1.1,1.2-1.6,2.4-1.9,3.2-.1.4-.8,2.8-.7,5.4-.2.2-.4.4-.7.6-2.2,2.1-2.6,5.2-2.5,7.9-.2.6-.4,1.1-.5,1.7-1.8,3.1-3.9,6.2-6.1,9.3-1.4,2-2.9,4.1-4.3,6.3-1,1.6-2.3,3.1-3.7,4.6-1.5,1.7-3,3.4-4.5,5.6-.7,1-1,2-1.5,3.5,0,0-.1.1-.2.2-1.4,1.1-2.7,2.2-3.7,3.7-.7,1.2-1.2,2.5-1.7,3.7,0,.2-.2.5-.3.7-1,.4-2,.9-2.8,1.7-1.9,1.8-2.3,4-2.3,5.3-.7,1.2-1.9,2.9-2.5,3.7-.8.6-1.9,1.4-2.7,2.9-.5.4-.9.9-1.3,1.4-1.7,2.3-1.8,4.8-1.7,6.4-.7,1.4-1.8,3.6-2.4,4.8,0,0-.1,0-.2.1-1.3,1-2.5,2-3.5,3.6-.8,1.4-1.1,2.8-1.4,4-1.5,1.2-2.8,2.2-3.6,4-.2.5-.4,1-.5,1.4-1.5.2-3.3.8-5,1.9-.4.3-.8.6-1.1.9-.9.3-1.8.8-2.6,1.4-.7.6-1.2,1.2-1.6,1.9-1.2.9-2.1,2-3.3,3.3-.4.5-1.2,1.4-1.7,1.9-1.4.6-2.5,1.7-3.2,3-1,1.6-1.2,3.6-.8,5.4-.9,1.9-1.4,4.4-1.1,7.8,0,.3,0,.7,0,1-.2.6-.7,1.4-.9,1.8-.6,1.1-1,1.9-1.2,3-.2.9-.2,1.6-.2,2.3-.4.5-.8,1-1.2,1.6-.9,1.5-1.5,3.4-2.1,5.1,0,.3-.2.6-.3.9-.6.3-1.1.8-1.6,1.2-1.4,1.4-2.6,3.7-2.1,7-.1.4-.2.7-.3,1.1-.5.8-1.2,1.9-1.8,3.4-.4,1.2-1.5,2.9-2.6,4.6-.9,1.3-1.7,2.7-2.5,4.2-.2.3-.2.4-.2.4,0,0-.1.1-.2.2-.5.5-1.2,1.2-2,2.5-.7,1.1-1.3,2.4-1.9,3.6-.4.9-.9,2-1.3,2.5-.3.3-.8.7-1.2,1.1-1.3,1.1-2.6,2.2-3.6,3.7-.3.4-.5.8-.7,1.2-.9,1.1-1.5,2.5-1.6,3.9-3,3.1-3.2,6.5-2.9,8.7-.5.4-1.1.9-1.6,1.5-1.5,1.8-2.2,3.5-2.5,5-1.4.9-3,2.3-3.7,4.7-.2.8-.4,1.5-.5,2.2,0,0,0,0,0,0-.9.7-1.9,1.6-2.6,2.9-.6,1.1-1,2.2-1.2,3-.8.6-1.9,1.4-2.8,2.7-.9,1.4-1.9,3.3-2.9,5.3-.6,1.1-1.2,2.4-1.6,3-.6,1.1-1.4,2.2-2.2,3.4-.8,1.2-1.7,2.5-2.5,3.8-.2.3-.3.6-.5.9-.4.4-.9,1-1.3,1.6-1,1.5-1.6,3.2-2.2,4.8-.1.3-.2.7-.4,1-.4.3-.8.7-1.2,1-1.9,1.5-3.4,2.9-4.5,4.7-.6,1-.9,1.9-1.1,2.6-.9.3-2.1.8-3.2,2-1.4,1.5-1.8,2.9-2.2,4.6-.1.4-.2.8-.3,1.1-1.6,3.2-1.8,3.5-4.5,6.4l-.5.5c-1.2,1.3-1.9,2.8-2.4,4-1.2.8-2.5,1.9-3.5,3.4-.5.7-1.1,1.7-1.7,2.6-.7,1.1-1.5,2.5-2.1,3.3-.2.2-.4.3-.6.5-1.4,1.1-2.6,2.1-3.4,4.1-.4,1-.6,2-.6,2.8-2.8,2-4.1,4.5-4.8,5.9h0c0,.1,0,.2,0,.2-1.2,1.2-2.8,2.6-3.6,4.6-3.5,2.9-5.5,5.9-7.4,8.8-.3.5-.6.9-.9,1.4-.2.3-.6.8-1.1,1.5-3.5,4.9-4.4,6.3-4.9,8.2,0,0,0,.1,0,.2-2.3,1.4-6,4.1-6.5,8.5-.8.7-1.6,1.5-2.1,2.3-.5.6-.8,1.3-1.1,1.9-.8.8-1.6,1.9-2.1,3.3-1.5.4-2.9,1.2-3.9,2.5-.8.9-1.3,2-1.5,3.1-.2.3-.4.6-.5,1-.2.4-.3.8-.4,1.2-.4.5-.9,1-1.2,1.6-.3.5-.5,1.1-.7,1.7-.8,1.1-1.4,2.1-2.1,3.1-1.1,1.8-2.1,3.2-3.2,4.5-1.3.4-2.8,1.1-4,2.4-1.5,1.6-2.1,3.6-2.1,6-.1.2-.2.4-.3.6-1.4,3-3.8,5.7-6.5,8.6-2,2.2-4.1,4.4-5.9,7.1-1.1,1.5-1.9,3.2-2.7,4.8-.4.7-.8,1.5-1.1,2.1-1,.5-2.4,1.5-3.4,3.2-.3.4-.8,1.1-1.2,1.6-.6.8-1.2,1.6-1.7,2.5-.7,1.3-1.1,2.5-1.5,3.5-.4,1.1-.7,1.7-1,2.2-1.2,1.5-2.5,3-3.8,4.5-2.8,3.4-5.7,6.8-8.3,10.5-.3.2-.8.6-1.1.9-1.2,1-2.6,2.2-3.7,3.6-1.3,1.7-2.4,3.8-3.3,5.6-.2.5-.6,1.2-.9,1.6-.1,0-.2.2-.3.2-1,.8-1.9,1.5-2.7,2.6-1.8,1.2-4.1,3.4-4.5,4-.3.4-.5.7-.7,1.1-1.3.4-2.5,1.2-3.4,2.2-.8,1-1.4,2.1-1.7,3.3,0,.1-.1.2-.2.4-.5.9-.8,1.8-1.1,2.5-.1.3-.3.8-.4,1.1-1.1.8-2.3,1.8-3.2,3.5-.3.6-.6,1.3-.7,1.8-.3.2-.7.5-1,.9-.6.6-1.2,1.2-1.6,1.7-.5.5-1.1,1.3-1.4,1.5-1.8,1.2-3,3-3.3,5.1-.1.2-.2.5-.3.7-.4.4-.8.9-1.2,1.4-.5.7-.8,1.4-1,2-.7.6-1.6,1.3-2.2,1.9-3.5,2.9-5,4.1-5.8,6.4-1,2.8-1.8,4.5-3.4,7.3-.5.9-1.6,2.1-2.7,3.3-1.3,1.5-2.9,3.2-4.1,5.2-.5.8-1,1.5-1.5,2.3-1,1.4-1.9,2.8-2.7,4.2-.5,1-1,2-1.5,3-.4.9-.9,1.8-1.3,2.6-1,.6-2.2,1.4-3.1,2.9-.8,1.2-1.5,2.6-2.3,3.8-.3.5-.5.9-.8,1.4-.4.2-.8.4-1.2.6-1.7,1.1-2.8,2.5-3.4,3.7h0c-1.1.2-2.2.5-3.2,1-1.5.7-2.7,1.8-3.7,3-1.4,0-3.4.6-5.2,2.4-1.1.6-1.9,1.2-2.6,1.9-.9.3-1.8.7-2.8,1.5,0,0-6.3,5.3-7.4,8.2-.7,1.8-.6,3.3-.4,4.7-1.4.7-2.6,1.9-3.4,3.4-1.1,2.2-1,4.7.1,6.9-1,1.2-1.4,2.4-1.6,3.2-.4,1.7-.5,3.3-.5,4.5,0,1.1,0,1.9-.3,2.5,0,.2-.2.3-.3.4-.9,1.5-2.7,4.5-1.9,8.6-.3,1.2-.3,2.8.3,4.6.6,1.8,1.9,3.2,3.5,4.1.9,1.5,2.1,2.8,3.4,4,.4,1.6,1.1,2.6,2.1,3.9.1.2.2.3.4.5l1.9,5c.2.5.4,1,.7,1.4.2.6.5,1.3,1.1,2,.3,1.5.6,3.2,1.2,4.6.3.7.7,1.3,1,1.8,0,1.1-.1,2.3,0,3.7.1,1,.4,1.9.9,2.8,0,1.1,0,2.5.6,4,.2.7.6,1.4,1.2,2.2.2.7.6,1.3.9,1.9.2.4.5.7.8,1-.2,1.9-.3,4.1.1,6.3.3,1.5,1.1,3,2.3,4l.4.3c0,1.1,0,2.3.3,3.6.2.9.5,1.4,1.5,3.5.1.3.2.5.4.8,0,.4,0,.9,0,1.3-.1,1.2-.2,2.6,0,4,.2,1.9,1,3.3,2,4.8,0,.4,0,.8,0,1.1-.1,1.8-.3,3.7,0,5.7-.3,1.6-.3,3.5-.2,4.4.4,2.5,1.8,4.3,3.6,6-.2,1.8,0,3.7,0,5.3,0,.9.2,2.5.1,2.9-.7,2.6,0,5.3,1.9,7.2,0,0,0,0,0,.1-.3,1.4-.5,3.1-.3,4.9.2,1.4.7,2.5,1.2,3.4-.1.5-.2,1-.3,1.5-1.9,2.6-2.5,5.8-1.6,8.9.4,1.5,1.3,2.8,2.4,3.7,0,.2-.1.3-.2.5-1.9,3.9-2.3,5.8-2.4,7-.2,1.5,0,2.9,0,4.3,0,0,0,.2,0,.3-.3.3-.5.6-.8,1-1.1,1.5-1.7,3-2,4.2-2.7,1.3-6,3.1-7.1,6.9-.2.7-.3,1.4-.3,2.1v7c0,2.1.8,3.9,2.2,5.3.5,1.4,1.3,2.8,2.8,4.2.1.3.2.6.3.9.9,2.5,2.2,6.3,5.9,8.7.8.5,1.6.9,2.4,1.1.6.5,1.2,1.1,1.8,1.6.4,2.1,1.5,5.7,5.4,7.3.8.3,1.5.5,2.3.6,1.2,1.6,2,2.3,3.4,2.9.9.4,1.8.7,2.5.8,1,.6,2,.9,3.2,1.1.6,0,2.8.2,5.2.2s4.5,0,5.7-.4c.7-.2,2.1-.7,3.4-1.8.6-.2,1.1-.5,1.5-.8,2.8,0,6.7,0,7.7-.2,1.5-.3,2.8-1,3.7-1.8,2.4-.3,4.5-1.8,5.6-3.9.7-.6,1.6-1.6,2.4-3,2.8-1.4,5.4-4.5,6-6.1.5-1.4.7-2.8.7-4.1.8-.8,1.4-1.6,1.9-2.2,0,0,.1-.2.2-.2,3.5-2,8.1-3.9,11.1-4.9.6-.2,1.2-.5,1.9-.7,1.7.5,3.6.5,5.6,0,2.5-.6,3.7-2,5.3-3.8.2-.3.5-.6.7-.8.2-.2.3-.2.3-.2h0c.2,0,.7-.2,1.1-.3h.7c0-.1,0-.2.1-.2,1.9.5,6.4,1,9.8-3.7.7,0,1.5-.3,2.3-.6,1.5-.6,2.2-1,6.8-6,.1-.1.2-.2.3-.3,1.2-.2,2.1-.4,2.7-.6.4-.1.8-.3,1.3-.5,1.1,0,2.4-.2,3.7-.7,1.9-.7,2.8-1.9,4-3.2.1-.1.2-.3.3-.4.7-.3,1.6-.7,2.5-1.5.7-.6,1.3-1.2,1.9-1.9,4-.2,6.4-3.3,7.9-5.2,0,0,.1,0,.2,0,.7-.2,1.5-.4,2.2-.6,1.4-.5,2.2-1.2,3.1-2,.4-.3,1.3-1.1,1.6-1.3,3.1-1.8,5.4-3.5,7.9-5.2.5-.4,1.1-.8,1.6-1.2l.3-.2c2-1.4,2.9-2,4.6-2.8.5.2,1,.3,1.6.4.9.1,4,.3,6.1-.2.5-.1,1.4-.4,2.3-1,1.3-.3,2.5-1,3.4-1.9.2-.2.4-.4.6-.6,2.2.2,6.1,0,9.3-2.5.5-.4,1.1-1,1.6-1.6.2,0,.3-.2.5-.2,1,0,2.2,0,3.4-.3,1.8-.5,6.2-3,6.3-3,0,0,4.6-3.5,5.7-6.2,1.2-2.9,1.1-5.8-.3-8.1,0-.8,0-1.6.1-2.4.2-2.9.4-5.9-.2-8.6-.1-.6-.4-1.2-1-2.9-.2-.6-.6-1.5-.8-2.1,0-.6,0-1.6.1-2.2.2-2.3.3-4.8-.2-7.2-.1-.6-.5-1.6-1.2-2.7-.2-.6-.5-1.3-1-1.9-2.2-3.1-5.7-4.3-8.3-5.2-.6-1.1-1.5-2.6-3-3.9,0-.2-.2-.4-.3-.6-.7-1.1-1.5-1.9-2.9-3.1-.1-1-.4-2.2-.9-3.5-.5-1.1-1-2-1.5-2.7.1-.3.2-.7.3-1,1.1-.9,2.4-2.2,3.1-4.3.2-.6.3-1.1.4-1.6,1.1-.4,2.2-1.1,3-2.1,1.2-1.4,1.9-3.2,1.9-5,.2-.2.4-.5.5-.7.3-.5.5-.9.7-1.4,1.6-.9,3.6-2,4.9-4.5.7-1.2.9-2.5,1.1-3.6,0,0,0-.2,0-.2,1.3-.3,2.5-1,3.4-2,1.4-1.4,1.8-2.9,2.1-3.8,0,0,0-.2,0-.3.4-.3.9-.7,1.2-.9,1.8-1.3,2.9-2.1,3.9-3.7.5-.9.8-1.7,1.1-2.8,1-.8,2-2.1,2.6-3.9.2-.2.4-.5.6-.7.8-1.1,1.2-2.2,1.4-3.1.4-.5.8-1.1,1.2-1.9,1.4-2.4,1.9-2.9,3.1-4.2.7-.7,1.6-1.7,2.8-3,1.6-1.9,3-4.2,4.2-6.2,1.4-.6,3.2-1.8,4.5-4,.3-.5.5-1.1.7-1.6.1,0,.2-.1.3-.2,1.5-1,3.8-3,4.5-6.3,1.9-1.6,3-3.4,3.8-4.7.3-.5.6-1,.9-1.3.4-.4.6-.6.9-1,1.1-1.1,2.1-2.1,3.5-4.5,1.1-2,2.4-3.5,3.8-5.3,1.5-1.8,3.1-3.9,4.7-6.5.6-1,1.1-1.6,1.9-2.6,1-1.2,2.2-2.7,3.5-4.8.5-.9,1.4-1.7,2.4-2.6,1.2-1.1,2.6-2.5,3.9-4.3.5-.8,1.2-2,2.3-4.2.5-.9,1.1-2.2,1.7-3.2.4-.2.9-.5,1.3-.8,0,0,4.4-3.4,5.5-6.3.3-.8.5-1.6.5-2.3.6-.4,1.2-.9,1.7-1.5,2.9-3.1,6.2-6.9,8.7-10.9.2-.4.6-1,1-1.7.2-.3.4-.8.6-1.2,1.1-.6,2.7-1.8,3.9-3.6.3-.5.6-1,.8-1.5.3-.2.7-.5,1-.8,2.1-2,3.3-3.5,3.9-6.1.2-.3.4-.6.5-.9.6-.4,1.2-.8,1.9-1.4.8-.7,1.4-1.4,1.8-2.1,1.1-.6,2.3-1.6,3.2-3.2.8-1.4,1.1-2.9,1.4-4.1,0-.3.1-.6.2-.9.7-1.2,2.5-3.2,4.1-5,3.1-3.4,6.5-7.1,8.4-11.5,3.3-2.7,5.1-5.5,7-8.6l.3-.5c.2-.3.3-.5.4-.6.3-.3.7-.6,1.2-1.2,4.2-4.4,7.8-9.5,11.3-14.5,1.2-1.7,2.4-3.3,3.5-4.9,1-1.4,2.1-2.7,3.1-4,1.1-1.4,2.2-2.8,3.3-4.2,1.4-1.9,2.5-3.9,3.4-5.6.4-.7.7-1.3,1.1-1.9h0c1-.9,2.3-1.9,3.3-3.4,1-1.6,1.5-3.1,1.9-4.2,0,0,0-.1,0-.1.4-.3.8-.6,1.2-.9,1.6-1.2,3.3-2.4,4.5-4.1,0-.1.2-.2.2-.4,1.2-.5,2.6-1.4,3.7-3,.2-.2.3-.5.5-.8.4-.8.7-1.6.8-2.3.8-.9,1.6-2.2,2-3.9,0-.5.1-.9.2-1.3,2-1.8,3-2.7,3.7-3.8.8-1.3,1.5-2.7,2.1-4.1.3-.6.7-1.5.9-2,.5-.5,1.8-1.6,2.6-2.3,3-2.6,4.5-3.9,5.4-5.7.4-.9.7-1.7.9-2.4,0,0,.1-.1.2-.2,1.3-.9,2.3-2.1,3.1-3.3.9-.5,1.6-1.1,2.2-1.8,1-1.2,1.4-2.3,1.9-3.8.8-.4,4.7-3.5,5.8-5.1.4-.6.7-1.2.9-1.8,1.5-1,2.5-2.4,8.5-11,.9-1.3,1.6-2.3,1.9-2.8.2-.2.5-.5.8-.7.9-.8,1.8-1.7,2.6-2.8,1.3-1.9,2.3-3.8,3.2-5.4,1.2-2.3,2.2-4.2,3.8-5.6,0,0,.1,0,.2-.1,1.9-.9,4.7-2.3,5.8-5.7.4-1.2.6-2.4.7-3.4,0-.1,0-.2,0-.4,1.1-.9,2-1.7,2.8-2.7,1.2-1.6,2.5-3.4,3.7-5.1.7-1,1.4-2,2.1-2.9,2.4-3.3,4.5-6.5,6.5-9.5,1.4-2.2,2.8-4.2,4.2-6.2.2-.2.4-.3.6-.5,1.3-1,2.5-2,3.3-4,.3-.7.4-1.4.5-2.1.2-.2.5-.4.7-.7.6-.7,2.5-3.2,2.7-3.4.1-.2.2-.4.4-.6.8-.4,1.5-.8,2.2-1.5,2.1-2.1,2.4-4.5,2.4-6.6.7-.4,1.2-.8,1.6-1.2,1-1,1.6-2.1,1.9-3.4.5-.8.7-1.5.9-2.1h0c.6-.5,1.3-1.2,2.2-2.2.9-1,1.3-2.1,1.6-3.1,1-1,2.1-1.9,3.3-3,2.5-2.1,5.3-4.5,7.8-8.1l.6-.9c1.1-1.6,2-2.9,2.7-3.9,1.6-.4,3.6-1.3,5.2-3.2.3-.3.5-.7.7-1,1.2-2,1.2-4,1.2-5.6,0,0,0,0,0,0,.7-.8,1.4-1.5,2-2.8.5-1.1.7-2.1,1-3,0-.1,0-.3.1-.4.8-.7,1.5-1.4,2.1-2.1.5-.3.9-.6,1.4-1.1.8-.8,1.7-1.9,2.1-3.5.8-.8,1.4-1.5,1.9-2.4.6-1.1,1.1-2.2,1.5-3.2,0-.2.2-.5.3-.7.2-.2.5-.3.7-.5,2.9-1.9,4.6-3.1,5.5-5.7.4-1.2.5-2.2.5-2.9,1.5-3.3,4-5.9,6.8-8.9,1.8-1.9,3.6-3.9,5.4-6.2.4-.5.7-1,.9-1.6.3-.1.5-.3.8-.5,2.7-1.7,4.3-4.1,4.7-7.3,2.2-2.2,3.2-4.9,3-8.3h0ZM577,159.9c-1.4,1.1-2.1,2.4-2.5,3.5,0,0,0,0,0,0-2.2,1.7-5.9,7.6-6.6,9.8-2.4,1.8-4.2,3.3-5,5.6-.1.3-.2.5-.2.8-.5.4-1,.8-1.5,1.3-.9.9-1.4,1.9-1.8,2.7-.5.2-1,.5-1.5.9-.9.7-1.7,1.5-2.7,2.6-.1.1-.2.3-.4.4-.4,0-.7,0-1.1,0-1.1-.6-2.3-.9-3.5-.9h-.9c-1.7,0-3.4.6-4.6,1.6-.1,0-.3-.1-.4-.2-.7-.9-1.5-1.8-2.4-2.5-.4-.3-.8-.6-1.2-.8-.1-2.3-1.1-4.6-3-6.7-.5-1.3-1.5-3.7-1.9-5v-1.1c0-2.3,0-5.1-2.6-7.4-1-.8-2-1.3-2.9-1.6-.5-.6-.9-1-1.5-1.4-.9-.7-1.7-1.1-2.4-1.3-.8-1.7-1.7-2.9-2.8-3.8-.6-1-1.3-1.8-2.3-2.5-2-1.4-4.6-1.7-6.9-.8-.2,0-.6.2-1,.3-.7.2-1.5.4-2.4.7-.1,0-.3.1-.4.2-.6-.2-1.1-.4-1.5-.5-4.3-.9-9.5-3.6-13.9-6,0,0-.1,0-.2-.1-1.8-2.9-3.7-5.3-6.6-6.4-.9-.4-1.8-.5-2.6-.6-1.2-.9-2.1-1.4-3.5-1.8-.4,0-1-.2-1.6-.3-.1,0-.3,0-.5,0-.9-1.4-1.8-2.7-3.5-3.6-1.1-.6-2.2-.9-3.1-.9-.2-.2-.5-.4-.7-.6-.6-.5-1.1-.9-1.7-1.3.2-.4.4-.8.6-1.2.9-2,.9-3.9.8-5.2,0,0,0,0,0,0,1.1-1.7,1.6-2.6,2-3.3.1-.3.3-.6.4-.9,1.7-1.1,2.6-2.5,3.1-3.3.8-1.3,1.5-2.9,2.2-4.3.5-1,1-2,1.4-2.8.5-.9.9-1.8,1.3-2.8.3-.8.9-2.2,1.3-2.9,3.6-3.2,5-6,6.2-8.3.5-1.1,1-1.9,1.6-2.9.1-.2.6-.7.9-1,.8-.8,1.6-1.8,2.3-2.8.3-.5.8-1.2,1.4-2.1.5-.7,1.3-2.1,2-3.2,1-.3,2.3-.8,3.4-2,1.4-1.4,2-3.1,2.1-4.4.2-.2.4-.3.6-.5.5,0,.9,0,1.4,0,.2.2.5.4.8.6.9.7,1.9,1.4,2.8,2.1,2.6,2,5.3,4.1,8.2,5.6.5.3,1.3.6,2.2,1,1,.5,3.3,1.5,4.8,2.3.2.4.4.9.6,1.3,1.2,2,3.4,4.2,7.2,4.6h0c.3,1.1.9,2.2,1.8,3,1.4,1.5,3.4,2.3,5.4,2.3h0c.8,1,1.8,2.2,3.3,3.2,1.2.8,2.3,1.2,3.2,1.4l.3.2c3.7,2.3,7.1,4.5,11,6.7.5.6,1.1,1.4,2.1,2,1.7,2.4,5.1,5.3,5.1,5.4,1.8,1.4,3.6,2.3,5.2,3.1,1,.5,1.8.9,2.5,1.4.3.8.7,1.6,1.3,2.4,2.3,2.9,5.8,4.7,8.5,6.2.4.2.8.4,1.2.6.7,2,2.5,5.1,7.6,6-.7,1-1,1.6-1.3,2.2-.5.9-.8,1.8-.9,2.6-.4.4-.9.8-1.3,1.1-2.2,1.9-3.7,3.2-4.7,4.6-1.6,2.2-3.6,5.4-6.1,9.8h0ZM405.8,394.7c-1.4,1.3-1.9,2.7-2.2,3.9-.7.5-1.4,1.1-2,1.9-1,1.4-1.5,2.8-1.7,3.8-.2.4-.5.9-.8,1.4,0,0,0,0,0,0-1.7,1-4.2,2.5-5.6,5.4-.3.7-.6,1.5-.8,2.4-.5.7-.9,1.5-1.3,2.5-.3.3-.7.6-1,.9-1.4,1.1-2.8,2.3-3.9,3.7-.7.9-1.2,1.9-2.2,3.8-.2.4-.5.9-.7,1.3-.6.6-2.1,2-3.1,2.8-3.3,2.9-5.1,4.5-6.2,6.5-.5.9-.7,1.7-.8,2.5-.1.2-.3.4-.5.6-.6.9-1.3,1.8-1.9,2.8-2.1,1.6-3.1,3.4-3.5,5.2-2.8,2.1-6.9,5.5-8,7.5-.8,1.3-1.2,2.6-1.7,3.7-.4,1-.8,1.9-1.1,2.5-.4.5-1.2,1.4-1.9,2.1-1.1,1.2-2.4,2.5-3.5,4.1-.6.9-1,1.7-1.4,2.5-.1.3-.3.7-.5,1-1.6,1.1-2.9,2.4-4.1,5-.3.5-.6,1.2-.9,1.9-.4.8-1,2.1-1.3,2.8-.3.2-.7.5-.9.8-1.6,1.2-2.8,2.2-3.7,3.7-.6,1.1-.9,2-1,2.9-1.1.7-2.1,1.7-2.8,3-1.2.8-2.1,1.8-2.8,2.7-1,1.4-1.8,2.8-2.6,4.1-.5.8-.9,1.6-1.2,2.1-1.3,1.9-4,4.9-5.9,6.7-3.1,3-4.9,5.7-6.6,8.2-.8,1.2-1.6,2.3-2.4,3.4-.8.4-1.8,1.1-2.8,2.1-.8.9-1.4,2-1.9,3.1-3.2,2-4.3,5.5-4.8,7.3h0c-2.1,1.1-4.2,2.9-5,6.2,0,0,0,0-.1.1-1.6.2-3.2.9-4.4,2-1.8,1.7-2.6,4.1-2.2,6.5,0,.2-.1.3-.2.5,0,.1,0,.3-.1.5-.7.4-1.4.9-2,1.7-1.2,1.3-1.9,2.8-2.3,4.2-.1,0-.2.2-.3.3-.9.9-1.4,1.9-1.9,2.8-1.1.3-2.2.9-3.3,2-.9.9-1.5,2-1.8,3.2-1.4,1.2-2.3,2-3,3.1-.8,1.2-1.3,2.3-1.8,3.2-.1.3-.3.5-.4.7-.7.2-1.4.6-2.1,1.2-.6.5-1.2,1-1.6,1.6-.6.2-1.2.5-1.8.9-2.3,1.5-3,3.6-3.4,5.1-.2.2-.4.3-.6.4-2.1,1.4-4.1,2.8-5.1,5.4-.3.8-.5,1.5-.6,2-.1.4-.1.5-.2.8,0,.2-.1.3-.2.5-.2,0-.5.2-.8.3-3.3,1.4-5.6,4.2-6.9,7.3-1.1.1-2.6.5-4,1.7-.9-.7-1.8-1.2-3.1-1.5-.6-.1-1.1-.2-1.5-.3-.8-.2-1-.2-1.6-.4-2.7-1.1-4.3-1.2-5.9-1.2-.3,0-.4,0-.6,0-.3,0-.7-.2-1.1-.4,0,0,0,0,0-.1-1.1-1.5-2.4-3.3-4.8-4.3-.3-.1-.7-.2-1-.3-2-1.7-6.3-4.8-8.8-5.7-1.1-1.8-2.6-3.7-5-4.8-1.1-.5-2-.7-2.8-.8-1.3-1.4-2.6-2.2-4.3-2.8-.2-.2-.4-.5-.6-.7-1.4-1.8-2.4-2.9-4.4-3.6,0,0-.2,0-.3,0-.4-3.9-3.8-6.9-7.7-6.7-.3,0-.7-.2-1.3-.5-.3-.2-1.1-1-1.7-1.5-.8-.8-1.7-1.8-2.9-2.7.4-.8.6-1.6.7-2.2.5-2.9-.2-5.1-1.1-6.6,1.2-1,2.4-2.5,2.9-4.6.5-.4,1-.8,1.4-1.4,1-1.3,1.6-2.9,1.6-4.5.4-.6,1-1.3,1.4-2.2,2.2-4.5,5.3-8.5,8.5-12.9,3.3-4.4,6.6-9,9.3-14.2.6-1.1,1-2.3,1.4-3.5,0-.3.2-.6.3-.9.4-.3.8-.7,1.2-1,2.3-1.9,3.8-3.2,4.7-4.7,1.2-2,2.6-4.4,3.9-6.8.8-1.6,1.6-3.1,2.3-4.2.7-1.2,2.7-3.4,4.4-5.1,1.9-2,3.9-4.1,5.4-6.3.4-.6,1.4-1.6,2.2-2.4,1.2-1.2,2.4-2.4,3.3-3.7.8-1.1,1.3-1.9,1.6-2.5,0,0,0-.2,0-.2,0,0,.1-.2.7-.7,1.9-1.9,3.5-4.2,5.1-6.4.9-1.2,1.7-2.4,2.4-3.2,1.1-1.4,2.3-2.7,3.5-4,2.4-2.7,4.9-5.4,7.2-8.8.6-.8,1.2-1.9,1.8-2.8.4-.6.9-1.5,1.2-2,.3-.2.7-.6,1.1-.9,1.3-1.1,2.6-2.1,3.7-3.6.6-.9,1.1-1.8,1.5-2.9,0-.1.1-.3.2-.5,1.3-.7,2.9-1.9,4.1-4,.7-1.2,1-2.4,1.2-3.4,1-.9,2.1-2.1,3-3.7,1-1.8,1.6-3.4,2-4.7.3-.9.5-1.5.8-2,.2-.2.4-.4.7-.5,1-.8,1.8-1.5,2.5-2.6,1.3-.9,2.3-1.9,2.9-2.9.4-.6.8-1.3,1-1.9.9-1.1,1.2-2.3,1.4-2.9.3-.3.5-.6.8-.9.4-.6.8-1.3,1-2,.4-.5.8-1,1.2-1.7,0,0,0,0,0,0,1.3-.9,2.6-2.3,3.4-4.4.1-.3.2-.6.3-1,.3-.5.5-1.1.7-1.6.2-.1.3-.3.4-.4,1-.9,2-1.8,2.9-3,.7-1,1.1-2,1.5-3.2,1-.6,2.3-1.6,3.3-3.1,1.2-1.7,2-3.7,2.8-5.5.4-.9.9-2,1.2-2.5.4-.7,2.1-3.1,3.4-4.8,1.2-.4,2.2-1,3.1-1.9,1-1,1.6-2.1,2-3.5,0-.1.2-.3.3-.4.4-.7,1.1-1.9,2.1-3.9.4-.8,1-1.8,1.5-2.8.2-.1.5-.2.7-.4,3.2-1.9,4.5-4.9,5.2-6.8.8-.4,2.1-1.2,3.1-2.7,1.4-2.2,1.4-4.3,1.3-5.9.3-.5.6-1.1.8-1.5.2-.2.6-.4.9-.6,2.2-1.4,5.9-3.7,8-9,.3-.7.7-1.6,1.2-2.5.2-.4.4-.8.6-1.2,2.3-1,4.9-2.7,6.1-6,.4-1,.5-1.9.5-2.7.8-1.1,1.8-2.7,2.3-3.4.2-.2.6-.5.9-.7,1.4-1,3.3-2.4,4.6-4.5,1-1.6,1.8-3.7,2.5-5.7.1-.4.3-.8.5-1.3,1.3-.8,2.8-1.7,3.8-3.5,1.6-2.7,3.6-5.3,5.8-8l1.3-1.6c.7-.9,1.3-1.7,1.9-2.5.9.2,1.9.3,3,.1.2,0,5-.6,7.6-3.9.4,0,.8,0,1.2,0,2.3,0,4.4-1.1,5.8-2.9.6-.8,1-1.7,1.3-2.6,1.1-1.2,2.6-3.1,3.1-5.9.2-1.2.1-2.4-.1-3.7,1.1-1.5,2.5-3.5,3.2-6.1.2-.8.3-1.5.4-2.2.5-.9.8-1.8,1.1-2.9,0-.2.1-.4.2-.5,0,0,0,0,0,0,1.3,1.2,3.1,2,5,2h.2c.2,0,.5,0,.8,0,1.3.7,2.7,1,4,1s1.9-.1,2.8-.4c4.4-1.4,7-6,6.7-10.9.9-1.4,1.3-3.1,1.2-4.7.8-1,1.4-2.2,1.7-3.5.8-3.2-.2-6.5-2.6-8.6-.2-.2-.5-.4-.8-.6.2-.2.4-.5.5-.7,1-1.7,2-4.5,1.1-8.4h.3c4.1,0,7.5-3.4,7.5-7.5v-2.4c0-.7-.1-1.5-.3-2.1,0-.2.1-.4.2-.6.4-2.3,0-4.2-.4-5.6.1-.2.3-.5.5-.8,2.6-4.3,4.9-8.6,7.2-12.7,2-3.6,3.8-7,5.8-10.4.4-.7.8-1.3,1.1-2,.2-.4.4-.7.6-1,.6,0,1.1,0,1.5,0,.9.4,1.6.6,2.6.7,1,.6,2.4,1.6,3.3,2.1,1.3.8,2.4,1.6,2.8,1.8.4.3.5.4.9.8.5.5,1.3,1.3,2.5,2.1,2.2,1.4,4.4,2.6,6.5,3.8,2.2,1.2,4.2,2.3,6.1,3.6.3.4.9,1.1,1.1,1.4.5.6,1,1.4,1.8,2.1,0,.7,0,1.4.2,2.2.5,2.6,2.1,4,4.2,5.8.2.2.6.5.9.7.1.2.2.5.4.7.7,1.3,1.4,2.8,2.4,4.1.4.5.8,1,1.2,1.4,0,1.9.7,3.9,2.1,5.3,1.5,1.5,3.5,2.3,5.5,2.3.2.1.5.3.7.5.8.6,1.9,1.2,3.1,1.9.8.4,1.6.7,2.3.9.3.6.8,1.2,1.3,1.8,1.3,1.3,3,2.1,4.8,2.2,0,0,0,.1.1.2,1.2,1.9,2.8,2.9,5.8,4.7,1.4.8,4.2,2.5,5.6,3.6.7,2,2.3,5.2,6.2,6.2.4.1.9.2,1.3.2-.1,1.2-.2,2.6-.2,3.9-.4.9-.7,1.7-.9,2.3-.5.5-1.4,1.2-1.9,1.6-1.7,1.3-3.4,2.7-4.6,4.6-1.3,1.9-2.3,4.2-3.2,6.4-.4,1-.9,2.1-1.2,2.7-.5.6-1.8,1.9-2.5,2.6-1.5,1.5-2.7,2.7-3.6,3.9-.6.8-1.3,2-2.7,4.2-.5.8-1.3,2.1-1.9,3.1-1.1.4-2.1,1-2.9,1.9-1.3,1.3-1.7,2.5-2.4,4.5-.2.5-.5,1.5-.8,2.1-.6.6-1.6,1.4-2.2,1.9-2.7,2.4-3.7,3.3-4.5,5.3,0,.2-.2.5-.2.7-.8.5-1.6,1.1-2.4,1.9-2,2.3-3.2,5.5-4.1,8,0,0,0,0,0,0-.1.1-.3.2-.4.3-1.3.9-2.1,1.5-2.8,2.3-1.2,1.3-2.5,3.8-3.3,5.4-1.3.9-2.2,2-2.7,2.8-.6,1-1,1.9-1.1,2.7-.4.4-.9.9-1.5,1.5-.9.9-2,1.9-3.1,3.2-.9,1.1-4.6,6.2-5.5,7.6-.7,1.1-1.1,2-1.5,2.8-.1.3-.3.7-.4.9-.1,0-.5.3-1.2.7-1.7.9-3,2.3-3.7,4.1-1.5,4-5.1,8.7-9.9,12.8-1.3,1.1-2.2,2.7-2.5,4.4-.2,1-.5,1.4-1.9,3.1-.5.6-1,1.2-1.5,1.8-2.5,3.2-4.7,6.5-6.8,9.7-2.2,3.4-4.4,6.6-6.8,9.6-.3.3-1,1-1.5,1.4-1,1-1.7,1.6-2.2,2.2-.7.4-1.4,1-2,1.7-.6.8-1.1,1.6-1.4,2.6-.3.3-.6.7-.9,1.1-.4.6-.7,1.2-.9,1.8-1.2,1-2.4,2-3.2,3.4-.8,1.4-1.1,2.7-1.4,3.8,0,0,0,0,0,.1-.4.4-.8.9-1.2,1.4-1.3.3-2.4.9-3.4,1.8h0ZM210.6,675.8c0,0-.1,0-.2,0-2.3-.1-4.5.8-6,2.5-.4.5-.8,1.1-1.1,1.7,0,0-.1,0-.2.1-.8.5-1.3,1.1-1.8,1.6-.8.2-2.1.3-4.3.4-2.2,0-5,.8-7.2,3.1-.3,0-.6.2-.9.3-.3.1-.5.2-.8.3-.1-.2-.2-.3-.4-.5.4-.8.7-1.8.9-2.8.3-2.5.3-9.1,0-11.6-.2-1.4-.7-2.6-1.4-3.7h0c-.1-1.2-.3-2.7-.7-4.3-.2-1-.3-3.4-.4-5.1s-.2-3.5-.4-5.1c-.1-1-.4-1.9-.8-2.8,0-.7,0-1.5-.1-2.4,0-.6.1-1.3,0-2,0-.8-.3-2.1-1-3.5,0-.5,0-1.1,0-1.6.2-5.7.3-8.2-2.5-10.8-.1-.1-.3-.2-.4-.3-.2-1-.4-2-.5-2.8,0-.5,0-1.3,0-2.1,0-2.4.2-5.8-1.3-9.1v-.2c.2-.5.3-1,.3-1.6.4.2.8.4,1.3.6,3.1,1.5,6.2,3,8.9,4.7.6.8,1.5,1.9,2.9,2.7,0,0,0,0,.1,0,.4.5.9,1,1.5,1.4,1.1.8,2.2,1.3,3.2,1.5.4.8.9,1.5,1.5,2.1,1,1,2.1,1.6,3.4,1.9.9.6,1.7.8,2.3,1,1.7.4,3.1.5,4,.5.2,0,.3,0,.5,0h0c.2.2.4.5.6.7.9,1.1,1.9,2.3,3.3,3.3,2.3,1.6,5,2.6,7.3,3.4,1.8.7,3.8,1.4,4.7,2.2,2.2,1.8,4,2.6,5.5,3.2v1.5c0,2.7,1.5,5.2,3.8,6.5,1.3.7,2.7,1.1,4.1,1.1s2.3-.2,3.5-.6c.5-.2,1.3-.5,2.2-1.1.6.6,1.4,1.4,2,2.1,0,0,0,.1,0,.2,0,.5.1,1.2.2,1.8-.6.6-1.2,1.3-2,2.2-.3.3-.7.9-1,1.2-1,.5-1.9,1.1-2.9,1.6-3.5,1.9-7.2,3.9-11.1,6.9l-.8.6c-1.3,1-2.9,2-4.7,2.9-1.8,1-3.3,1.9-4.4,2.7-1.2.8-1.9,1.3-2.9,1.7l-.8.3c-.9.4-1.9.8-2.9,1.2-.8-.1-1.8-.1-2.8,0h0ZM234.1,644.2c.9.4,1.8.9,2.6,1.5l-1,1.1c-.9-.8-1.4-1.7-1.7-2.7,0,0,0,0,0,0h0ZM421.2,235.6c-.8-1.1-2-2.3-3.9-3,.2-.7.4-1.5.4-2.3.2-.1.4-.2.6-.4,1.5.9,2.6,2.4,2.9,4.1,0,.6,0,1.1,0,1.6h0Z"/>
      <path class="st0" d="M410.9,348.3c.7-.8,1.1-1.6,1.4-2.4.9-.9,1.8-2.1,2.2-3.9.5-2.3,0-4.5-1.3-6.6-.7-2.7-2.9-4.9-5.8-5.5-1-.2-2.6-.4-4.2,0-1-.9-2.3-1.6-3.7-1.9-3.8-.7-7.3.2-9.8,2.5-.3.3-.6.6-.8.9-1.7.6-3,1.7-4.1,3.2-1.3,1.9-1.7,4.2-1.2,6.3-.5.9-.8,1.8-1,2.7-.9,4,.2,7.5,3,9.7.6,1.2,1.4,2.1,2.1,2.8,1.8,1.5,3.9,1.9,5.6,1.9s2.4-.2,3.1-.4c2.7-.6,4-2.2,5.5-4,.2-.2.4-.4.6-.7,1.3-.4,2.9-.9,4.8-2.2,1.5-.5,2.7-1.3,3.6-2.4h0Z"/>
    </g>
  </g>
</svg>