<?xml version="1.0" encoding="UTF-8"?>
<svg id="Layer_2" xmlns="http://www.w3.org/2000/svg" version="1.1" viewBox="0 0 1087.2 1087.2">
  <!-- Generator: Adobe Illustrator 29.7.0, SVG Export Plug-In . SVG Version: 2.1.1 Build 138)  -->
  <defs>
    <style>
      .st0 {
        fill: #fff;
      }
    </style>
  </defs>
  <g id="Layer_1-2">
    <g>
      <path class="st0" d="M1085.9,607.3c.5-1.1,1.2-2.9,1.2-5.2s-.7-3.9-1.2-5c0-1,0-2.5,0-3.5,0-1.4,0-2.8,0-4.1,0-1.2,0-2.8.1-4.5.1-3.4.3-6.9-.2-10.1-.3-1.9-.9-3.4-1.3-4.4,0-.1-.1-.3-.2-.4-.2-2.1,0-4.8.1-7.6.2-3.8.4-7.7,0-11.5-.2-1.2-.5-2.3-.9-3.1.8-5.8.2-9.2-.6-13.1-.2-1-.4-2-.6-3.2-.5-3.3-.5-7-.4-10.8,0-4.1,0-8.3-.5-12.6-.2-1.2-.4-2.2-.5-3.2-.2-1.3-.4-2.4-.5-3.2.5-1.1.9-2.2,1.1-3.5.5-4.3.3-8.7,0-13-.1-2.2-.2-4.3-.2-6.2,1.1-1.4,1.8-3,2.1-4.8.3-2.7-.3-4.9-.9-6.3,0-.1,0-.2,0-.3.1-1.8.3-4.1-.1-6.6,1.4-9,1.3-17.8,1.2-26.4,0-7.5-.2-14.5.7-21.4.4-3.5-.1-6.7-.6-9.3-.2-1.1-.5-2.6-.4-3.3,1.2-2.4,1.4-5.1.5-7.6,0-.3-.2-.6-.3-.8,0-2.4-.7-4.2-1.2-5.3,0-1.1,0-2.5.2-3.9.2-2.5.3-5.4,0-8.2,0-.2,0-.3,0-.5,0-.4,0-.8,0-1.2,0-1.4-.3-2.8-.8-4.1,0-3.6-.7-6.7-1.2-9.3h0c-.1-.7-.3-1.5-.8-2.4,0-.2,0-.3,0-.4.1-1.9.3-4,0-6.2-.1-1.1-.4-2.1-.9-3.1,0-1,0-2.3-.2-3.7.1-.7.2-1.3.2-1.7,0-2.6-.6-4.6-1.2-5.8,0-.2,0-.4,0-.8.1-2.5.1-5.2-1.5-9.1-.4-1-.8-2.1-1.2-3.3-.8-2.2-1.6-4.5-2.8-6.8,0,0,0-.2,0-.2.2-1.5.6-3.8.2-6.4-.2-1.2-.5-2.2-1-3.2,0-.6.2-1.2.3-1.7.2-1.1.4-2.2.6-3.3.3-2.7-.5-5.4-2.2-7.4,0,0,0-.2,0-.3,1-3.7,0-7.3-2.2-9.8-.1-.3-.3-.7-.4-1,0-.2,0-.4,0-.5.1-1.3.2-3,0-4.9-.2-1.1-.5-2.2-.9-3.2.2-2.8-.2-7.9-5.7-12.3-.8-.7-1.6-1.1-2.1-1.3l-.9-.8c-.8-.7-3.1-2.6-4.3-3.8-1.6-4.4-5.2-7-10-7.3-4.4-5.7-10.1-5.9-14.3-4.9-.6.1-1.4.4-2.3.9,0,0-.2,0-.3,0h-.5c-2.5-.3-5.7-.4-8.8,1.7-3.2,1.4-5.7,3.2-7.9,4.8-1.8,1.3-3.4,2.4-4.7,2.9-1.2.4-2.3.6-3.5.9-2,.5-4.3,1-7.1,2.1-6.2,2.4-10.5,3.6-15.7,3-1.4-.8-3.9-2-7.2-1.8-1,0-2.8.3-4.7,1.5h-18.6c-1.2-1.8-3-3.2-5.2-3.9-3-.9-5.7-.6-7.6,0-1.5-.7-3.2-1.3-5.1-1.4-1.1,0-2.3.1-3.3.4-.8-.2-1.5-.4-2.4-.6-2.1-1.7-4.5-2.6-7.2-2.7-1.5,0-5.7.1-8.7,4-2.7.6-4.8,1.8-6.2,2.7-.9,0-2,0-3.1.4-.9.2-1.9.6-2.9,1.3-.8,0-1.8,0-2.6,0-.8-.5-1.5-.8-2.2-1-2.1-.7-4.5-1-6.7-1.3-.7,0-1.4-.2-2.1-.3-1.8-1.3-4-1.9-6-1.9-1,0-2,.2-2.8.4-.4-.1-.7-.2-1.1-.3-1.5-.3-2.9-.4-4.1-.5-.9,0-1.7-.2-2.4-.3-.2,0-.5-.2-.8-.3-1.2-1.1-2.4-2-4.4-2.6-2.4-.7-4.8-.6-6.8.2,0,0-.2,0-.3-.1-.6-.3-1.2-.6-1.8-.8-3.5-1.5-6.2-1.5-8-1.5-.9-.5-1.7-.7-2.3-.8-.3,0-.6-.1-.9-.2-1.4-1.5-3-2.7-5.5-3.2-2.6-.5-6.5-.3-7.8,0-1.5.2-2.7.7-3.5,1.1-2.2.2-3.9-.2-6.6-1.4-3.3-1.5-5.6-1.7-7.6-1.6-1-.5-2.2-.9-3.4-1-2.2-.3-4-.2-5.5-.2-.9,0-1.4,0-1.7,0-1.1-1.3-2.9-2.9-5.7-3.4-2.9-.6-10.8-.4-12.7-.1,0,0-.1,0-.2,0-.7-.3-1.4-.6-2.3-.8-2.9-.6-10.2-.4-11.8-.2-2,.3-3.8,1-5.2,2.2-2,.9-3.4,1.9-4.7,3-1,.3-2.1.8-3.2,1.6-.1.1-.3.2-.4.3-2.7.7-5.2,2.6-7,5.4-.1.2-.3.4-.4.6-1.3.7-2.9,1.9-4.1,4-.6,1.1-1,2.3-1.1,3.3-.3.7-.6,1.3-.7,1.8-.5,0-1.1,0-1.6,0-.3,0-.5,0-.8,0-1.4-.9-2.8-1.3-3.8-1.5-1.5-.3-2.9-.3-4.1-.2-.7-.3-1.4-.5-1.8-.6-2.4-.6-4.8-.4-6.9-.3-.2,0-.6,0-.8,0-2.8-1-5.4-.9-7.9.2-.5.2-1,.5-1.5.8-.5-.4-1-.9-1.6-1.3-.8-.5-1.8-.9-2.8-1.2-3.2-.8-6.1-.6-8.5-.5-.2,0-.3,0-.5,0,0,0,0,0,0,0h0c-1.9-.9-3.2-1.1-11.5-1.1-8.1,0-9.3.2-10,.3-1.3.2-2.4.7-3.5,1.4-.2,0-.4-.2-.7-.2-.9-.2-1.7-.4-2.5-.4-.8-.4-1.5-.6-2-.7-2.4-.6-4.8-.4-6.7-.3-.8-.4-1.5-.6-2-.7-2.5-.6-4.8-.5-6.4-.4-.4,0-.8,0-1.1,0h0c-3.3-1.4-6.6-1.3-9.5.2-.3,0-.7,0-1,0-3.1-.1-6.4-.3-9.5.4-1.2-.7-2.5-1.2-3.9-1.3-3.9-.4-7.9-.2-11.8,0-2.4.1-4.7.2-6.6.2-.2,0-.3-.2-.5-.2-3-1.4-6.2-1.3-11.2-1-1.2,0-3,.2-3.6.1-8.1-1.1-11.8-1.4-20.2,0-.2,0-.4,0-.6,0-2,0-6.8-.3-10.4,3.5-1.2,1.2-2.4,3-3,5.7-2.2-.2-4.3-.1-6.1,0-.6,0-1.4,0-2,0-1-.5-2.5-1-4.4-1.1-.9,0-1.7,0-2.5,0-.6-.8-1.3-1.5-2.2-2,0,0,0,0-.1-.1-.8-1-1.8-2.2-3.4-3.3-.4-.3-.8-.5-1.2-.7-.2-.1-.4-.3-.6-.4,0,0,0,0,0,0-3-2-5.6-1.9-12.5-1.6-1.7,0-4.4.2-5.3.1-2.4-.3-4.8.2-6.8,1.6-2.1,1.5-3.5,3.8-3.9,6.4,0,.1,0,.3,0,.4-.6,0-1.2.2-1.8.3-.8.1-1.7.3-2.7.4-.7,0-1.2,0-2,0-1.1,0-2.5,0-4.2.2-1.5-3.3-4.5-5.9-6.5-6.7-3.7-1.5-8.1-1.2-11.5,1-2.3,1.5-3.9,3.6-4.7,6-.5,0-.9.2-1.3.2-1.1-3.8-4-6.4-8.1-7.5-1.5-.9-3.4-1.5-5.4-1.6-.9,0-1.7,0-2.5,0-2.9-.3-7.1-.1-8.5.2-2,.4-3.5,1.3-4.6,2.3-.3.1-.5.2-.8.3-2.7,1.3-4.6,3.7-5.2,6.6-.1.7-.2,1.3-.3,2,0,0,0,0,0,0-5.6.3-16.4.3-22,0-1-.6-2-.9-2.6-1-2.6-.6-7.5-.4-8.6-.2-1.3.2-2.4.6-3.4,1.1l-1.6-.9c-1.8-1-3.9-1.4-6-1.1-.3,0-.7,0-1,0-1.6-.1-3.7-.3-6,.3-1.2.3-1.6.3-2.9.5-.6,0-1.2.1-2,.2-.5,0-1.1.2-1.6.3-.5-.1-1-.2-1.6-.3-2.7-.4-5.4-.5-8.1-.7-2.1-.2-4.1-.3-6-.5-3.6-.4-6.9-.4-9.8-.4-2.9,0-5.3,0-7.7-.3-7.1-1-13.8-1.4-20.1-1.2h0c-.6-3.8-3.4-6.8-7-7.7-1.4-.4-2.8-.5-4.1-.3-1.5-.2-3.2-.1-5.1,0-.6,0-1.6,0-2,0-3.8-.5-7.4,1.4-9.3,4.6-3.1,0-6,.8-8.4,2.1-2.9-1-5.5-.7-7.5.1-1.1,0-2,0-2.6,0-.8-3.4-3-6.1-6.3-7.5-1.5-1.2-3-1.7-4-2-2.5-.6-4.8-.4-6.6-.3-.5,0-1.1,0-1.5,0-4.3-.6-7.8-.7-11.1-.7-1.9,0-3.8,0-5.8-.2-3.7-1.4-7.1-1.1-10,.7-.5.3-1,.7-1.4,1.1-.5,0-1,0-1.4,0-.1,0-.3,0-.4,0-.7-.1-1.8-.4-2.9-.4-.7,0-1.4,0-2,0-1.4-.7-2.9-1.2-4.6-1.4-1.6-.2-2.9-.1-3.9,0-.2,0-.4,0-.6,0-1.3-.1-2.6,0-3.9.5-.5-.2-1.1-.3-1.7-.4-.2,0-.4,0-.6,0-.7-.4-1.5-.7-2.1-1-2.7-.9-5.5-1-7.7-1.1-1-.6-2-.9-2.6-1-2.2-.5-4.2-.4-5.9-.3-1-.5-2-.8-3.1-.9-.6,0-1.3-.1-2.1-.1,0,0-.1-.1-.2-.2-1.3-.9-2.8-1.4-4.3-1.6-.6-.4-1.4-.9-2.3-1.2-1.1-.5-3.4-1.1-4.7-1.5-3.4-1-5.6-1.6-8.5-.8-.5.1-1.3.4-2.2.9-4.9.2-11.9-.4-17-1.1-2.2-.3-4.1-.2-5.6.1-1.9-.5-3.8-.5-5.6,0-.6-.1-1.2-.3-1.8-.4-.7-.2-1.3-.3-1.8-.4-.8-.2-1.4-.3-2-.3-.3-.3-.6-.5-1-.7-5.4-3.4-10.7-.7-13.6.7-.1,0-.3.1-.4.2h-.2c0,0-.1-.1-.2-.1,0,0-5.4-3.9-8.6-4.8-1.7-.5-3.3-.6-4.9-.4-.3-.1-.6-.3-.9-.4-1.4-.5-2.7-.7-3.7-.7,0,0,0,0,0,0-3.2-1.3-4-1.7-5.5-1.9-1.1-.1-2.1-.4-3-.7-.6-.2-1.2-.5-2.1-.8-.3-.1-1.1-.4-1.7-.7-1.6-.7-3.6-1.6-5.6-2.1-1.4-.4-2.7-.4-3.6-.4-.8-.2-1.7-.2-2.5-.2-3.2.2-5.5,1.8-7.2,3.4-1.8.6-3.2,1.7-4.1,2.7-1.2.4-2.2.8-3.2,1.5-1.8,1.2-3.5,3.1-4.6,5.4-.8.7-1.4,1.5-1.9,2.3-.6.6-1.3,1.2-1.8,2.1-1.5.9-3.1,2.1-4.3,4-.6.9-1.1,2-1.6,3.2,0,0,0,0,0,.1-1.3,1.1-3,2.9-3.5,5.8-.8,3.7-.6,16.4-.2,19.4.2,1.2.5,2.3.9,3.1-.1,1.7,0,3.3.2,4.8,0,.2,0,.3,0,.5-.4.8-.7,1.6-.8,2.1-.7,2.9-.5,5.9-.3,8.7,0,.4,0,.9,0,1.3-.5,1-.8,2.1-1,3.3-.2,1.7-.3,5.2-.1,7.6-.1.3-.2.5-.3.8-1,2.7-.8,5.6.4,8,0,.6,0,1.2.2,1.9,0,.3,0,.7-.1,1-.1,1.8.3,3.6,1.2,5.2.2,4,.2,11.5,0,14.7-.6,1.3-1.5,3.5-1.1,6.3,0,.3,0,.7.2,1.2-.5,2.2-.2,4.1.2,7.4.1.9.3,2.5.5,3.7-.4.9-.7,1.9-.9,2.9-.3,1.7-.2,3.3,0,4.7,0,.1,0,.2,0,.3-.4,3-.4,10.5,0,13.5.2,1.3.6,2.6,1.2,3.7,0,2.3-.1,4.9-.3,7.5-.3,4.6-.6,9.3,0,13.8.4,2.6.4,5.2.5,7.9,0,2.8,0,5.6.5,8.8.2,1.4.6,2.6,1.2,3.8.1,2.9,0,6.3-.3,9.8-.3,5.2-.6,10.6,0,15.7.2,1.3.6,2.6,1.2,3.7,0,2.3,0,5-.3,7.7-.3,4.5-.5,9.1,0,13.5.2,1.3.5,2.5,1.1,3.6,0,.8,0,1.6,0,2.4-.6,1.1-1,2.3-1.1,3.6-.3,2.3-.3,7.8,0,10.1.2,1.3.6,2.6,1.2,3.7,0,2.3,0,5-.3,7.7-.3,4.5-.5,9.1,0,13.6.2,1.2.5,2.4,1,3.4,0,1.5,0,3.2,0,4.1-.5,1.1-1.2,2.9-1.1,5.3,0,2.2.7,3.9,1.2,5,.3,3,0,6.7-.1,10.7-.2,3.7-.4,7.4-.2,11.1l-.4.7c-1.4,2.3-1.7,5.1-1,7.6-.8,3.5-.5,7-.3,10,0,1.2.2,2.5.1,3.5-.5,1.2-1.3,3.2-1.2,5.8,0,.5,0,1.1.2,1.8,0,.3-.1.6-.2.9-.3,2.1-.1,4.2,0,6.1,0,.2,0,.4,0,.6-.5,1-.8,2.1-1,3.3-.4,2.9,0,5.3.6,6.9-.3.7-.5,1.5-.6,2.3-.3,2.5-.3,8.5,0,11.1,0,0,0,0,0,.1-.3,1.8-.2,3.6.2,5.2-.5,1.4-1,2.8-1.2,4.2-.2,1.4-.2,2.7,0,3.8-.3.7-.6,1.4-.8,2.2,0,0,0,.1,0,.2-.9,1.7-1.3,3.6-1.1,5.6,0,.7-.2,1.9-.7,3.2-1.2,1.5-1.8,3-2,4-.4,1.6-.4,3.1-.3,4.4-.7,1.1-1.2,2.4-1.3,3.8-.3,2-.2,3.9,0,5.4,0,.3,0,.7,0,1.1-.2.4-.5.8-.7,1.1-.9,1.5-1.6,2.7-2,4.4-.7,2.9-.5,6-.3,8.6,0,.2,0,.5,0,.7-2.4,2.8-3.4,6-2.9,9.6-.3.8-.6,1.5-.7,2.1-.3,1.2-.4,2.2-.4,3.2-.4.9-.7,1.9-.8,3-.2,1.4-.2,2.5-.2,3.1,0,.1,0,.2-.1.3-1.4,3.7-2.2,8.2-2.9,12.3-.3,1.6-.6,3.1-.8,4.2-.9,3.9-.6,7.2-.4,9.9.1,1.5.2,2.5.1,3.3-.9,1.3-1.4,2.6-1.6,3.4-.2,1-.3,1.9-.4,2.8-.9,1.2-1.4,2.4-1.7,3.4-.5,1.7-.8,4.5.9,7.6,0,.6-.1,1.2-.2,1.9-1.2,1.2-2.2,2.8-2.6,5-.2,1.2-.3,2.1-.4,2.8,0,0,0,.1,0,.2-.6,1.3-1.3,2.6-2,4-1.4,2.7-3,5.7-4.1,9.2,0,.1-.2.2-.2.3-.5.2-1,.4-1.5.6-2.2,1.2-3.9,3.3-4.6,5.8-.6,2.1-.6,4.2,0,6.1-1.4,2.9-1.4,5.9-1.3,7.5v.4c-.2.3-.3.7-.5.9-.8,1.5-1.6,3.2-2.3,5-2.3,3.9-1.3,7.4-.6,8.9,0,1.2.1,2.3.5,3.4.5,1.3,1.2,2.5,2.1,3.5,0,.6.1,1.1.3,1.7,1,4.2,6,8.3,6,8.3.8.7,1.6,1.1,2.4,1.5,1.1,1.6,2.8,4,5.7,5.6,1.2.6,2.3,1,3.5,1.4.5.5,1.2,1.2,1.8,1.8.8,2.8,2.9,5.2,5.7,6.3,3,1.2,6,1,8.6-.3,1.1,0,2.3,0,3.7-.2.6,0,1.2-.2,1.8-.3,2.2-.4,4.3-.7,6.3-.8,1,.5,1.8.8,2.4.9,2.4.6,4.8.4,6.6.2.5,0,1.2,0,1.5,0h0c4.2.6,9.9,2,12.9,2.7,2.1.5,4,.4,5.5.3.6.3,1.3.7,2.1.9.9.3,1.8.5,7.5,1.3h.6c1.6.3,3,.2,4.2.2,2.2,1.1,4.8,1.4,7.3.5l1.4-.5c1.9-.6,3.5-1.8,4.6-3.4,1.1.1,2.1,0,2.9,0,.3.2.5.3.7.4,1.6.9,2.6,1.5,4.3,1.8,1.3.2,11.8,1.4,14.9,1.1.5,0,1-.2,1.5-.2.3,0,.7.1,1,.2,1.9.2,3.8.2,5.2,0,.3,0,.6,0,.9,0,.5.3,1.1.6,1.5.9,2.1,1.3,3.9,2.3,5.9,2.8.9.2,1.8.3,2.5.3.6.5,1.2,1,1.9,1.4,1.5.8,2.9,1.3,4.1,1.6,1.6,1.1,3.6,1.7,5.3,1.7,1.7,0,5.1-.3,7.9-3.2.2,0,.3,0,.5.1,7.4,1.6,9,1.2,10.3.9.6-.1,1.4-.4,2.3-.9,1.4,0,3.1,0,4.4,0,1,.5,1.9.8,2.4.9,2.5.6,5,.4,7.1.3.8.4,1.5.6,2,.7,4.8,1.1,10.6,1.1,15.7,1.1,2.2,0,4.4,0,6.1,0,1.9,0,3.7.2,5.5.3,8.8.5,17,1.1,27.5-.4,2-.3,5.4,0,8.6,0,4.3.2,8.8.5,12.9,0,1.5-.2,2.8-.6,3.9-1.1,1.3.3,2.7.3,4.2.2,1.1-.1,2.1-.4,3-.8,1,0,2.2,0,3.4-.3.6.1,1.2.2,2,.3,1.9,0,3.7-.3,5.3-1.2.7,0,1.5,0,2.3.1,2.5.2,5.3.3,8.1,0,.9-.1,1.8-.3,2.6-.7.4,0,.9,0,1.4,0,1.1,0,2.1-.1,3-.2.9,0,2-.2,2.5-.1,2.7.3,5.4-.5,7.4-2.3.1-.1.3-.2.4-.4,1,0,2.1,0,3.3-.4.9-.2,2.2-.7,3.5-1.6,1.5-.2,3.2-.2,5.2-.3,3.2,0,6.8,0,11-1,.2,0,.5-.1.8-.2,1.2.4,2.4.5,3.7.4,1.5-.1,3-.6,4.2-1.4,4.6.5,8.5,0,12.1-.5,1.5-.2,2.9-.4,4.2-.5,1.8-.1,3.5-.1,5.4-.1,3.7,0,8,0,12.7-1,.6-.1,1.6-.4,2.7-1,3,0,7,.1,9.3.5,2.1,1.4,4.8,2.1,7.8,1.7,1.7-.2,3.3-.8,4.6-1.8,1.1-.2,2.1-.4,2.9-.7,1.3.5,2.9.8,4.8.6,1.3-.1,2.5-.5,3.6-1.1h1.2c1.1.6,2.3,1,3.6,1.1,4.9.6,10,.3,15,0,4.2-.2,8.5-.5,11.7,0,.4,0,1.4.4,2,.6,1.8.6,3.7,1.2,5.5,1.4,2.6.3,5.1.2,7.3,0,.7,0,1.3,0,2,0,1.1.5,2.2.9,3.5,1.1,1.3.2,2.6.1,3.7,0,1.3.7,2.5,1.1,3.4,1.3,3.3.6,6.9.4,10.4.3,2,0,4.1-.2,5.4,0,.6,0,2.3.6,3.2.9.9.3,1.8.6,2.7.8,1.2.3,2.3.3,3.2.3,2.2,1,4.9,1.3,7.6.7,1.3.3,2.6.4,3.9.2,2,.2,3.8,0,5.5,0,.3,0,.6,0,.9,0,1,.5,2.2.9,3.4,1,3.1.4,6.2.2,9,0,1.1,0,2.2-.1,3.2-.2.9.5,1.7.7,2.2.9,2.1.5,4,.5,5.6.2,1.4.2,2.6.2,3.7.1,1,.5,2,.8,3.1.9,7.5,1,15.2.7,22.6.5,7.2-.2,13.9-.4,20.2.4,3.1.4,6,.2,8.6,0,1.4,0,2.8-.2,3.9-.1,1.1.5,3,1.2,5.4,1.2s4.4-.7,5.5-1.2c3.2-.2,11.1-.2,14.8,0,1.3.8,3.6,2.3,6.7,2.2,1.2,0,2.2-.2,3-.5.2,0,.4.1.5.2,5,1.2,9-.5,11.1-1.4.2,0,.5-.2.7-.3.6,0,1.3,0,2.2.2,1.3.9,2.9,1.5,4.6,1.7,3.1.4,6.2.2,9,0,2-.1,4.2-.3,5.4,0,4.3.6,8.8,1.1,13.1,1.5,1.7.2,3.3.3,4.9.5,4,.4,8,0,11.6-.4,2.2-.2,4.8-.5,6.6-.4.5.3.9.6,1.3.8,3.6,1.8,7.8,1.7,14.4,1.5,1.6,0,3.9-.2,4.6,0,16.4,1.6,31.4,2,47.2,2.3.6,0,1.2,0,1.7,0,1.1.7,2.5,1.2,4.2,1.5,2.5.4,5,.3,6.9.1.6,0,1.4,0,1.9,0,1.6.7,4.7,1.8,8.9.8.5-.1,1.3-.4,2.2-.9.3,0,.7.1,1,.2,4.5.6,8.4-.3,11.3-.9l.7-.2c3.2.7,6.5.7,9.5.7.8,0,1.8,0,2.7,0,2.7,1.5,5.9,1.9,9.3,1,1.2-.3,2-.7,3.6-1.6.2,0,.4-.2.5-.3,2.1,0,5.8,0,8.1,0,1.4.8,2.8,1.5,4.5,1.8,4.6.9,7.8,0,10.1-1.5.2,0,.5-.2.8-.2,1.1,0,2.5,0,3.9.2,2.6.2,5.6.4,8.5,0,1.3-.2,2.3-.5,3.1-.8.4.2.9.3,1.2.5,1.6.7,2.7,1.1,4.1,1.3,3.4.5,6.8.2,10.2,0,1.2,0,2.4-.2,3.5-.2,1,1.1,2.2,1.9,3.7,2.5,2.3.9,4.4.8,6,.5.9.5,1.9.8,2.9,1,2.5.4,5,.2,7.2,0,.3,0,.6,0,1,0,1.6,1.1,3.5,1.7,5.5,2,3.3.4,5.9-.3,7.6-.7.1,0,.3,0,.4-.1.6.2,1.3.5,2.1.6.8.2,1.6.2,2.2.2,1.3.7,2.8,1,4.2,1s1.2,0,1.8-.2c2.6-.5,4.8-2,6.2-4.2.2-.2.4-.4.6-.5.4-.4.9-.8,1.5-1.4,1.1-.4,2.1-1,3-1.7,2-1.7,3.1-4,3.3-6.5,2.4-1.4,4.1-2.9,5.2-4.5,2.1-.5,3.8-1.5,5.3-3,1.9.1,3.9.2,5.8.2,2,0,4,0,5.3.2.4,0,1.5.4,2.2.6,1.6.5,3.2,1,5,1.3,7.9,1.1,23-1.7,24.7-2,2.8-.5,4.8-1.4,6.3-2.3,1.9.2,4.4.3,7-.3.4-.1,1.1-.3,1.8-.6,1.3,0,2.9,0,4.6-.3,3.1-.7,4.9-2.4,7.7-5.4,1.6-1.7,2.7-2.8,3.5-4,.1,0,.3,0,.4,0,1.2-.1,3.7-.6,5.9-2.6,1.1-.6,2-1.3,2.8-2.2.9-1.1,1.6-2.3,2-3.6,1.1-1.7,1.7-3.7,1.8-5.9,0,0,0-.1,0-.2.2-.3.4-.6.6-.9,2.1-3.5,1.7-7.9-.9-10.9,2-3.2,2.8-7.1,2-11.1-.1-.6-.3-1.1-.5-1.6.6-1.1,1.1-2.3,1.3-3.5.5-3-.4-6-2.1-8.4.5-1.2,1-2.3,1.2-3.6.3-1.7.4-3.2.3-4.6.4-.8.8-1.9.9-3,.4-3,0-5.3-.9-7,.5-.9.8-1.9.9-3.1.1-1,.4-5.5-.2-8.1-.1-.6-.4-1.5-1-2.5,0-2.8.4-6,.9-9.1l.3-1.8c.3-1.8.2-3.6,0-5,.5-1,.8-2.1.9-3.2.3-2.2.2-3.8.1-4.9,0,0,0-.1,0-.2h0c1.6-3.4,2-7,2.3-10.1,0-.5.1-1,.2-1.5.9-1,2-2.6,2.4-4.9.3-1.8,0-3.3,0-4.6.7-1.1,1.5-2.6,1.9-4.4.2-1.1.3-2.2.2-3.1.2-.5.4-.9.6-1.3.4-1.3.6-2.3.7-3,0-.5,0-.5.2-.7,1.3-3.5,1.4-6.4,1.4-8.3.3-.5.5-1,.6-1.5,1.1-3.2,1.4-6.1,1.7-8.7,0-.3,0-.7.1-1,.8-1.2,1.1-2.3,1.3-3,.3-1.3.4-2.5.4-3.5.3-.7.5-1.4.6-1.8,2.1-2.6,2.5-5.4,2.2-7.7.1-1.3,0-2.4,0-3h0c.3-2,.5-3.9.7-5.8.2-1.4.3-2.8.5-4.1,1.3-1.7,1.8-3.4,2-4.6,1-5.1.6-10.9.2-16.5-.2-3.7-.5-7.6-.3-10.4h0ZM986,772s0,0-.1,0c-1.3-.3-2.5-.4-3.6-.5-1.6-1.5-3.7-2.5-5.9-2.6-2.1-.2-4.2.3-5.9,1.2h-.9c-.9-.5-1.7-.7-2.3-.9-1.6-.4-3.2-.5-4.9-.3-.2,0-.4-.1-.6-.2-1-.7-2.1-1.1-2.8-1.3.4-.8.6-1.5.7-2,.6-2.5.4-7.5.2-8.6-.2-1.9-1-3.4-1.9-4.8h0c.1-1.6.2-3.4,0-5.3-.1-1-.4-1.7-.7-2.5,0-.2-.2-.7-.3-1.1,1-.5,1.8-1.1,2.4-1.5.3,0,.7,0,.9-.1,1.2-.1,2.6-.3,4-.6,1.4.2,2.6.2,3.3,0,1.4.2,2.8.2,4,0,2.1.3,4,.2,5,0,.2,0,.4,0,.6,0,.8.4,1.6.7,2.5.8,1.5.3,2.9.3,4,.2.2,0,.3.1.5.2,0,0,0,0,0,0,2,2.4,3.5,4.2,5.2,5.5-.6,1.8-.9,4.5.6,7.5,0,.7,0,1.5,0,2.2-.7,1.3-1,1.9-1.3,2.5l-.4,1c-1.2,2.9-2.6,6.2-2.4,11.2h0ZM940.7,346.4c0-1.7-.2-4.2-.2-5.7,1.1-1.6,2.5-4,3-6.9.4-2.4.6-3.7,1.2-5.9,0,0,.1-.2.2-.2.4-.5.9-1.1,1.4-1.9,1-1.6,1.6-3.2,1.9-4.6.2-.1.4-.2.5-.4,1.3-.3,2.6-.9,3.7-1.8,1.1-.8,1.9-1.9,2.5-3.1,3.2,0,6.8.2,10.5.4,6.2.4,12.7.8,18.6,0,1.2-.2,2.4-.5,3.4-1.1.4,0,.8,0,1.2,0,2.1.2,4.6.3,7,0,1.8-.2,3.5-.7,5.3-1.2,1.2-.3,2.7-.7,3.4-.8.6,0,1.8,0,3.1,0l.3.7c.8,5.2,2.5,9.9,4,14.1l.6,1.5c.2.5.3,1.3.5,2.1.3,1.6.7,3.6,1.6,5.7.1.3.2.7.1,1.4,0,1.3,0,3.3.5,5.8.2.6.5,1.7,1.1,2.8,0,.7,0,1.4,0,2,0,2.4.2,5,.7,7.3.3,1.1.6,2.4.9,3.7.4,1.6.9,3.2,1.2,4.8-3.1-.7-6.4-1-9.4-1.3-2.1-.2-4-.4-5.5-.7-3.8-.7-6.7-.7-9.3-.8-.8,0-1.5,0-2.3,0-1.1-.6-2.4-1.1-3.8-1.2-3.4-.4-6.5-.3-9.3-.1-3,.1-5.5.3-7.3-.3-5.9-2-11.5-1.7-16.5-1.4-1.8,0-3.4.2-5,.2-1.1-.6-2.4-1-3.7-1.2-1.5-.2-4.1-.3-6.8-.3.2-.6.3-1.1.4-1.7.3-2.7.2-6.1,0-9.7h0ZM1020.9,579.4c.2.8.5,1.8,1.2,2.9,0,.1,0,.2,0,.3,0,.6,0,1.3-.1,2-.3,0-.5,0-.8,0-1-.6-2.3-1.2-3.9-1.6-2.9-.6-5.9-.4-8.5-.2-1,0-2.3.1-3.1.1s0,0,0,0c-1.3-.7-3.2-1.6-5.7-2-3.7-.5-7.3-.3-10.8,0-3.3.2-7.9.5-9.3-.4-1.3-.9-2.9-1.4-4.5-1.5-3.9-.3-7.8-.1-11.6,0-3.4.2-6.7.3-9.4,0-1-.5-2.8-1.1-5.1-1.2h-.6c0-1.4,0-2.9,0-3.7,0,0,0-.1,0-.2.7-1.9,2.4-6.4-.7-12.2-.1-.3-.4-.7-.7-1.2-.1-.2-.4-.7-.6-1.1v-.7c1-1.4,1.9-3.1,2.1-5.3.2-2-.2-3.9-.9-5.6.6-.2,1.3-.4,1.9-.7.7-.3,1.3-.6,1.9-1,1.2,0,2.7,0,4.3-.3.5-.1,1.3-.4,2.2-.8.9,0,1.9.3,3.1.5,1,.2,2,.4,3.2.5,3.7.5,7.4.3,11,0,2.7-.2,5.5-.4,7.2-.1,2.1.3,4,.5,5.7.6,1.2,0,2.2.2,3.3.3.4.2,1,.4,1.4.6.8.4,1.7.8,2.5,1.1,2.1.8,4,1.1,5.5,1.3.9.1,1.6.3,2.2.4.3.2.8.6,1.2.9,1.8,1.4,4.1,3.1,7.2,3.7,2,.4,3.6.3,4.8.2.1,0,.2,0,.4,0,1.2.4,3.3,1.2,4.7,1.7,0,0,0,0,.1.1,0,0,0,0,0,0,0,1.1,0,2.3.1,3.6.5,3.9.4,5.2-.5,7.4-1.3,3.1-1.3,9-.7,11.4h0ZM940,424.3c.6,0,1.3,0,1.9-.2l1.5-.2c4.1-.6,8-1.1,11.5-.8.4,0,1,.2,1.7.3,2.1.5,5.2,1.2,9.3.6,4.1-.6,9.7-.6,13.8-.2,1.3.6,3.8,1.6,7,1.2.9.4,1.9.7,2.9.9,3.5.5,6-.2,7.6-.8,2.1.2,5.7.6,6.8.7,3,.7,5.7.7,7.8.7.3,0,.6,0,.9,0,1.2.7,2.4,1.1,3.8,1.3,2,.3,3.9.1,5.5-.2,0,.2,0,.4,0,.6-.1,2.6.6,4.6,1,5.8,0,0,0,.1,0,.2,0,.8,0,1.4-.4,2.6-.2.9-.5,2-.6,3.4-.7,5.2-.4,10.7,0,16.1.2,3.3.4,6.5.3,9.2-.9,1.4-1.4,2.8-1.6,4-.7,3.6-.4,7.3-.2,10.9,0,1.3.2,2.6.2,3.8-.6,1.1-.9,2.3-1.1,3.5-.1,1-.2,1.9-.2,2.8-1.2-.2-2.3-.3-3.2-.4-.3,0-.7,0-1,0-.2,0-.5-.2-.8-.3-3.1-1.3-4-1.7-5.5-1.9-1.3-.2-2.5-.1-3.6,0-1.3-1-2.5-1.7-4.2-2.1-2.3-.5-4.3-.4-5.8-.3-.2,0-.4,0-.6,0-.7-.1-2.1-.5-3-.8-1.9-.5-3.5-1-4.9-1.1-1.5-.2-2.9-.1-4.1,0-1-.5-2-.8-3.1-.9-1.5-.2-2.8-.1-3.9,0-1.4-.9-2.8-1.6-4.7-1.9-4.9-.6-19-.8-27.8-.4-.4-2.6-.8-5.3-1.2-7.8.5-1.1,1-2.9.9-5.1,0-1.6-.5-2.9-.9-3.9,0,0,0-.2,0-.3,0-1.4.2-3.2,0-5.6,0-.3.2-.9.3-1.2.3-1,.8-2.7.4-4.9-.3-1.6-.3-3.5-.3-5.5,0-2.6,0-5.2-.6-7.8-.3-1.4-.8-2.5-1.3-3.5h0c.1-1.6.2-3.2,0-5.1-.2-1.2-.5-2.4-1-3.4,0-.7.2-1.5.3-2.3h0ZM1006.9,677.1c-.3,1.3-.3,2.6-.3,3.6,0,.1,0,.2-.1.3-.6,0-1.2,0-1.7,0h-.2c-1-.7-2.5-1.8-4.7-2.2-4.1-.8-8.1-1-12.1-1.3-2.7-.2-5.2-.4-7.6-.7-.7-.1-1.4-.1-2.1-.1s-.9,0-1.3,0c-1.8-1.4-4.1-2-6.5-1.9-.4,0-1.3,0-2,0-1.6-.1-3.5-.2-5.5,0-1.3.2-2.6.6-3.7,1.2-.2,0-.4,0-.7,0-1.7,0-3.9.1-6.8.7-.9,0-2.1-.2-3.5,0,0-.6,0-1.2,0-1.9,0-1.9-.2-3.9-.3-6.1-.2-3-.4-6.4-.3-9,.6-1.1,1-2.4,1.2-3.7.4-3.4.2-6.9,0-10.2,0-1.2-.2-2.5-.2-3.6,2.3.9,4.9,1.1,7.7.5.6-.1,1.1-.2,1.7-.4,1-.2,1.7-.4,2.3-.5.9.4,1.6.7,2.2.8,2.5.6,6.8.3,7.7.2,1.3-.2,2.5-.6,3.5-1.1,2,.5,3.9.3,5.2.2.7.3,1.5.5,2.4.8,2.7.7,4.8.9,6.5.7.3,0,.5.2.7.2,2.4.5,5.1.8,8,1,2.1.2,5.8.5,7.8,1,1.1,1.2,2.8,2.7,5.5,3.2,2.1.4,4,.4,5.5.2,0,.5-.2.9-.3,1.4-.3,1.7-.7,3.3-1,4.9-.8,3.4-1.5,6.8-1.8,11.1-.7,1.1-1.3,2.4-1.7,4.1,0,.3-.1.5-.1.8-1.5,1.4-2.8,3-3.4,5.6h0ZM897.9,780.2c-.4,1.1-1.2,3-1.8,4-.1.1-.2.3-.3.4-2,2.4-3.1,3.7-3.6,6.1,0,.4-.3,1.3-.4,2.5-1.5.3-2.8,1-3.8,1.7h-8s0,0,0,0c-.5,0-.9,0-1.4,0-1.6-.2-3.7-.2-6.5-.2-1.9,0-6.5,0-8.1.2-.7,0-1.4.3-2.1.5-.6-.2-1.3-.4-2.1-.5-2.8-.4-10.2-.4-13,0-1.3.2-2.5.5-3.6,1.1-.7,0-1.5,0-2.3,0-1-.5-1.8-.8-2.4-.9-2.9-.7-8.9-.3-9.5-.2-1.8.2-3.3.8-4.8,1.8-5.6-1.1-12.4-1.5-17.8-.8-1.5.2-2.7.4-3.8.7-1.1.2-1.8.4-2.4.4-1.9-.8-4.6-1.5-8.3-1.1-1.3.2-2.5.6-3.6,1.2-1.7,0-3.8,0-5.5,0-1.1-.6-2-.8-2.7-1-4.9-1-12.1-2.1-19.1-.2-1.6-.2-3,0-4,0-6.2-1.3-12.3-1-18.2-.8-3.3.1-6.4.3-9.3.1-1.2-.7-2.4-1.1-3.8-1.2-1.3-.2-4.4-.2-6.7-.2-2.1,0-3.8,0-5.2.2-.6,0-1.2,0-1.7,0-1-.5-2-.8-3.2-.9-3.9-.5-7.9-.3-11.8,0-2.6.2-5.3.3-7.3.2-1.7-1.2-5-2.9-9.8-2-.2,0-.3,0-.4,0-3.8-.5-7.6-.2-11.3,0-1.9.1-3.9.2-5.6.2-1.1-.6-2.3-1-3.7-1.2-2-.2-4.3-.3-6.6,0-1.4-.2-2.9,0-4.3.4-.6-.2-1.3-.3-2-.4-3.4-.4-6.8-.2-10.1,0-2.5.2-5,.3-6.6,0-7-1-13.9-.8-20.5-.6-4.6.1-9.1.2-13.2,0-1.2-.7-2.5-1.1-3.9-1.3-7-.9-14.2-.6-21.2-.2-2.9.1-5.8.2-8.4.3-.4-.2-.7-.4-1-.5-3.5-1.4-7.2-1.2-10.4-1-.9,0-2.2.1-2.6,0-3-.4-6.1-.7-9-1-2.9-.3-5.6-.6-8.3-.9-2.9-.4-5.7-.2-8.3,0-.8,0-1.5,0-2.3.1-1.1-.6-2.3-.9-3.6-1.1-1.6-.2-3.2-.1-4.8,0-.7-.3-1.4-.5-1.8-.7-3.7-.9-8-.9-12.1-.9s-3,0-4.2,0c-1.1-.6-2.4-1-3.8-1.2-1.5-.2-2.9-.1-4,0-.9-.4-1.9-.7-3-.9-3.2-.5-6,.2-8,.7,0,0-.1,0-.2,0-.7-.3-1.3-.5-1.7-.6-2.8-.7-6.7-.7-12-.8-1.1,0-2,0-2.7,0-1.9,0-3.4.1-4.4.3-1.3-.5-3.3-1-5.5-.6-.4,0-.8,0-1.2,0-2.1-1-4.7-1.3-7.3-.7-.6.2-1.2.4-1.8.7-7-1-20.1-1.9-28.3-.9-1.3.2-2.5.6-3.7,1.2-1.8,0-3.8-.1-5.8-.2-3.8-.2-7.8-.5-11.6,0-1.2.2-2.4.5-3.5,1.1-.8,0-1.6,0-2.4-.1-2.5-.2-5.3-.3-8.1,0-1.1.1-2.2.5-3.2.9h0c-2.2-.2-4.7-.3-7.3.3-1.2.3-2.2.8-3.1,1.4-1.2-.5-2.6-.7-4-.6-.5,0-1.5,0-2.3,0-1.8-.1-3.9-.2-6,0-1.1.1-2.1.5-3.1.9-1.2,0-2.6-.1-4.1,0s-3,.6-4.5,1c-1,.3-2.8.8-3.5.8-1.1,0-2.9,0-4.5,0-3.1-.1-6.4-.3-9.5.3-1.9.3-3.4,1.1-4.4,1.7-1.5-.1-3.6-.2-5.8.3-.7.2-1.6.5-2.6,1.1-.8,0-1.6.1-2.5.3-.4,0-.9.2-1.5.5-1.8-.7-4.2-1.1-7.3-.7-2,.3-3.4,1-4.9,2-.9,0-2-.1-2.8-.2-3.5-.2-7-.5-10.5.3l-1,.3c-.7.2-1.6.4-2.5.6-.5.1-1.2.3-2,.7-.6-.1-1.3-.3-2.1-.6-1.8-.5-3.9-1.1-6.5-1.3-2.6-.2-4.7.2-6.4.9-1,0-2.1,0-3.3.3-.4,0-1,.2-1.6.5-.9-.4-1.8-.6-2.8-.7-1.9-.2-3.6-.1-5,0-1-.5-2-.8-3.1-.9-3.7-.5-6.2.2-7.8.8-1.1,0-2.8-.3-4.1-.4-1.2-.7-2.5-1.2-4-1.3-2.3-.3-4.6-.1-6.6,0-.3,0-.7,0-1.1,0,0,0-.2,0-.3-.1h0c-2.7-3.2-7.3-4.3-11.2-2.5-.5.2-1.2.3-1.9.2-1.6-.2-3.1-.4-4.5-.5-1.2-.1-2.4-.2-3.4-.4-.1,0-.2,0-.4-.1-.2-1.6.6-4.5,1.3-6.8v-.2c0-.1.3-.5.4-.7.4-.9,1.1-2.2,1.4-3.8.4-2.3.3-4.3.2-6,0-.4,0-1,0-1.3.2-1.3.7-2.8,1.3-4.5.5-1.4.9-2.8,1.4-4.4,1.1-4.2,1.1-7.7,1-10.9,0-.8,0-1.6,0-2.4.6-1.1,1-2.4,1.2-3.7.3-2.2.1-4.3,0-6.2,0-.5,0-1.2,0-1.7.5-.7,1.3-1.9,1.8-3.7.4-1.9.4-3.6.3-5.1.1-.3.3-.6.4-1,1.3-2,1.8-4.5,1.3-6.9,0-.4,0-1.6.1-2.4.1-1.6.3-3.6,0-5.8.4-.9.8-2,.9-3.2.2-1.8.2-4.6-.1-6.4-.2-1.3-.5-2.4-.8-3.3,0-.3-.2-.6-.3-.9,1.9-5.9,1.2-13.1.6-20-.4-3.7-.7-7.6-.5-10.3.6-1.5,1.8-4.5.8-8.5-.1-.6-.4-1.6-1.1-2.6-.4-5,0-10.7.3-16.7.4-7.1.8-14.4,0-21.3,0-.9-.3-1.8-.5-2.5.2-.6.3-1.2.4-1.9.7-4.7.4-9.8,0-14.6-.2-2.8-.4-5.7-.3-8.2.6-1.1,1-2.4,1.2-3.7.3-2.1.1-4,0-5.7,0-.2,0-.5,0-.8.6-1.1,1.2-2.6,1.5-4.4.5-4,.4-9.6.2-16,0-.9,0-1.7,0-2.4,0-.4,0-.7,0-1,.2-.6.5-1.2.6-1.9.7-2.8.6-5,0-6.9,0-.3.1-.6.2-.9.1-.8.2-1.5.2-2.2.2-.2.3-.5.5-.7.9-1.4,1.9-3.8,1.4-6.9.2-1.5.2-3,0-4.3.4-1,.7-2,.9-3.1.3-2.4.1-4.6,0-6.6,0-.3,0-.7,0-1,.5-1,.9-2.2,1-3.4.4-3.2.2-6.4,0-9.5,0-1.2-.2-2.5-.2-3.6.4-.8.7-1.6.8-2.1.6-2.4.6-4.8-.1-6.9.7-1.2,1.2-2.3,1.4-3.9.5-4.2.4-10,.2-15,0-1.5-.1-2.9-.1-4.2,0-.8,0-1.4-.1-2,0,0,0,0,0-.1.4-3,0-5.6-1.1-7.9,0-2.2,0-5,.2-7.6.3-4.4.6-9,0-13.3-.1-.9-.3-1.6-.5-2.3.5-1.6.9-3.9.6-6.8-.2-1.2-.5-2.3-1-3.3,0-.6,0-1.3.1-1.9.1-2.3.3-4.9,0-7.6-.1-1.1-.5-2.2-.9-3.2,0-.1,0-.2,0-.3.1-3.2.2-5.9-.9-8.2.1-3.2-.3-5.9-.7-8.2-.1-.9-.3-1.8-.4-2.6-.1-1-.2-1.9-.3-2.8-.4-3.5-.7-6.6-1.8-10.4,2.3-1.7,4.9-3.6,5.7-7.3.2-1,.3-1.9.2-2.9,0-.9,0-2.4,0-3.8.1-2.3.3-4.9,0-7.5-.2-1.6-.8-3.1-1.6-4.4-.2-.9-.5-2-1.1-3.2,0,0-3.7-8.4-5.7-10.6-.6-.7-1.3-1.3-2-1.8-.1-.4-.3-.9-.5-1.3,0-.5,0-1,0-1.5-.2-1.4,0-3.4,0-5.4.1-2.7.3-5.7,0-8.7-.1-1.2-.4-2.2-.7-3,.3-.8.6-1.7.7-2.7.6-4.9,0-9.3-.8-12.9.7,0,1.4,0,2.1-.2,2.3.2,4.5-.2,6.4-1.3.3,0,.7-.2,1.1-.3,2.9-1,5.3-2.4,7.2-3.6.6-.4,1.2-.8,1.8-1.1,1,.1,2.3.4,3.4.6,1.8.3,3.6.7,5.4.8,3,.2,6,0,8.9,0,2.4-.1,4.9-.2,6.7,0,.2,0,.4.2.6.3,1.5.7,3.3,1.5,5.4,1.6,1.2,0,3.1,0,6.2,0,2.4,0,7.2-.1,9.2,0,3.7,1.3,7.4,1.2,10.2,1,.8,0,1.5,0,2.2,0,1.9.9,4.2,1.3,6.5.8,3.8.7,7.5.5,10.7.3,1.1,0,2.1-.1,3.1-.1,1,.5,1.8.8,2.4.9,2.7.6,5.3.4,7.7.3.1,0,.3,0,.5,0,1,.5,2,.8,3.2.9,3.1.4,5.7-.3,7.2-.8,2.2.3,4.4.4,6.3.4,1.1,0,2.8,0,3.3.2,3.6.8,6.2.9,8.3.9.4,0,.7,0,1,0,1.1.6,2.4,1,3.7,1.2,4.4.6,8.9.3,12.9,0,3-.2,5.9-.4,8.1-.1,1,0,2,0,2.8,0,0,0,0,0,0,0,4.5.9,6.7.7,9.9.2h.9c.2-.1.5-.1.8-.2.8.4,1.5.7,2,.8,2.5.6,4.7.3,8.2-.2,1.2-.2,3.1-.4,4.4-.5,1.9.8,4.5,1.5,8.1,1,1.4-.2,2.6-.6,3.8-1.2,6.1-.4,18.3-.4,24.4,0,1,.6,2,.9,2.6,1,1.8.4,3.5.5,5.1.3,1.8.3,3.6,0,5.5-.7,2.3.6,4.3.7,6,.6,2.5.5,5,.1,7.5-1.3,4.3-.2,10.8.2,18.7,1.2,4.5.6,7.5-.4,9.1-.9,0,0,.2,0,.2,0,2.4-.3,5.6,0,8.8.1,4.1.2,8.4.5,12.6,0,1.2-.2,2.3-.5,3.3-1,.3,0,.5,0,.8,0,2.6.2,5,.3,7.3-.2.6-.1,1.6-.4,2.7-1,5.4-.3,15.7-.3,21,0,1.2.6,2.4,1.1,3.8,1.2,2.8.3,5.6.2,8.4,0,1,0,2-.1,3-.2,1.1.6,2.3.9,3.5,1.1,3.3.4,12.1.4,15.4,0,1.3-.2,2.5-.5,3.6-1.1h1.5c1.1.6,2.3.9,3.6,1.1,3.1.4,6.3.2,9,0,2.2-.1,5.8-.4,6.7.1,2,1.4,4.5,2.1,6.9,1.8.4,0,1.5,0,2.2,0,1.6,0,3.5.2,5.5,0,.8,0,1.6-.3,2.3-.6,1,.3,2.3.6,3.9.7,2,0,3.8-.3,5.3-1.1.8,0,1.6.2,2.8.5,1,.2,2.1.4,3.3.6,2.9.4,5.8.2,8.4,0,1.6,0,3.4-.2,4.4-.1,0,0,.2,0,.3.1,1.6.6,4.6,1.6,9,.8.3,0,.9-.2,1.4-.2.6.1,1.5.2,2.7.4,3.7.4,6.7-.2,9-.6,1-.2,2-.4,2.5-.4,1.5,0,4.3.4,6.2.6,1.1.7,2.7,1.5,4.7,1.8,1.8.2,3.7,0,5.4-.6,1.5.2,3.4.6,4.7.8,1.5.3,2.9.5,4.2.7,3.2.4,6.4.2,9.3,0,1.9-.1,3.8-.2,5.1-.1.3.2.7.4,1,.5,1.8.9,4,2.1,6.8,2.4,1.9.2,5.6.3,8.3.1.6.3,1.2.5,1.9.6,1.1.2,2.2.3,3.3.2.2,0,.5,0,.7,0,1,.5,2,.8,3.2.9,3.4.4,6.8.2,10,0,1.4,0,2.9-.2,4.2-.2,1.1.6,2.3,1,3.6,1.1,2.2.3,4.5.1,6.5,0,.3,0,.6,0,.9,0,1.8.9,3.9,1.3,6,1.1,1.8.8,4.3,1.5,7.6,1,2.1.2,4.3-.2,6.2-1.3.3,0,.7.2,1.1.2,2.5.3,5,.2,7.1,0,.9,0,2-.1,2.8-.1,1.5.6,4.4,1.7,7.7,1.1,1.2,0,2.3,0,3.2,0,.4,0,1,0,1.2,0,5.6.8,10.9.5,15.5.1,3.5-.2,6.8-.5,9.9-.2.8.3,2,.8,3.6,1,1.5.2,2.8.2,3.7.2,2.9,3,6.9,4.1,11.8,3.1,1.5-.3,3-.9,5.2-1.8,0,0,.1,0,.2,0h0c1.8.6,3.8,1.3,6.3.9,2.6-.4,4.7-1.6,6.6-2.9,2.4-.6,3.8-1.4,5.2-2.2.5-.3.9-.5,1.5-.8.2,0,.6-.2,1-.3.8.4,1.5.6,2,.7,1.6.4,3.1.4,4.3.3,0,.2,0,.4,0,.6-1.8,2.8-1.8,6.2-1.8,9-.7,1.4-1.1,3.1-1.1,4.8,0,2,.4,3.8.7,5.5.1.6.2,1.2.3,1.8-.7,1.1-1,2.1-1.2,2.8-.6,2.3-.4,4.5-.3,6.3,0,.2,0,.4,0,.6-.4.9-.8,2.2-1,3.9,0,.2-1.1,25.3,1.2,30.7.2.4.4.8.6,1.2-.2.4-.3.7-.4,1.1-.6,1-1.1,2.2-1.3,3.8-.5,4.1,0,7.5.6,10,.2,1,.4,2,.4,2.5,0,.1,0,.5,0,.8-.2,1.5-.5,3.9.3,6.8l-.6,1.8c-.4,1.1-.5,2.2-.5,3.4.1,2.4,1,4.6,2.6,6.5-.3,1.8-.8,4.3-.3,7.5.4,2.4,1.1,7,1.1,10.8-.5,1-.8,1.9-1,2.5-.6,2.7-.4,8.4-.2,9.6.2,1.2.5,2.4,1,3.4,0,.8-.2,1.8-.2,2.6-.3,2.7-.6,5.8-.3,9,.2,2.1.5,3.8.8,5.3.3,1.7.6,2.9.6,4.6,0,3.3,0,7.2-.2,11.2-.3,7.2-.5,14.7.2,21,0,0,0,.2,0,.2,0,0,0,.2,0,.2-.4,3.1-.3,10.5,0,13.4.3,2.4,1.3,4,2.1,5.1,0,.6,0,1.2,0,1.8,0,2.5.2,5.5,1,8.7.4,1.6.4,2.5.4,4.3,0,1.6,0,3.6.3,6.1.2,1.3.5,2.5,1.1,3.6,0,1.1,0,2.5,0,3.6-.5.9-.7,1.7-.9,2.2-1.2,4.6,1.9,13.1,2.2,14,1,2.8,1.6,8.4,1.3,13v1.6c-.3,2.9-.4,4.3-.2,8.2,0,1.6-.1,2.6-.4,4.2-.3,1.4-.6,2.9-.7,4.8-.2,3.8-.2,8.1-.1,12.3,0,4.6,0,9.4-.2,13.3-.7,1.2-1.1,2.5-1.3,3.9-.3,2.3-.3,7.8,0,10.1.2,1.4.6,2.6,1.2,3.8.3,5.1.3,14.7,0,19.6-1.2,2.3-1.6,5-1.2,8,.3,2.1,1.1,3.9,2,5.5,0,.9,0,2-.1,3.1-.2,2.6-.3,5.6,0,8.6.4,2.7,1,5.5,1.5,8.1.3,1.3.5,2.5.8,3.7-.3.8-.5,1.8-.5,2.9,0,2.4.7,4.3,1.4,5.5,0,1.5-.2,3.4.3,5.5.1.5.3,1.1.7,1.9-.1,1.5-.2,3.4.3,5.3,0,0,0,0,0,.1-.3,1.5-.5,3.4-.1,5.6.4,2.4,1.3,4.5,2.7,6.2,0,1.3,0,2.7.1,4.1.2,1.5.8,3.1,1.6,5.6.1.3.2.7.3.9,0,.6,0,1.5-.1,2.2-.2,2.5-.4,5.3.3,8,.4,1.5.9,2.5,1.8,3.9,0,0,0,0,0,.2.2,4.2.2,13.3,0,16.9h0ZM135.1,773.9c0,1.1.1,2.7,0,3.1v.3c-.9,1.4-1.4,2.6-1.9,3.6-1.1,0-2.2,0-3.5.2-.1,0-.2,0-.3,0-.8-.1-1.6-.2-2.2-.2s-1.6,0-2.3.1c-.1,0-.3,0-.4,0l-.8-.2c-2.2-.5-5-1.2-7.4-1.7-1.1-.2-2.1-.3-3-.5-2-.3-3-.4-4.5-1-5.5-2.1-9.2-1.2-11.3-.7-1.4-1.2-2.9-1.8-3.9-2-2.4-.6-4.6-.5-6.4-.3-.3,0-.8,0-1.2,0-.2,0-.3-.1-.5-.2.8-1.9,1-3.6.9-5,2-3.2,1.8-6.7,1.7-9,.3-.8.7-1.9.9-3.2.2-1.8.2-3.9,0-7.3,0-.5,0-1.1,0-1.8,3.2,0,6.6-.1,9.8-.3,3-.2,6.1-.4,8.7-.3,1.1.6,2.4,1,3.7,1.2,2.1.3,4.2.1,6.1,0,.2,0,.4,0,.6,0,1.4.7,2.9,1,4.2,1.1.3,0,.6,0,.9,0,1.1,1.1,2.7,2.2,4.9,2.6,1.8.4,3.7.5,5.6.6.3,0,.6,0,.9,0,.8.5,1.7.9,2.7,1.2-.2,2.3-.3,4.5-.4,6.6,0,1,0,2-.1,3-.6,1.2-1.1,2.4-1.2,3.8-.3,2.2-.2,4.2-.1,6h0ZM110.8,296.5c0,0,.2-.1.3-.2.6-.4,1.1-.9,2.4-2.1,0,0,0,0,.2-.1,0,0,.2,0,.3,0,3.7.5,7.6.2,11.4,0,1.8,0,3.6-.2,5.2-.2,1.1.6,2.3,1,3.6,1.1,3.1.4,5.8,0,7.8-.5-.1,2.2-.2,4.6,0,6.9h0c-.3,1.9-.2,3.8,0,5.5-.8,1.7-1.1,3.5-.9,5.5.2,3.3,2,5.2,3.2,6.7.1.2.4.4.6.7,0,1.2,0,2.8.6,4.6,0,.3.2.5.3.8-2.6-.9-4.6-1.2-6.5-1.2s-1.6,0-2.4.1c-1-.5-2.1-.8-3-.9-1.3-.2-2.4,0-3.5,0-2.2-.4-4.2-.2-5.7-.1-.2,0-.4,0-.7,0-.4-.2-.9-.3-1.3-.5-1.7-.6-2.8-1-3.7-1.2-.6-.2-1.2-.3-2.3-.4-2.3-2.1-5.1-3.3-7.6-4.1,0-.9,0-1.9.1-2.7.1-2.2.2-4.2,0-6.2,0-.5-.2-.9-.3-1.4,0,0,0,0,0-.2.2-1,.3-1.9.3-2.7.5-.7.9-1.4,1.2-2.2.6-1.7.8-3.5.5-5.2h0ZM146.6,647c0,1.4-.1,3.2-.2,4.4-.2,3.5-.5,7,0,10.1.5,3.4.4,4,.2,6.4,0,1-.2,2.2-.3,3.7-.3,4.8-.2,9.6,0,14.3,0,2.2.1,4.4.1,6.5-1.2-.3-2.3-.3-3.4-.3s-1.6,0-2.3.1c-.4-.2-.8-.4-1.2-.6-1.9-.8-3.9-1.1-5.4-1.3-.2,0-.3,0-.5,0-.2-.1-.3-.2-.5-.3-1.3-.9-2.9-2-4.9-2.5-2-.5-4-.7-6-.9-.6,0-1.4-.1-2-.2-2.1-1-4-1.9-5.9-2.1-6.1-.9-10.1-1.3-13-1.2.2-.5.4-1.1.6-1.8.2-1.1.3-2.2.2-3.1.5-.8.9-1.8,1.2-3,.3-1.3.3-2.4.3-3.3,1.6-2.5,2.2-5.2,1.8-7.9.2-.7.4-1.4.7-2.1.4-1.1.7-2.2,1-3.2.5-1.9.4-3.8.3-5.3.4-.9.7-1.7.7-2.2.4-1.8.3-3.4,0-4.8.3-1.5.3-2.9.3-4.1,1.3-2.7,1.2-5.1.9-6.6,0-.1,0-.2,0-.3.1-1.5,0-3.4,0-7.8,0-.4,0-.9,0-1.4.5-.3.9-.5,1-.6.2-.1.3-.2.4-.3.5,0,.9,0,1.2,0,5,.6,8.7.4,11.9.2,2.1-.1,4.1-.3,6.5-.2.3,0,1.1.2,1.6.3,1.2.3,2.6.6,4,.7,2.3.2,5,0,7.9-.1.6,0,1.3,0,2.1,0,.2.3.4.5.6.8,0,.6,0,1.3,0,2,0,1.2.1,2.9.1,4.2-.8,1.4-1.4,2.9-1.6,4.7-.5,3.5.1,6.7,1.7,9.2h0ZM156.7,436.2c-3.5-1.2-6.7-1.7-9.7-1.1-3.5-.6-6.5,1-7.9,1.8-.5,0-1.1,0-1.6-.1-2.4-.2-5.1-.4-7.7.3-.4,0-.9.2-1.5.5-1,0-2.1.2-3.2.6-.8.3-1.8.7-2.8,1.4-1,.3-2.1.5-3.1.8-2.2.6-4.5,1.2-6.5,1.6-1-.4-2-.6-2.9-.7-.3-2.3-.4-4.9-.6-7.6-.2-4-.4-8.1-1.3-12.3,0-.2,0-.5,0-.7.1-1.2.3-3.1,0-5.2.2-.9.2-1.9,0-2.9,0-.3,0-.7,0-1.1.1-1.6.3-3.7-.3-6-.1-.5-.4-1.4-.8-2.3,0-1.5,0-3.4,0-4.9.2-.4.3-.7.4-.9.4-1,.7-2.6.5-4.4.3-1.4.2-2.9-.2-4.3.1-.4.2-.9.3-1.4.2-1.2.2-2.2.1-3.2.8,0,1.6-.3,2.4-.6,1.6.1,3.7.4,5.8.8,1.3.9,2.6,1.4,3.4,1.5,2.3.6,4.4.4,6,.3,2.1.9,3.7,1.6,5.3,1.8,1.3.2,2.6.2,3.6.2.8.4,1.4.6,1.9.7,1.5.4,2.7.5,3.5.6.6,0,.7,0,1.2.2,4.1,1.3,7.8,1.2,10.4,1.1h.4c.2.5.5,1.1.9,1.8v2.1c-.3,2,0,4,.9,5.8,0,1.2,0,2.6.4,4.1.2.7.6,2,1.5,3.3.3,1.8.4,4.1.6,6.3.2,2.3.3,4.6.6,6.8.2,1.6,0,4.2,0,6.6-.2,2.8-.3,5.7-.1,8.6h0ZM155.1,505.6c-1.4,6.5-1.8,13.6-2.3,20.5-.2,3-.4,5.8-.6,8.4-1.6,4.3-1.8,8.6-2,12.4-.1,2.4-.2,4.6-.7,6.4-.8,2.9-1.7,7.1-1.6,11.7h-8.4c-5.2-1.5-11.7-2.3-17.7-2.3s-4.8.1-7,.4c-.7,0-1.5.3-2.4.6-.2,0-.5-.1-.7-.2,0-.7,0-1.4.1-2,.5-1.1,1.1-2.8,1.1-4.9,0-1.7-.3-3.2-.6-4.3.8-1.2,1.7-2.9,2-5.2,0,0,.6-5.8-.6-9.1-.3-1-.9-2.2-1.9-3.3-.2-1.9,0-4.9.1-6.9.2-3.3.4-6.7,0-10-.1-1.1-.5-2.2-.9-3.2.1-1.2.3-2.7.5-3.6.4-2.8.7-4.7.4-6.7,0-.2,0-.4-.1-.6,1-.3,2-.7,3-1.1.3-.1.8-.4,1.3-.5,2.6.4,5.7,0,8.4-2.1.6,0,1.2,0,1.8,0,2.7.1,5.8.3,8.8,0,1.2-.1,2.4-.5,3.4-1,.4,0,.8,0,1.2,0,2.6,1,4.6,1.3,6.2,1.5.2,0,.4,0,.6.1.9.8,2.3,1.6,4.1,2,1.7.4,3.3.5,4.8.4,0,.3,0,.5,0,.7s0,.5-.4,1.9h0ZM490.1,258.6l-1.5,1.5.8-2c.2.1.4.3.6.5ZM484.4,258.2c1-.4,3.3-1.2,5.1,0l-.9,2.1-1,1c-2.2-.3-4.5-.3-6.8-.1.9-1.2,2.1-2.3,3.6-2.9h0Z"/>
      <path class="st0" d="M669.3,568.9c-.5-.6-1.2-1.1-2.1-1.6-.8-1.1-1.4-2-2-2.6-.8-1-1.3-2.2-1.6-3.8,0-.3-.2-.6-.3-1.1.4-1.4.7-3.2.5-5.3-.3-2.9-1.8-5.5-4.2-7-.7-.4-1.3-.8-2.1-1-.3-.3-.6-.5-1-.8-.4-.3-.8-.5-1.2-.7-1.2-1.7-3-3-5.2-3.6-1.5-.4-3-.5-4.5-.3-1.8-1.9-4.1-4.3-4.8-5.1-.5-.7-1.2-1.7-1.8-2.8-1.4-2.2-2.9-4.8-5-6.9-1.2-1.3-2.8-2.5-4.7-4-.7-.6-1.8-1.4-2.5-2,0-.2,0-.4,0-.6-.1-2.2-1-4.3-2.6-5.9-2.2-2.4-4.9-3.3-6.9-3.7-1.1-1.3-1.8-2.1-2.6-2.8-1.3-1.1-2.7-1.8-3.9-2.4-.2,0-.3-.2-.5-.2-.5-.5-1.1-1.2-1.7-1.9-.9-1.1-2-2.4-3.2-3.6l-1.5-1.4c-7.1-6.8-13.8-13.2-20.3-20.5-.5-.5-.9-1-1.3-1.4-2.2-2.5-4.2-4.9-8.6-7.5,0,0-.1,0-.2-.1-.8-2.1-2-4.8-4.9-6.8-2-1.3-4.1-1.8-5.9-2.1l-.5-.8c-1.1-1.8-2.8-3.1-4.7-3.8-.7-.9-1.5-2.2-3.1-3.2-1.4-.9-2.2-1.8-3.4-2.9-1-1-2.2-2.2-3.9-3.5-.3-.2-.6-.5-.9-.6,0,0,0-.2-.1-.3-.5-1.2-1-2.1-1.5-2.9-.2-1.4-.6-2.7-1.3-3.9-1.3-2.1-3.2-3.6-5.5-4.2,0,0,0,0-.2-.1-.9-2.4-2.6-5.4-7.2-7.5-2.3-1-4.3-1.4-6-1.7-.2,0-.4,0-.6-.1-1.4-1.1-2.9-1.5-3.7-1.7-.1,0-.3,0-.4,0-1.3-.7-2.9-1.1-4.5-1.1h-1.4c-2.8-.4-5.2.2-5.6.3-.8.2-2.2.7-3.6,1.7-.4,0-.8,0-1.1,0-2.4-.2-5.3-.4-8.2.3-.8.2-2.3.7-3.8,1.9-1.3.4-2.3.9-3.3,1.5-1.1.8-2,1.6-2.7,2.5-2.1,0-5,.5-7.4,3.2-.9,1-1.5,2.1-1.9,3.4-.3.3-.7.6-.9.7-2.2,1.4-3.7,3.7-4.2,6.3-3.6,5.1-3.1,12.3-2.5,16.4.2,1.5.8,2.8,1.2,3.7,0,.3,0,.6,0,.9-1.4,1.9-2.2,4.1-2.1,6.5,0,1.4.4,2.6.8,3.5-.1,2.1-.2,4.5.6,7,.2.6.5,1.3.9,2-.1.2-.3.5-.4.8-2.8,5.6-2.2,9.7-1.4,13,.2.7.3,1.2.3,1.6,0,.3,0,1.3,0,1.9-.1,1.9-.2,4.1.2,6.4.1.7.3,1.4.6,1.9-.1.4-.3.8-.4,1.3-1.8,7.2-1,14.7-.3,20.6v.2c.3,2.1,0,4.1-.4,6.7-.2,1.4-.4,2.8-.6,4.3-.3,2.9.2,5.4.6,7.4.1.8.3,1.5.4,2.1-.5,1-.9,2.4-.9,4.1,0,2.1.7,3.8,1.5,5-.3.9-.5,1.9-.6,3-.2,2.7,0,6,.2,9.5,0,1.3.2,3,.3,4.2-.6,1.1-1.3,2.6-1.5,4.4-.2,2.2.2,4.1.6,5.5,0,.2,0,.4.1.5,0,1.4-.5,3.1-.8,4.8-.3,1.5-.6,3-.9,4.6-.2,1.3-.2,2.5-.2,3.5-1,.8-2,1.7-2.9,3,0,.1-.1.2-.2.3-.3.2-.6.4-.8.6,0,0,0,0-.1,0-3.3,1.3-5.6,4.4-5.9,8,0,.6,0,1.1,0,1.7-.5,1.2-1,2.4-1.5,3.5-1.3,1.5-1.9,3.2-2.1,4.1-1.1,4.5,0,7.9.7,9.5,0,.1,0,.2.1.4,0,.1,0,.2,0,.3.4,2.8,1.4,5,2.8,6.6,0,.4.1.8.2,1.2.3,1,.8,2.4,2,3.8.1.4.3.8.4,1.1.3.7.7,1.3,1,1.8.3.9.7,1.8,1.2,2.6.2.4.4.9.7,1.3.1.4.2.9.4,1.4.8,2.2,2,4,8.7,10.9.7,1.4,2.1,3.7,4.9,5.3,1.1.6,2.2,1.1,3.1,1.4,0,0,0,.1,0,.2.6,1.7,2.6,5.8,8.4,6.8,1,.2,2.9.3,4.9.3s4-.1,5.2-.4c2.6-.5,4.3-2,5.5-3.3.5-.3,1-.6,1.4-.9.4-.1.7-.3,1.1-.5,2.9,1.5,6.2,1.3,9-.2,2.4-.2,4.3-1.1,5.8-2.1,2.2.1,4.5-.6,6.3-1.9h.5c3.6,0,6.8-2,8.4-5,3-1.6,5-4.8,5-8.3v-2.1c.2-.2.3-.4.5-.6h0c.4,0,.8.1,1.2.2,2.6.2,5.2-.7,7.2-2.5,1.1-1,1.9-2.2,2.5-3.6,0,0,.1-.1.2-.1h0c2-1.2,3.5-2,5.3-2.8,1.2-.5,2.9-1,4.7-1.6,2.1-.7,4.3-1.4,6.3-2.2,1-.4,2.2-.7,3.6-1,1.8-.5,3.9-1,6-1.8.7-.3,1.2-.5,1.7-.8,0,0,0,0,0,0,1.9-.4,3.5-1.3,6-2.9,1.5,0,3.8-.3,6.8-1.6,1.7-.8,3.5-1.8,5.4-2.8,1.9-1,5.3-2.9,6.5-3.2.7-.2,1.3-.3,1.8-.4,1-.2,2-.4,3.3-.8.6,0,1.3,0,2.1,0,.4,0,.8,0,1.2,0,2.2,0,4.7-.9,6.5-2.7,4.3-1.7,9.5-3.1,16.1-4.3,1.1-.2,2.1-.5,3-.9,1.9.6,3.9.6,5.8,0,.7-.2,1.9-.7,3-1.6,2.1,0,4.1-.7,5.8-2,2.1-1.6,3.5-3.4,4.5-4.7,0,0,0,0,.1-.1l2.9-.5c2.8-.5,5.2-2.1,6.6-4.5,1.3-2.2,1.7-4.8,1-7.2.3-.4.6-.8.9-1.3s.5-1,.7-1.5c.7-1.1,1.1-2.2,1.3-3,.5-2.1.5-4.1.3-5.7.3-.7.5-1.3.6-1.7.7-2.8.3-5.6-1-8-.4-1.6-1.2-3-2.4-4.2h0ZM540.2,580.5c-2.1.8-3.8,2.2-4.8,4-.2,0-.4.1-.7.2,0-1.9-.2-3.7-.3-5.6-.3-4.6-.6-8.9-.2-12.5.1-1.1.3-2.2.4-3.3.5-3.6,1.1-7.8.6-12.7-1.1-10.5-.9-21-.7-32.1,0-.3,0-.5,0-.8.3.1.6.2.8.3,1.4,1.3,4.2,4,5.7,5.5,1.3,1.3,2.4,2.4,2.9,2.8,1.4,1.3,2.8,2.6,4,3.9,2.9,2.9,6,5.8,9.7,8.6.3.7.8,1.7,1.5,2.6,2.1,2.6,4.5,4.4,6.6,6,1.4,1,2.7,2,3.6,3,.8.9,1.5,1.7,2.2,2.5,3.7,4.2,6.6,7.6,12.3,12,0,.1.1.2.2.3.1.3.3.5.4.9-1.7.4-3.5,1.1-5.6,2.2-.5.3-.9.5-1.3.8,0,0-.1,0-.2,0-4.5,1.2-9.8,3.5-14.5,5.5-1.6.7-3.1,1.3-4.3,1.9-.5.2-1.2.3-2.1.5-1.2.2-2.6.5-4.2,1h-.6c-2.2,0-4.1.8-5.7,2-1.5-.3-3.5-.3-5.7.5h0Z"/>
    </g>
  </g>
</svg>