<?xml version="1.0" encoding="UTF-8"?>
<svg id="Layer_2" xmlns="http://www.w3.org/2000/svg" version="1.1" viewBox="0 0 896 896">
  <!-- Generator: Adobe Illustrator 29.7.0, SVG Export Plug-In . SVG Version: 2.1.1 Build 138)  -->
  <defs>
    <style>
      .st0 {
        fill: #fff;
      }
    </style>
  </defs>
  <g id="Layer_1-2">
    <path class="st0" d="M835.3,540.7c0-1.3,0-2.7-.2-4.1-.3-2-.8-3.7-1.4-5.1.2-1.6.4-3.4.4-5.3,0-10.6-.8-21.1-1.6-31.3-.5-7.1-1-13.9-1.3-20.6-.1-3.1-.6-6.4-1.2-9.9-.3-2.2-.9-5.8-.9-7.3.7-4,.9-6.2.2-10.3,0-.4-.2-.9-.2-1.6-.3-2.5.5-9.1.9-12.3v-.9c.5-3.5.9-7,1.3-10.5,1.5-12.5,3-25.4,4.8-37.9,0-.4.3-1.8.5-2.7.7-3.6,1.1-5.8,1.2-8,0-2.3-.3-4.3-.8-5.8,0-.7.2-1.5.2-2.3.7-9.2,1.2-18.4.5-28.1-.2-3.1-.7-6.4-1.1-9.6-.3-2.3-.7-4.7-.8-6.6.3-1.5.7-3.9.4-6.7-.3-3-1.1-5.5-2-7.5,0-.8,0-1.7-.2-2.6-.6-3.9-2.3-7.5-4-11-.3-.7-.8-1.7-1-2.1-.3-.8-.5-1.6-.8-2.5-1-3.2-2.2-7.1-4.3-10.9-1.8-3.4-4.2-5.5-6-6.7-3.5-4.6-7.9-7.3-14.2-8.6-6.1-1.2-10.9-.4-13.8.1-.4,0-1,.2-1.3.2-6.6.2-10,1-14.3,2.2-1.2.3-2.5.7-4.1,1.1-13,3-25.4,5.1-35.1,5.9-1.2.1-3.2.1-5.2.1-6.9,0-14.8.1-21.8,3.1-1.4.6-2.5,1.2-3.5,2-2.1-.5-4.4-1-6.9-1.1-3.9-.2-7.1.1-9.7.4-2.3.2-3.8.4-5.5.2-5.1-.6-10.5-1.6-16.2-2.7-5.3-1-10.7-2-16.3-2.8-10.8-1.4-21.7-2.3-32.2-3.1-9-.7-18.4-1.5-27.4-2.5-.5,0-1.1-.1-1.9-.2.9-6,1.4-12.1,1.8-17.1v-.8c.7-1.5,1.2-3.3,1.4-5.2.2-2.1,0-3.9-.1-5.2,2.5-17.2,5.3-35.2,8.1-52.7v-.7c1.4-8.1,2.5-16.5,3.5-24.6.9-7,1.8-14.2,2.9-21.1,1.6-10.4,3-20.9,4.4-31.1,2.2-16.6,4.5-33.7,7.5-50.2.2-.8.3-1.6.4-2.3.2-1.3.4-2.3.6-3.1.7-1,1.5-2.4,2.2-4,.3-.4.6-.8.8-1.3.7-1.1,1.2-2.1,1.5-3.1,2.2-3.5,2.7-7.1,2.7-9.7,0-2.8-.7-5.4-2-7.9-2.6-9.7-5.8-13.4-6.8-14.6-2.3-2.7-6.1-5.8-11.9-6.8-3.3-1.7-9.8-4.6-19.1-1.8-4.7,1.4-8,3.9-10.2,5.6-.2.2-.5.4-.7.5-.4.2-.6.3-.8.4-.7-.2-1.6-.6-2.2-.9-1.9-.8-4.1-1.8-6.6-2.4-2.9-.7-5.5-.8-7.4-.7-2.1-1-5.2-2-9.1-2-3.4,0-6.1.7-7.7,1.2-4,.3-7.3.5-10.5,0-5.5-.7-9.9.5-12.2,1.2,0,0-.1,0-.2,0-2.8-.3-4.4-.3-6.8,0-.4,0-.9,0-1.6.1-1.5,0-2.9,0-4.5,0-2.5,0-5.4,0-9,.4-.2,0-.4,0-.6,0-1.9,0-4.9-.2-8.2.5-1.9.4-3.4,1.1-4.8,1.8-.4,0-.8,0-1.2,0-3.1,0-6.6,0-10.2.5-5.5.9-9.5,1.5-14.1,1.8-6.8.5-13.9,1.2-20.6,1.8-15.5,1.5-31.5,3-46,2.3-1.4-.6-3.5-1.5-5.9-1.9-3.6-.6-7.3-.5-10.6-.3-.7,0-1.3,0-1.9,0-3.7-.7-9.2-1-15.8,3.1-10.9,6.7-11.6,17.9-12,22.6,0,.7-.1,1.5-.1,1.8-.4,2.2-.3,4.4.2,6.6-.4.8-.8,1.7-1.1,2.5-3.4,8.9-3.8,17.4-4.1,24.2-.1,3-.3,5.7-.6,8.2-.9,1.8-1.9,4.2-2,7.2-.1,2.3.2,4.6,1,6.8,0,.3,0,.7-.1.9-.7,5.8-1.5,11.6-2.2,17.4-1.1,8.4-2.2,16.7-3.2,25,0,.5-.1,1.1-.2,1.7,0,.4-.1.9-.2,1.4-.8,1.4-1.5,3.2-1.9,5.3-.7,3.8-.7,7.8-.7,11.8,0,1.8,0,4,0,5-.4,4.5-1,9-1.6,13.7-.5,3.6-1,7.4-1.4,11.2-.6,5-1.3,10-2.2,15.3-.6,3.8-1.2,7.8-1.7,11.7-.5,1.1-.9,2-1.1,2.8-.7,2.5-1,4.6-1.2,6-.4,1.1-.8,2.1-1.1,3.1-.2.5-.5,1.3-.6,1.7-.2.3-.6,1-.8,1.4-2,3.3-4.2,7-4.8,11.7,0,.4-.1.9-.1,1.4-.9.7-1.7,1.4-2.4,2.1-8.1-.4-16.4-1.1-25.1-1.9-9.4-.8-19-1.7-28.5-2.1-4.6-.2-7.6-.7-12.6-1.4-5.2-.8-10-1-14.2-1.1-2.4,0-4.6-.1-6.7-.3,0,0,0,0-.1,0-1.3-.4-3.3-1.1-5.9-1.4-2-.2-3.8-.2-5.3-.2-2-1.2-4.9-2.7-8.8-2.9-3.2-.2-5.8.5-7.5.9-1.1,0-2.7-.3-3.8-.5h-.7c-3.4-.6-6.8-.9-10.1-1.1-3.8-.3-7.8-.6-10.7-1.2-2.8-2-8-5.3-17-5.2-9.5.2-17.4,5.1-21.1,12.5-2.1,2.6-4,6-4.7,7.9-1.8,5.3-.8,9.9-.2,12.4,0,3.2-.2,7.4-.6,11.2-.9,1.8-1.9,4.2-2.3,7.1-.2,2-.2,3.8,0,5.2-.5,1.6-1.3,4-1.8,5.6-.8,2.2-1.5,4.5-2.1,6.6-1.8,6.8-5.8,14-9,19.6-1.6,2.9-3.6,5.7-5.7,8.7-3.1,4.4-6.6,9.4-9.5,15.2-1.9,3.9-4,7.7-6.1,11.8-6.1,11.6-12.5,23.6-16.7,37-.7,2.3-1.3,4.4-1.8,6.4-.9,3.4-1.7,6.3-3,9.2-.7,1.7-1.4,3.3-2.2,4.9-1.5,3.3-3,6.7-4.4,10.3-.6,1.5-1,2.8-1.3,3.9-4,4.2-5.6,10.2-4.2,15.9,0,1.1.1,2.7.5,4.4.9,3.9,2.6,6.9,3.8,8.8.5,3.8,2.2,7.4,4.9,10,0,.5-.1,1.1-.2,1.7-.2,1.6-.4,3.6-.5,5.9-.1,2.5-.2,5-.3,7.5-.6,15.6-1.2,29.1-4,43.8-.8,4.2-2.1,8.6-3.4,13.3-1.4,5-2.9,10.1-4,15.5-.7,3.5-1.5,13.2-.5,18.4,1,5.6,7.2,13.8,7.2,13.9,3.2,4,16.2,16.1,27.6,17.7,3,.4,5.6,0,7.7-.2.1,0,.3,0,.4,0,3.8.5,8.5,1.6,12.9,2.7,3,.7,6,1.4,9,2l.8.2c10.6,2.1,21.6,4.3,32.8,5.5,1.2.1,2.5.1,3.8,0,.4.2.9.3,1.4.4,5.8,1.6,11.8,2,17.7,2.5,3.6.3,7,.6,9.6,1,1.8.3,4.1,1.1,6.6,2,3.8,1.3,8.1,2.8,12.9,3.5,2.2.3,4.2.4,6,.5h.1c1.4.7,3.1,1.5,5.1,1.9,1.2.2,2.3.3,3.4.4,1.7.9,3.9,1.9,6.5,2.3,2.6.4,5.8,1.3,9.2,2.3,4.2,1.2,8.9,2.6,13.9,3.3,2.4.3,4.4.9,7.1,1.6,2.1.5,4.4,1.2,7.1,1.7-.5,1.7-.9,3.4-1.2,5.1-.7,3.3-1.2,6.9-1.7,10.3-.6,4-1.2,8.2-2,11.6-1.8,2.5-3,5.3-3.5,8.4-1.3,7.8-2.6,13.1-5.1,21.1v.3c-5.1,15.6-10.2,31.7-15.5,47.1-2.4,6.8-5,13.8-7.6,20.6-2.9,7.6-5.9,15.5-8.5,23.3-2.1,6.2-2.9,8.2-4.9,10.2-5.3,3-7.7,7.3-8.7,10.5-.3,1-.5,2-.7,3,0,.7-.2,1.4-.3,2-.6,3.8-1.9,11.4,2.9,19,.6,3.2,2.1,6.2,4.4,8.6,1.8,1.9,4,3.4,6.4,4.3,1.1.8,2.4,1.6,3.9,2.4,8.6,4.1,15.1,3.6,19.5,3.3,1.3,0,2.4-.2,3.5-.1,4.9.1,10.5,1.5,16.5,3,3.6.9,7.4,1.8,11.3,2.5,1.2.2,2.3.3,3.2.3.9.4,2,.8,3.2,1.1,13.3,3.3,29.2,4.1,44.5,4.8,6.3.3,12.2.6,17.4,1,3.7.3,7.5.6,11.2.9,28.1,2.3,57.2,4.8,83.8,10.1,2.9.6,5.7,1.3,8.7,2.1,2.4.6,4.8,1.2,7.4,1.8,3.6.8,6.2,1.3,10.1,1.9,1,.2,3.5,1.3,5.1,2.1,2.5,1.1,5.1,2.3,7.8,3.1,1,.3,1.9.5,2.8.7,1.8,1.1,3.8,1.8,6,2.1.9.5,1.9.9,3,1.2.7.2,1.3.4,2,.5,1.3.8,2.9,1.5,4.7,2.1,2.3.7,4.4.9,6,1.1,1.1.6,2.6,1.3,4.4,1.9,7.8,2.5,15.2,3.4,22.4,4.3,4.8.6,9.3,1.2,13.5,2.2,3.5.8,7.3,1.7,11.6,1.7s8.9-.8,14.3-3.4c2.3-1.1,10.1-5.3,12.8-13.4,2.1-6.5,2.3-14.2.5-21.1-.5-2-1.2-3.7-1.8-5.1.3-1.3.5-3,.6-4.9.1-3.1-.4-5.7-.8-7.3,0-.6.1-1.2.2-1.7.2-2,.5-4.3.5-6.7,0-2.4-.2-4.7-.5-6.7,0,0,0-.2,0-.3.6-1.7,1.2-3.9,1.3-6.6.1-3.7-.7-6.5-1.2-8.2-.1-3,.2-7,.6-10.8.2-2,.4-4.2.5-6.2.5-7.2.9-14.5,1.3-21.8.5-8.9,1-18.1,1.6-26.9,0-.8.1-1.6.2-2.4.3-4.2.7-8.9,0-13.8,0-.6.2-1.3.2-1.8,0-.7.2-1.2.2-1.7.7-5.7,1-11.7,1.3-17.5l.2-2.9c.3-4.9.5-9.8.7-14.6.1-3.3.2-6.5.4-9.7,0,0,.2,0,.3,0l2.4.2c2.7.2,5.5.5,8.2.9.5.1,1.7.5,2.4.8,2.2.8,4.6,1.6,7.4,2,2.6.3,4.9,0,6.6,0,.3,0,.6,0,.9,0,1.9.2,4.5.9,7,1.5,2.5.6,5.1,1.2,7.8,1.7,1.5.3,3.4.7,5.4,1,5,1,10.2,2.1,14.8,2.4,1,0,1.4.1,1.3.1.2,0,.4,0,.6.1.8.2,1.7.4,3,.7,2.9.6,5.7.9,8.2,1.2,2.3,1.2,5,1.9,7.8,1.9h1c.3,0,.5,0,.8,0,2.6.8,5.4,1.7,8.6,2.3,1.3.2,2.6.3,3.7.3,1.4.9,3,1.7,4.9,2.4,3.4,1.2,6.8,1.8,9.7,2.2,1.7.3,3.5.6,4.7.9l.9.3c10.1,3.1,19.7,6,32.2,6.2.4.2,1,.4,1.5.5,2.6,1,6.1,2.3,10.3,2.5,1.1,0,2.1,0,3,0,1.6.7,3.2,1.1,4.3,1.3,1.3.2,2.5.3,3.6.2.1,0,.2.2.3.2h.2c2.2,1.7,6.3,3.9,11.9,3.3,2.3,1.5,5.6,3.3,10,3.7.5,0,1.1,0,1.8.2,5.3.5,9.7.8,13.5.3,1.7-.2,3.2-.7,4.5-1.2,3.5-.3,9.2-.9,14.5-4.7,1.9-1.4,3.3-2.9,4.3-4.3,2.3-1.5,5-3.5,7-7.2,2.8-5.2,2.3-10.3,1.8-13.1.4-2.5.8-6.3-.4-10.4-.6-2.1-1.7-4.6-3.9-7,0-1.8.3-4.6,1.2-7.9.1-.5.2-.9.4-1.2.2-.8.5-1.8.8-3,1.1-2,2.5-5,2.7-9,.2-3.2.3-4.4.7-8,.3-2.6.3-5,.2-6.8h0c1-1.9,2.2-4.5,2.5-7.9.2-1.9,0-3.7-.3-5.1.2-.8.3-1.7.4-2.7.2-2.2.3-4.1.4-5.8.2-3.8.4-6.5,1.2-10,.1-.4.3-.8.5-1.1.7-1.9,1.5-3.8,1.9-6.1,0-.6.2-1.1.2-1.7.5-1.7.8-3.2.9-4.4.8-2.5,1.4-4.8,1.9-6.8.4-1.5.8-3,1.2-4.4.2-.5.3-1.2.5-1.9,0,0,0,0,0,0,2.3-2.9,4.5-7.2,4.6-13.9.1-8.9-2.6-17.2-8.1-24.7h0ZM775.1,621.7c-.2.7-.6,2-.8,2.8-.8,2.5-1.5,4.6-1.6,7.3-.1,2.3.2,4.2.4,5.4-.5,3.8-2.5,11.6-5.2,20-3.1-1.2-6.1-2.3-9.2-2.7-2-.3-4.1-.4-6-.4s-3.5,0-5,.2c-.9,0-1.9,0-2.8.1-1.1-.4-2.6-.8-4.3-1-3.7-.5-6.9,0-8.8.3-2.5-.4-7-1.8-10-2.7-2.8-.9-5.5-1.7-8-2.3-4.2-1-8.4-1.8-12.4-2.6-6.1-1.2-11.8-2.3-16.8-3.9-13.3-4.3-27.4-6.1-41-7.9-2.8-.4-5.7-.7-8.4-1.1-3.2-.4-5.3-.8-6.4-1.1-11.9-3.2-25-6.1-35.8-7.9-.7-.1-1.4-.2-2-.3,0-.3,0-.6,0-.8,2.1-3.6,4-8.6,3.2-15.8-.9-8.4-4.4-13.2-7.3-16.4,0-1.9-.2-4.1-.9-6.4-.4-1.3-1-3-2.2-4.8-1.5-4-5-10.3-13.6-13.5-5.9-2.2-12.3-3-17.9-3.8-2.7-.4-5.3-.7-7.4-1.2-2.9-.6-6-1.5-9.4-2.5-4-1.1-8.1-2.3-12.3-3.2-14.1-2.8-31.4-3.2-38.2-3.2-5.8,0-11.9-.4-18.3-.8-4.2-.3-8.5-.5-12.8-.7-2.3,0-4.7,0-7,.2-.4,0-.8,0-1.1,0-1.2-.5-2.5-.8-4-1.1-3.5-.5-7-.2-10.4,0-1,0-2.5.2-3,.2-8.7-.2-17.6-.4-26.2-.7-15.2-.5-30.9-1-46.2-.9-2.9,0-5.8.2-8.7.4-2.7.2-5.4.3-7.7.3h0c-1.8-.7-4.4-1.3-7.5-1.1-1.6,0-2.8.3-3.6.4-.1,0-.3,0-.4,0h-.2c-1.2,0-2.3.1-3.5.4-.4-.4-.9-.8-1.3-1.2-3.5-3-8-4.4-12.5-4-.3,0-.7,0-1-.1-4.1-.5-11.7-1.5-18.6,3.6-2.8,2-4.8,4.5-6.4,6.5-.1.1-.2.3-.4.4-.9.4-2,.9-3,1.7-3.3,2.2-5.4,4.8-6.6,6.4-2.4,1.8-4.2,4.3-5.4,7.1-.7,1.8-1.1,3.6-1.3,5.5-2.4-.9-5.1-2-8.2-2.5-6.4-1.1-13.1-2.8-20.3-4.6-9.1-2.3-18.5-4.7-28.1-6-1.9-.3-3.6-.2-5-.1-1.2-.5-2.7-1-4.5-1.3-2.6-.5-4.9-.4-6.8-.3-.4,0-.9,0-1.2,0-1.9-.3-4.2-.8-6.7-1.3-2.7-.6-5.6-1.2-8.5-1.7-2.7-.4-5.2-.7-7.5-.9-3.3-.3-6.1-.6-9.1-1.4-3.7-.9-7.5-1.4-10.8-1.8-1.7-.2-3.2-.4-4.6-.6-11.2-1.8-21.6-4-31.8-6.6-1.5-.4-3.1-.8-4.7-1.3,0-.2,0-.3,0-.5.4-1.8.8-3.8,1.3-5.8.8-3.4,1.6-6.8,2.2-10.7,1.9-12.8,2.6-25.5,3.1-37.9,1.9.4,3.6.5,4.7.6.9.2,1.9.5,2.9.9,1.9.6,4,1.2,6.3,1.8,2.1.5,4.3.6,6.5.2l1.1-.2c2.3-.4,4.4-1.1,6.4-2.4,1.7,0,5.3.7,7.5,1.1,1.8.4,3.8.8,5.8,1.1,9.3,1.4,18.8,2.7,28.1,3.9,14.2,1.8,29,3.8,43.1,6.4.7.1,1.4.2,2.1.3,1.5.9,2.9,1.4,4,1.8,5,1.5,9.3.9,11.8.5,2.4.3,6.1,1.2,9.2,2,3.1.8,6.3,1.6,9.3,2.1l1.5.3c14.7,2.6,28.7,5,43.9,6.8,2.5.3,5,.6,7.6,1,4.5.6,9.1,1.2,13.7,1.7,5.6.6,11.4.9,17.1,1.1,7,.3,14.2.7,20.2,1.6,1.4.6,3.4,1.4,6.1,1.8,2,.3,3.6.3,4.8.3.9,0,1.1,0,1.5,0,5.2.8,10.4,1.4,15.5,2,5.3.6,10.2,1.2,15.1,2,9.5,1.5,17.5,3,24.6,4.7h.5c1.2.4,2.8.8,4.7,1,6.7.8,13.6,2.1,20.9,3.5,2,.4,3.9.8,5.9,1.1,4.1.8,8.2,1.4,12.1,2,5.5.9,10.8,1.7,15.7,2.8,6.9,1.5,13.7,2.2,20.3,3,2.6.3,5.1.5,7.5.8,2.3.3,4.5.6,6.7.9,6.3.9,12.9,1.8,20.1,2.1,9.1.3,26.4,2.8,34.1,4.9,4.1,1.1,8,1.4,11.5,1.6,2.1.2,4.3.3,5.9.7.1,0,.2.1.3.2,1.4.9,3.5,2.2,6.8,2.8,1.5.3,2.9.3,4.2.3,0,0,.2,0,.3.1,2.4,1,5.1,2,8,2.6,1.7.3,3.3.7,5,1,5.3,1,10.4,2,15.5,3.3,2.4.6,4.8,1.1,7.1,1.6,2.8.6,5.6,1.2,7.9,1.8,2.8,2.1,6.3,3.3,9.9,3.3,2,0,4-.2,5.7-.3.7,0,1.6-.2,2.1-.2.9,0,3,.5,4.4.8,3.9.8,8.3,1.7,13.1,1.6,1.9,0,3.5-.3,4.8-.6,1.7.5,4,1,6.5,1.2,2.7.2,5.2.3,7.4.3,5.1.1,7.7.3,10.7,1.5,1.3.5,3.2,1.8,5.1,3.1.7.5,1.3.9,2,1.3,1.6,1.5,4.6,4.1,9.3,5.2,4.2,1,7.6.2,11.6-.7.4,0,.7-.2,1-.2.4,0,.9,0,1.5-.1,1.8-.2,3.6-.3,5.2-.7,2-.4,3.8-1.2,5.4-2.2,1.2,0,2.5,0,3.7,0,1.7.7,3.8,1.3,6.2,1.6,2.3.2,4.6.4,6.9.5,0,.2,0,.4,0,.6-2.2,12.6-3.6,22.3-4.6,34.9h0ZM447.7,812.8c-4.1-.7-8-1.2-11.8-1.6-2.1-.2-4-.4-6-.7-39.4-5.2-79.6-8.5-118.5-11.6l-7.6-.6c-4.6-.4-8.9-.7-13.1-1.3-1.6-1-3.7-2-6.2-2.4-1.6-.3-3.7-.4-6,0-.4-.1-.9-.2-1.2-.3-1.7-.5-3.2-.8-4.6-1.1-1-.2-2-.3-3.2-.4,1.7-6,3.4-11.8,5.7-17.2,2.2-5.4,3.8-10.8,5.2-15.9.8-2.6,1.5-5.1,2.2-7.6,1.6-5.1,3.4-10.3,5.1-15.4,2.6-7.6,5.2-15.4,7.6-23.2.9-2.9,1.6-6,2.4-8.9.7-2.8,1.4-5.6,2.1-8,1-1.3,1.8-2.8,2.4-4.4,1.1-2.9,1.2-5.4,1-7.4.3-.9.6-1.8.8-2.2,1-2.2,1.9-4.9,2.1-8.1.5-1.1,1.1-2.5,1.5-3.9.7-2.4,1.2-5.1,1.6-7.4.2-1,.4-2,.6-2.9,3.5-16.1,8.1-33.7,13.7-52.4h.2c2.8,0,6,0,9.4-.5,2.7-.4,5.1-1.2,7-1.9.6-.2,1.5-.5,1.8-.6,13.8-2.7,40.6-2.1,55.1-1.7,10.6.3,21.6,1,32.2,1.7,10.4.7,21.1,1.4,31.7,1.7,4.2.1,8.5.1,13,.2,12.4,0,25.2,0,35,2.4.9.2,2.4.7,3.9,1.1,3.4,1,7.2,2.2,11,2.7.6,0,1.2.1,1.8.2,3.1,1.4,6,1.7,8.4,1.6.1,0,.3.1.5.2.6,3.8.9,7,.7,9.8-.6,1.3-1.2,3.2-1.5,5.6-.2,1.5-.2,2.9,0,4.1-.1.3-.2.5-.4.8-1.6,3.6-4.4,9.7-3.8,18.7,0,1,.1,1.7.2,2.4,0,.5,0,.8,0,1.1,0,.2,0,.6-.2,2.2-.7,6.1-.7,11.9-.7,17.4,0,4.4,0,8.6-.4,12.3-.5,5.1-.8,10.2-1.1,15.2-.2,4.5-.5,8.7-.9,12.7-.1,1.6-.1,3,0,4.3-.2.8-.4,1.6-.5,2.5-.3,3,0,5.5.4,7.3,0,.2,0,.3,0,.5-.5,3.9-.7,7.8-.9,11.4-.1,2.5-.3,4.9-.5,7.2-1.1,11.6-2.1,24-3.1,38.9-.1,2.1,0,4.2,0,5.8,0,.6,0,1.5,0,1.9,0,.4-.2.8-.3,1.3-.5,1.9-1.1,4.5-1.3,8.2-.4,5.9-.2,11.2-.1,16.3,0,4.2.2,8,0,11.8-7.1-1.2-16.7-4.8-24.5-7.7l-2.9-1.1c-10.5-3.9-22.9-8.2-35.1-10.8h-.4c-.6-.2-1.3-.4-2.1-.5-1.4-.5-2.8-.9-4.3-1-.8-.2-1.9-.5-3.1-.8h0ZM118.4,425.6c.8-2.2,1.3-3.2,1.4-3.4,1.8-2.9,2.9-5.7,3.2-8.6,1-1.7,2.1-3.8,2.8-6.4,1.9-7.1,2.9-11,5.7-17l.3-.7c0-.2.2-.4.3-.6-1.6,4.4-2.8,8.8-4,12.9-.6,2.2-1.2,4.3-1.8,6.3-.7,1.1-1.4,2.4-2,4-1.5,4.4-2.6,9.9-3.4,17.1-1.1-.7-2.2-1.3-3.2-1.8.2-.7.5-1.4.7-1.8h0ZM217.5,325c.9-2.7,1.8-5.8,2.5-8.7.7-2.5,1.6-6.2,2.5-8.6,2.6-2.8,3.7-5.9,4.2-7.8.2-.7.3-1.4.4-2,.5-.8,1.1-1.7,1.6-2.4,1.1-.9,1.9-1.9,2.6-2.9,5.6.5,11.1.4,16.5.2,5-.1,9.8-.2,13.7.2,4.6.5,8.9.7,13,1,5.2.3,10.2.6,15.3,1.4,4.5.7,8.8.4,12.3.1,1,0,2.4-.2,3.3-.2,0,0,0,0,0,0,4.1,1.5,6.6,1.5,11,1.4,3.4-.2,7.5.3,12.2.9,1.2.1,2.5.3,3.8.5,7,.8,13.7,1.2,21.2,1.6l5.3.3c21.3,1.1,43.3,2.2,64.2,4.7,4.5.5,8.2,0,11.1-.4,2.1.9,4.9,1.9,8.3,2,1.9,0,3.9,0,5.8,0,1.3,0,2.6,0,3.6,0,4.1,0,8.2,0,12.2,0,10.7,0,20.7,0,30.2,1.4,1.9.3,3.6.5,5.2.7,1.6.9,3.7,1.9,6.3,2.4,2.4.5,4.8.6,6.9.7.6,0,1.5,0,1.9.1,1.4.2,2.9.5,4.3.8,6.5,1.2,13.8,2.5,22,1.8,0,0,.1,0,.2,0,1.8.8,4,1.6,6.5,1.9,7.3,1,12.7-1,15.5-2,.3-.1.7-.3,1-.4,2.1-.1,5.7.6,8.9,1.2,2.2.4,4.5.9,7,1.2,9.5,1.3,19.2,2.3,28.5,3.3,16.7,1.8,32.5,3.5,48.2,6.5,4.6.9,9,1.5,13.3,2.2,1.8.3,3.5.5,5.3.8,2.2,1.6,5.9,4.3,11.3,4.7,1.1,0,2,0,2.9,0,1.4.4,3.2.8,5.4.8,3.9,0,7.7-.6,11.4-1.3,1.7-.3,3.9-.7,4.9-.8,2.2-.1,4.2,0,6.5.3,0,.4.1.9.2,1.3.4,2.3,1,4.2,1.5,5.8,0,.3.2.6.3.9,0,.9,0,2.4,0,3.6,0,9.7.2,13.9,1.6,17.6.5,3.5-.1,13.3-.3,17.1,0,1.5-.2,2.9-.2,3.9-.5,10.7-1.3,21.9-2,32.7-.5,8-1.1,16.4-1.6,24.5,0,.6,0,1.3,0,1.8-.4,1.1-.7,2.4-.8,3.7-.7,5.5,0,10.9.5,16.1.3,3.2.8,7.5.5,9.3-.2,1.1-.3,2.2-.2,3.4.2,7.5,1.1,15.1,2,22.5.9,8,1.8,16.2,1.9,23.6-7-.6-14-1-20.8-1.3-9.6-.5-18.7-1-27.7-2.1-12.3-1.5-24.4-4.5-37.1-7.8-8.1-2.1-16.5-4.2-25.2-5.9-14.5-2.9-28.7-4.5-42.5-6.1-2.8-.3-5.7-.6-8.5-1-6.4-.8-13-1.5-19.4-2.1-6.7-.7-13.7-1.5-20.5-2.3-1.9-.2-3.7-.3-5.3-.3-.7,0-1.8,0-2.3,0-1.4-.3-3-.7-4.7-1.1-2.5-.6-5.4-1.4-8.4-1.9-5.5-.9-11.1-1.8-17-2.8-12.4-1.9-25.1-3.9-36.6-6.5-26-5.9-52.4-8.1-78-10.2-8.6-.7-17.5-1.5-26.1-2.3-8.9-.9-18.5-2.3-27.8-3.7l-7.6-1.1c-6.5-.9-12.7-1.8-18.5-3.1-4.1-.9-8.2-1.3-11.7-1.7-3.6-.4-7.1-.8-9.7-1.5-3.4-1-6.4-1.5-9.1-1.9-1.9-.3-3.8-.6-4.7-.9-4.6-1.7-9-2.2-12.5-2.5-1.3-.1-2.7-.3-3.4-.4-.4-.1-1.4-.4-2.2-.7-1.9-.6-4.2-1.3-6.7-1.8-15.8-3-33.4-6.4-51.4-7.9.2-1.5.6-3.1.9-4.8.6-3.2,1.2-6.4,1.6-9.9,0-.5.1-.9.1-1.1,0,0,0-.1,0-.2.3-.9.9-2.3,1.5-4.4.7-2.3,1-4.2,1.3-5.7,0,0,0,0,0,0,1.4-1.6,2.9-3.9,3.8-6.9.9-3.1.9-5.9.9-7.6.6-1.9,1.9-4.8,2.8-7.1.9-2.3,1.9-4.7,2.7-6.8,4-10.9,7.6-19.9,11.4-28.3,1.6-3.4,3.4-6.9,5.3-10.6,3.5-6.6,7.1-13.5,9.7-21.2h0ZM378.2,174.4c2.9-25.5,6.4-51.5,9.7-76.6,1-7.1,1.9-14.2,2.8-21.3.1-1.1.3-2.3.4-3.6,0-.4.1-.9.1-1.4,1.2-1.9,2.6-4.5,3.2-7.7,1,0,2.5.1,4,.2,2,.2,4.3.3,6.8.3h.1c21.1,0,42.3-2.5,62.8-4.9,7.6-.9,15.4-1.8,23-2.5,2.6-.3,5.5-.6,8.6-1,10.6-1.2,28.2-3.2,36-1.6.2,0,.4.2.6.2,1.4.6,3.4,1.5,5.9,2,3.4.8,6.7,1.1,9.6,1.4,2.1.2,4,.4,5.5.7.2,0,.5.2.7.3,1.4.6,3.1,1.3,5.1,1.9,0,.7-.2,1.3-.2,2-.2,2.3-.5,4.7-.7,7.1-.9,8.8-1.7,17.9-3.5,26.1-.4,2-.5,3.8-.4,5.3-.5,1.3-1,2.8-1.3,4.6-.6,3.6-.7,7.2-.9,10.7-.1,2.8-.2,5.8-.6,7.8,0,.1-.1.2-.2.4-.7,1.6-1.6,3.7-2,6.3-.5,3.1-.1,5.7.2,7.4-1.2,7.7-2.4,15.7-3.5,23.4-2.2,14.9-4.5,30.3-7.1,45-.5,2.9-.6,5.5-.7,7.6,0,.5,0,1.1,0,1.6,0,0,0,0,0,.1-.9,2.1-2.2,5-2.5,8.6-.8,8-1.8,15.9-2.8,23.2-1.8.6-3.7,1.4-5.5,2.6-2.3,1.6-3.9,3.4-5.2,5.3-12.1-.2-23.8-.9-34.7-3.6-4.3-1.1-8.7-2.3-13.4-3.6-7.6-2.1-15.4-4.3-23.4-5.9-15.2-3-30.5-3.6-45.5-3.6s-10.4,0-15.5.1c-8.3.1-16.1.2-23.8,0-.4-.1-.9-.3-1.4-.4.4-2.4.8-4.7,1.1-6.8.3-1.8.5-3.4.8-4.9,3.2-18.8,5.6-35.6,7.6-53h0ZM784.6,365.3c-.9,2.1-2.5,5.9-2.7,12-.3,11.6-1.4,23.1-3,31.3-5.1,25.9-3.8,44-2.2,66.9.2,2.2.3,4.4.5,6.7,0,.4,0,1-.1,1.5-.2,2.4-.5,4.8,0,7.6.3,2,.9,3.6,1.6,4.9.2,3.3.3,8.3.3,11.5,0,1.6,0,3.1,0,4.4,0,4.2.2,9.6,0,15.2-.9,0-1.8,0-2.7-.1-.5-19.9-2.3-40-4.1-59.6v-.7c-.3-2.2-.9-4.2-1.4-5.6.3-1.5.6-3.5.6-5.7,0-2.8-.3-5.5-.6-7.9-.2-2.1-.5-4.1-.5-5.8.2-12.8.4-26.3,1.6-38.8,2.1-22.7,1.9-46.9-.8-78.4,0-.6-.1-1.2-.2-1.9,0-.3,0-.7,0-1.1l4-.8c1.3-.2,2.6-.7,3.8-1.2,1-.5,2.1-.8,3-1,1.6,3.7,1.9,8.4,2.3,15.4,0,1.6.2,3.3.3,4.9,0,1.4.2,2.8.3,4.2.6,8.1,1.2,15.2,0,22h0Z"/>
  </g>
</svg>