<?xml version="1.0" encoding="UTF-8"?>
<svg id="Layer_2" xmlns="http://www.w3.org/2000/svg" version="1.1" viewBox="0 0 772.2 772.2">
  <!-- Generator: Adobe Illustrator 29.7.0, SVG Export Plug-In . SVG Version: 2.1.1 Build 138)  -->
  <defs>
    <style>
      .st0 {
        fill: #fff;
      }
    </style>
  </defs>
  <g id="Layer_1-2">
    <path class="st0" d="M772,412c-.2-1.3-.6-2.6-1.2-3.7-.3-5.2-.3-15.2,0-20.4.6-1,.9-2,1-2.5.7-2.9.3-8.7.2-9.3-.1-1.2-.5-2.3-.9-3.2.2-1.7.1-3.6,0-6.3,0-.3,0-.7,0-1,.5-1.1.9-2.3,1-3.6v-.9c.2-2.2-.5-4.3-1.8-6,0-1.3,0-2.8-.3-4.5,0-.2-.2-.6-.3-.9.1-.4.2-.9.3-1.4.6-1.1,1.1-2.6,1.2-4.4,0-1.4-.2-2.9-1-4.4,0-1.1,0-2.3-.1-3.5-.2-1.1-.4-2-.5-2.9-.2-.8-.3-1.4-.4-1.9.5-1,.8-2.1,1-3.3.8-6.1-.4-13.7-1.1-17.7-.2-.9-.5-1.8-.8-2.4,0-1,0-2.4,0-3.4,0-3.4,0-5.7,0-7.5.2-2.1.3-5.1.3-10.1,0-1.6,0-9.5-.3-11.8-.1-1-.4-2-.8-2.9,0-.9,0-1.9-.2-2.9.4-1.7.4-3.4-.2-5.1-.1-.4-.4-1-.7-1.6,0-.5,0-1.1-.2-1.6-.5-2.7-.7-5.3-.8-7.3,1.3-2.9,1.1-5.4.6-7.1-.3-1-.8-1.9-1.4-2.8,0-4.1-.4-9.4-1.1-11.6-.3-.8-.3-.9-.4-1.8,0-.4-.2-.9-.3-1.6-.2-1-.5-1.9-.8-2.6,0-1.4-.3-2.7-.9-3.9.2-2.4.2-4.7,0-7-.2-1.3-.6-2.5-1.2-3.6,0-.8,0-1.6,0-2.5,0-3.2,0-6.9-.9-10.5,0-.2-.2-.6-.3-.9,0-.2,0-.3,0-.5v-.2c-.4-8.2-.7-14.1-2.8-22-.2-.7-.2-1.2-.3-2.1,0-1.1-.2-2.4-.5-4-.1-.5-.3-1.1-.7-1.9.1-1.8.2-4-.5-6.3-.3-1.2-.9-2.1-1.4-2.9,0-.5,0-.9,0-1.4-.2-2.3-1.2-4.3-2.7-5.8-.2-.4-.4-.8-.6-1.1,0-.7,0-1.6-.3-2.5-.1-.6-.4-1.5-1-2.5.1-1,.3-2.2.5-3.1.5-2.9,1.1-6.1.6-9.6-.3-2.4-1.9-6.4-2.5-7.5-.3-.7-.8-1.3-1.2-1.9,0-2.2-.2-4.8-.7-6.3-.3-1-.8-1.9-1.5-2.7-1.6-2-3.5-3.1-5.2-3.8,0,0,0,0,0,0-.5-1-1.2-1.9-2.1-2.6-.5-.8-1.5-2.1-3.2-3.2-.7-.4-2.4-1.2-4.6-1.2-1.4-.7-3.1-1.1-4.7-1-.8,0-1.6.2-2.3.4,0,0,0,0-.2,0-1.8-.6-3.7-1.3-5.7-1.4-1.7,0-3.3.3-4.8,1-1.4,0-3-.2-4.7.2-.9.2-1.8.5-2.6.9-3-.5-6.2.5-8.2,2.8-.7,0-1.6.2-2.6.6-3.2,1.1-4.6,3.3-6.2,5.8,0,0,0,0,0,0-1.3-.3-2.8-.4-4.5,0-.8.2-2.2.6-3.5,1.6-.4,0-.9,0-1.5,0-1.3,0-3,0-4.9.2-1.3.2-2.5.6-3.6,1.2-.4,0-.7,0-1.1,0-1.9,0-4.3,0-7.5.7-.1,0-.3,0-.4,0-1.4-.1-3.3-.3-5.4.2-.5.1-1.3.4-2.2.8-1.1,0-2.3-.3-3.7-.5-3.2-.5-6.9-1.1-11-.6-1.2.2-2.4.5-3.4,1.1-.8,0-1.7,0-2.5-.1-2.5-.1-5.2-.3-8,0-1.1.1-2.1.4-3,.9-.4,0-.9-.2-1.3-.3-2.5-.5-6-1.3-9.9-.4-.4,0-.9.2-1.5.5-3.5-2.1-7-2.1-10.2-1.7-1.4.2-2.7.6-3.8,1.3-.5,0-1.1,0-1.5,0-2.3.1-4.8.2-7,.8-.7.2-1.8.5-3,1.3-3.2.4-7.8.6-10.9.6-1.1-.6-2.3-1-3.6-1.2-3.9-.5-8-.2-11.9,0-3,.2-6.1.4-8.3.1,0,0,0,0-.1,0-1.5-.6-4.8-1.9-9.2-.8,0,0-.2,0-.2,0-.4-.1-.9-.2-1.4-.3-3.2-.4-13.1-.5-17.9-.1-1.3-.6-2.8-.9-4.3-.8-1,0-2.5,0-4-.1-2.4-.1-5.1-.3-7.8,0-1.2.2-2.4.5-3.4,1.1-3.5,0-9.8-.3-13.3-.6-1.2-.7-2.5-1.2-4-1.4-3-.4-5.3,0-7,.5-.7-.2-1.4-.4-2.1-.5-2.1-.3-4.1-.1-6,0-.2,0-.5,0-.8,0-1-.5-2.1-.9-3.3-1-1.9-.2-6.2-.2-8.1,0-.3,0-.6,0-.9.2-.8-.2-1.5-.4-2.1-.5-.5-.1-1-.3-1.4-.4-1.7-.4-3.4-.4-4.8-.3-1-.5-2-.8-2.9-.9-2.5-.3-4.5.4-5.9,1-.6,0-1.2,0-1.7-.1-1.9-.1-4-.3-6.1,0-.7,0-1.4.3-1.9.4-.6-.2-1.3-.4-2-.5-7.1-.9-15-.5-22.5,0-6.1.4-11.9.7-16.9.3-1.1-.7-2.4-1.1-3.8-1.3-3.3-.4-6.6-.2-9.8,0-2.1.1-4.2.3-5.8.2-1.2-.4-2.4-.6-4-.7-1.5-.1-3-.2-4.5-.4-5.2-.4-10.5-.9-15.6-1-3.2-.1-6.6,0-9.9.2-3.4.1-7,.3-9.8.1-1.5-.9-3.7-1.8-6.6-1.7-2.6,0-4.6.9-5.8,1.6-1.1,0-2.6,0-3.9,0-1.3-.9-2.7-1.3-3.8-1.5-3.6-.7-7.5-.4-11.3-.2-1.5.1-3.1.2-4.4.2-1.1-.6-2.2-1-3.5-1.1-3.7-.5-6.9.2-9.2.6-.4,0-.9.2-1.3.3-1-.4-2.5-.9-4.4-1-2,0-3.7.4-5,.8-.3,0-.8.2-1,.3-.5-.2-1.3-.6-1.8-.9-1.8-.9-3.3-1.6-5.2-1.9-2.4-.3-4.1.3-6.8,1.3-.5.2-1.1.4-1.6.6-.5,0-1.1-.2-2.1-.4-2-.4-4.7-1.1-8-.7-1.4.2-2.6.5-3.4.8-1-.2-2.4-.5-3.4-.7-1.9-.4-3.7-.8-5.3-1-2.1-.3-4-.2-5.7.2-1.3-.5-2.5-.9-3.9-1.1-2.3-.3-4.4-.2-6.3,0-.8,0-1.9.1-2.5,0-2.6-1.4-5.6-1.5-8.3-.2h0c-.9-.3-2.1-.6-3.5-.8-2.6-.4-4.8-.4-6.6-.4-2,0-3.4,0-5.2-.4-2.3-.5-4.5-.4-6.3-.3-1-.5-2-.8-3.1-.9-2.8-.3-9.6-.3-12.5,0-.2,0-.4,0-.6,0-3.6-1.6-7.2-1.1-9.2-.7-.4,0-1,.3-1.7.6-.8-.2-1.6-.6-2.1-.8-4.9-2.2-11.2-2-17.3-1.8-2.7,0-5.7.2-7.3,0-3.1-.4-6.1-.5-8.8-.6-1.8,0-3.5,0-4.9-.2-1-.6-2.6-1.4-4.7-1.6-5.1-.6-21-.8-26.4,0-.3,0-.6.1-.9.2-.6-.1-1.3-.2-2.1-.2-1,0-1.9.1-2.7.3-.5-.1-1.1-.2-1.7-.3-3.3-.3-17.8-.7-22.3.1-1.1.2-2.8.7-4.4,2-.8.1-1.6.2-2.4.4-1,.2-2.8,0-4.6,0-2.4-.1-5.1-.3-7.8,0-4,.5-7,2.6-9.2,4.2-.5.4-1.2.9-1.6,1.1-.2,0-.6.1-.9.2-2.6.5-8.2,1.6-10.8,7.2-.5,1.1-.8,2.2-1.1,3.3-.2.1-.4.3-.6.5C-1,120.2,0,125.9.4,127.8c.2.9.3,2.2.4,3.4.1,1.8.3,3.6.7,5.2.1.6.4,1.4.9,2.4.2.8.4,1.7.8,2.6,1.4,3,3.9,4.5,6.1,5.9.3.6.6,1.2,1,1.8,1.6,2.2,3.5,3.4,4.9,4.1.5.6,1.2,1.3,2.2,1.9,0,.9.1,1.6.2,2.2.2,1,.6,1.9,1,2.7-.3,1.4-.4,2.9,0,4.5.6,3,2,5.4,3.6,7.4,0,1.3,0,2.8,0,4.6,0,2,0,6.9.2,8.6,0,.5.2,1,.3,1.5-.1.4-.2.9-.3,1.4-.2,1.8-.2,3.2-.2,4.4,0,.9,0,1.4,0,1.8,0,0,0,0,0,0-.9,1.1-1.8,2.2-2.3,4.1-.6,2.1-.5,4.1.1,6-.2.5-.5,1.1-.7,1.7-.8,2.1-1,4.3-1.2,6,0,.5-.2,1.3-.2,1.6-.1.3-.4,1-.6,1.4-.7,1.7-1.5,3.4-1.8,5.2-.4,2.2-.6,4.5-.7,6.8,0,1.2-.2,2.4-.3,3.4-.3,1.1-1.5,4.2-2.2,6.1l-.2.4c-1,2.4-2.3,5.3-1.3,8.8.1.5.4,1.2.8,2,0,1.4-.2,3.1-.5,4.9-.8,1.2-1.2,2.4-1.4,3.1-.7,2.9-.5,6.1-.3,9.1,0,.6,0,1.2.1,1.9-.5,1-.9,2.1-1,3.3-.4,3.3-.4,12,0,15.3.2,1.3.6,2.5,1.1,3.6,0,1.3,0,2.9-.2,4.4-.1,2.8-.3,5.6,0,8.5,0,.4,0,.8.2,1.1-.6,2.2-1.1,4.5-1.2,5.8-.1,1.9.3,3.7,1.2,5.3,0,1.4-.1,3.1-.2,4.7-.2,3.4-.4,6.9,0,10.4,0,.6.2,1.1.3,1.6-.1.6-.3,1.2-.4,2-.6,5.4-.7,20.1,0,25.7,0,.3.1.8.2,1.2,0,.4-.2.7-.2,1.1-.8,5.5,0,10.9.8,15.3-.4.8-.7,1.8-.9,3-.7,5.7-.6,11.4-.5,17,.1,5.5.2,10.7-.4,15.7-.5,4.1.1,6.6.9,8.8,0,.2.1.4.2.6,0,.6,0,2.2-.1,3.3-.2,2.2-.3,4.6,0,6.9.2,1.3.6,2.5,1.1,3.5v.5c-.8,1.3-1.2,2.8-1.2,4.4v1c0,.6,0,1.3.2,1.9-.9,4.7-.2,9.1.4,12.9.2,1.5.4,3,.5,4.2-.5,1-.9,2.1-1,3.3-.4,2.7,0,4.9.5,6.5-.1.5-.3,1.1-.4,1.7-.5,4.2-.7,15.5-.1,20.1.2,1.3.6,2.5,1.1,3.5,0,1.6,0,3.7,0,5.1-.5,1-1.1,2.5-1.2,4.4,0,1,.1,2,.4,3-.4,1.7-.7,3.8-.4,6.1.2,1.3.6,2.5,1.1,3.5,0,2,0,4.8,0,6.8-.6,1.1-1,2.3-1.2,3.6-.2,2-.3,3.6-.3,4.8,0,1.5,0,2.2-.4,3.8,0,.3-.1.5-.2.8-.3.5-.5,1.1-.7,1.7-.7,2.4-.4,4.9.7,7,0,.2,0,.5-.1.7-.4,2.8-.2,5.1.2,7-.6,3.3-.4,6.6-.2,9.4,0,.8.1,1.5.1,2.2-.5.9-.7,1.7-.9,2.3-1.2,5,0,10,.9,14,.3,1.1.5,2.3.7,3.2-.3.8-.7,1.8-.9,3.1-.6,4-.3,10.3,1.5,15.3,0,.2.2.4.2.6-.5,1.1-1.3,2.8-1.7,5-.2.9-.2,1.8-.2,2.6-1.9,2.8-2.1,6-1.9,7.9.2,2.1.8,3.7,1.3,4.6.2.8.3,1.6.5,2.3,0,.4.2.8.2,1.1,0,.3,0,1,0,1.5-.1,1.8-.3,3.9.2,6.2.1.7.3,1.3.6,1.8-.3,2.3,0,5.2,2.7,8.2.3.8.7,1.7,1.4,2.5,2.7,3.6,7,5.5,10.4,7,.8.3,1.6.7,2,1,.5.3.8.5,1.1.7,1.2.9,2.3,1.5,3.9,2.1,1.4,1.1,2.8,1.6,3.6,1.8,2.3.5,4.4.4,6.1.2h0c1.8.8,4.3,1.4,7.7.9,1.3-.2,2.6-.6,3.7-1.2,2.3-.1,5-.2,7.7-.1,4.3,0,8.8,0,12.8-.6.8-.1,1.5-.3,2.1-.5,2,.6,5,1.2,8.6.3,0,0,.2,0,.2,0,1.5.3,3.4.6,5.8.2,2.1-.3,3.9-1.2,5.5-2.6.4-.2.8-.4,1.2-.6.4-.2.7-.5,1-.7,1.7,0,4.2,0,5.9.1,3,.1,5.8.2,8.2,0,4.2-.5,8.6-.5,13.2-.4,4.8,0,9.9,0,14.8-.5,1.5-.2,2.8-.7,3.8-1.1,1.8.6,4.7,1.6,8.3,1.1,1.6-.2,3-.8,4.2-1.6,5.8-.2,19.2,0,24.7,0,3.3,0,5.7,0,6.8,0,1.5,0,3.1,0,4.7,0,6.3,0,12.8.1,18.7-1.2,1.5-.3,2.6-.9,3.7-1.8h.1c1.5.1,3.3.2,5.1,0,1.2-.2,2.4-.5,3.4-1.1.6,0,1.3,0,1.9,0,1.9.1,4.1.2,6.4,0,1.8-.2,3.5-.8,4.9-2,.4,0,.9,0,1.3,0,2.2.1,4.6.3,7.1,0,.7,0,1.9-.3,3.1-.9,8.4,0,16.8,0,25,0,17.4,0,35.4-.1,52.6.7,3.9,1.7,7.8,1.4,10.5,1.3.9,0,1.8-.1,2.4,0,.6.2,1.6.6,2.1.8,1.8.7,2.8,1,4,1.2,1.1.2,6,.4,8.4-.2.5-.1,1.4-.4,2.3-.9.6,0,1.3,0,2,0,1.3,0,2.6.1,4,.1,5,2.4,10.3,2.1,14.4,1.8.8,0,1.6-.1,2.4-.1.9.5,1.8.8,2.3.9,0,0,9.3,1.7,12.6.9.2,0,.4,0,.5-.2.2,0,.5.1.7.2,2.2.5,4.2.4,5.8.2,0,0,.2,0,.2,0,1,.5,2.5,1.2,4.3,1.4,5.2.7,10.7.3,16,0,4.3-.2,8.4-.5,11.7-.2,1,.5,2.6,1.2,4.7,1.2h0c.8,0,1.6,0,2.2-.3.3,0,.5.1.8.2,5.4.8,10.8.9,16,1.1,5,.1,9.7.3,14.2.9,2.8.4,9.9.4,12.5,0,.2,0,.4,0,.6,0,1.2.5,2.1.9,3.3,1,3.3.5,6.2-.2,8.1-.7.2,0,.5-.1.7-.2,2.4,1.2,5.2,1.2,7.6.2,1.8.5,4.4,1.1,7.6.7.3,0,.6,0,1-.2.3,0,.7.1,1,.2,4.2.5,8.6.3,12.8,0,2.6-.2,5.3-.3,7.6-.2,1.4.7,2.9,1.2,4.6,1.3,2.5.1,4.5-.3,6.2-.7.4,0,.8-.2,1.1-.2,1.5,1,2.8,1.6,4.6,1.9,5.6.7,11.7.4,17.5,0,4.2-.2,8.3-.5,11.8-.3,1,.6,2,.9,2.6,1,2.2.5,4.3.3,5.8.2.2,0,.6,0,.8,0,3.8.8,7.7.9,11.1,1,3,0,5.9.2,8.2.7s4.5.6,6.7.6c.8,0,1.6,0,2.3,0,1.3.8,2.7,1.3,3.9,1.5,1.5.2,2.8,0,4-.3,1.1.3,2.3.5,3.8.3.6,0,1.1-.2,1.6-.3.3,0,.6,0,.9.1,3,.3,10.9.7,14.7.1.2,0,.3,0,.5,0,1.1.2,2.2.3,3.1.2.9.5,1.8.9,2.5,1.1,1.6.4,7,1.7,9.5,2.1,3.2.5,6.3.3,9,.2,1.9,0,3.8-.2,5.2,0,1.3,1,2.6,1.4,3.3,1.6,1.7.4,3.2.4,4.4.3,2.4,1.2,5.3,1.4,8.4.6.4-.1,1-.3,1.7-.6,2.5.2,5,0,5,0,.5,0,1.2-.2,1.9-.4,1.1.7,2.4,1.1,3.7,1.3,2.2.3,4,0,5.3-.4.3,0,.5.2.8.2.5.5,1.1,1,1.7,1.5.6.4,1.2.7,1.7.9,1.7,1.2,3.8,1.8,6,1.7h.7c.7,0,1.3-.2,1.9-.4,2.2.7,4.1.6,5.6.2.5.2,1,.4,1.5.5.1,0,.3,0,.4.1,1,.3,2,.5,3,.5s2.3-.2,3.3-.6c1.4-.6,3.5-1.8,5-4.2,2.9-1.9,7.8-5.5,9-9,0-.3.2-.5.2-.8.3-.2.7-.4,1-.6,3.2-2.1,8.7-8.8,10-10.9.4-.6.7-1.2.9-1.8,1.6-1.7,2.5-3.9,2.5-6.3,0-.2,0-.3,0-.5,2-3.8,2.2-11.4-.6-15.1-.7-1-1.6-1.7-2.5-2.3-.3-1.5-.9-2.6-1.6-3.6,0-.9,0-1.8-.3-2.9,0-.4-.3-1-.6-1.7,1-2.3,1.3-4.9.5-7.7-.1-.5-.3-1.1-.8-1.9.5-1,.9-2.1,1-3.3.3-2.1.3-3.9.4-5.5,0-.8,0-1.5,0-2.2.9-1.4,1.2-2.6,1.3-3.2.5-2.7,0-4.9-.7-6.3,0,0,0-.1,0-.2.9-1.3,1.3-2.5,1.5-3.2.7-2.8.5-5.2.4-7,0-1.7,0-2.3.2-3,1.6-4,1.5-7.6,1.4-10.6,0-.9,0-1.7,0-2.4.4-.8,1-2.1,1.2-3.8.8-5.1.8-10,.8-14.7,0-3.7,0-7.1.4-10.4.5-4.4.6-8.6.8-12.6.1-4.3.2-8.3.8-12.1.7-1.2,1.4-2.9,1.4-5.1,0-.3,0-.6,0-1,0-1,0-2-.3-3,0,0,0-.1,0-.2.8-1,1.6-2.2,2-3.9.6-2.5.2-4.9-.9-7,.5-1,.9-2.2,1-3.4.6-4.7.3-9.6,0-14.4-.2-4-.4-7.7,0-10.9.2-1.9-.2-3.8-1.2-5.4.5-1,.9-2,1.1-3.2.2-1.5.2-3,0-4.4.8-4.1,1.6-12.5,1-17,0-.5-.2-.9-.2-1.3.6-1.1,1-2.1,1.2-3.5.3-2.1.3-6.9,0-9.1h.1ZM717.2,378.1c0,0,0,.1,0,.2-.2,1.1-.2,2.1-.2,3-1.4,2.7-1.2,5.2-.8,6.8.3,1,.8,2.5,1.9,3.9,0,2.4,0,5.4,0,7.3-.9,1.8-1.5,4.4-1.1,7.9.2,1.3.6,2.5,1.2,3.6.1,4-.3,9.1-1,11.9-.6,2.6-.3,8.3-.2,9.4.2,1.2.5,2.4,1.1,3.5v1.7c-.3.5-.5,1-.6,1.5,0,.2-.1.4-.2.6-.7,2-2,5.3-1,9.1,0,.2.1.5.2.7-.8,2.5-.9,5-.5,7.3,0,.3,0,.6,0,.9-.1,2.5.5,4.4,1.1,5.7,0,.4-.1.8-.3,1.6-.2.9-.5,2-.7,3.4-.5,3.7-.3,7.5,0,11.2,0,1.2.1,2.4.2,3.5-1.5,1.9-2.3,4.3-2,6.7,0,.2,0,.4,0,.6,0,1.3-.2,3.1.2,5.1.1.6.4,1.5,1,2.5,0,2.2,0,5.3,0,7.5-.5,1-.8,1.9-1,2.4-.5,2-1.6,11.9-1.1,15.3.1.9.4,1.7.6,2.4-.1,1.9-.3,4.9-.5,7-1.1,1.8-1.5,3.6-1.7,5.2-.3,2.4,0,4.5.4,6.1,0,0,0,0,0,0-.9,2-2,4.3-2.3,6.8-.3,3-.4,6.1-.5,9.1,0,2.4-.1,4.8-.3,6.8,0,.2-.2.4-.3.6-1.2,2.4-1.6,3.3-1.8,4.9-.2,1.9-.1,3.6,0,5-.5,1-.8,2-.9,3.1-.3,2.4-.3,4.4-.3,5.9,0,1.8,0,3-.4,4.8-.5,2-.6,4.3-.8,6.5,0,1-.1,2.1-.2,2.9-.2.5-.6,1.1-.9,1.5-1,1.6-1.9,3.2-2.2,5.4-.1.9-.1,1.7,0,2.4-.6,0-1.3,0-2,.2-1,.2-1.8.5-2.5.8-2.8-.2-5.5,0-8.1,0-1.2,0-2.5.1-3.7.2-1.1-.6-2.2-1-3.5-1.1-1.5-.2-3-.2-4.4-.2s-3.6,0-5.3.2c-2.5.1-5.3.3-7.2,0-1.8-1.3-3.6-1.7-4.8-1.9-1.4-.2-2.8-.1-4,.2,0,0,0,0-.1,0-1.2-.2-2.4-.3-3.6-.1-2.1-.3-4.1-.2-6.1,0-.4,0-.8,0-1.3,0-.7-.3-1.7-.7-2.8-.9-1-.2-2-.2-2.9-.2-2-1-4.5-1.3-7-.7h0c-.8-.2-1.6-.3-2.5-.3-.5,0-1,0-1.4,0-2.3-.4-4.7-.2-7.1,0-.3,0-.7,0-1.1,0-1-.5-2.1-.8-3.2-1-2.7-.3-9.4-.3-12,0-.5,0-1,.2-1.4.3-.5-.1-1-.2-1.5-.3-1.8-.2-3.5-.1-5,0-1-.5-2-.8-3.2-1-2.9-.4-5.6,0-7.6.4-.9-.3-2-.5-3.1-.5-3.5,0-7.4.1-11.5.3-6.4.2-13.5.5-18.4,0-1.2-.8-3.2-1.9-5.9-2.1-2,0-3.6.5-4.7,1-.5,0-1.1,0-1.7,0-1.6-1.1-3.2-1.5-4.3-1.6-3.4-.4-6.6-.1-9.4.2-.9,0-1.8.2-2.7.2-2.3.1-4.8.1-6.7,0-1.2-.8-2.6-1.2-3.8-1.4-2.8-.3-4.9.5-6.1,1.2-7.2.8-26.4.5-34-.2-2.1-.2-4.6-.3-6.9-.4-2.5-.1-5.1-.2-7-.4-1-.5-2.8-1.2-5.1-1.2h0c-2,0-3.5.5-4.6.8-.4.1-.8.3-1,.3-4.7-.6-9.3-.8-13.7-1-4.5-.2-8.8-.4-13-1-3.1-.4-6.3-.2-9.1,0-1.1,0-2.3.1-3.3.2-1.1-.6-2.2-1-3.5-1.1-3.9-.5-8-.2-11.9,0-3.1.2-6.3.4-8.5.1-.2,0-.5-.1-.8-.2-2.2-.6-5.7-1.7-9.3-.8-1.8-.2-3.4-.1-4.4,0-1-.5-2.3-.9-4-1-1,0-2,.1-3,.4-.2,0-.4-.1-.6-.2-4.9-1.2-10-1-14.4-1-1.9,0-3.7,0-5.3,0-1.1-.6-2.3-1-3.7-1.2-2.2-.3-10.3-.3-11.2-.3-4.3,0-7.1,0-9.1.2-3.5-1.1-6.6-1-9-.9-1.1,0-2.1.1-2.9,0-5.9-.7-11.8-.8-17.5-.9-6-.1-11.8-.2-17.3-1-4.4-.6-9-.3-13.6,0-3.4.2-7,.4-9.5.1-.2,0-.7-.2-1.1-.4-2.5-.9-7.2-2.5-12.7-.6-.6.2-1.2.5-1.9.9-1.2,0-2.5-.1-3.7,0-1.8.2-3.1.6-4,.9,0,0-.1,0-.1,0-28.2,2.2-57.8,2-86.4,1.9-10.8,0-22-.1-33,0-.8,0-1.6.1-2.4.3-2.4.7-5.1,1-7.5.8-2.1-.9-4.2-1.1-6.2-.7-4.3-.9-7.8,0-10.9,1-.4.1-.8.3-1.3.5-1.6-.1-3.6-.2-5.6.2-1,.2-1.8.6-2.6,1-.8-.2-1.7-.2-2.7,0-.8-.2-1.7-.2-2.7-.1,0,0,0-.1,0-.2-.1-1.5-.2-3.3-.7-5.3.3-2.7-.7-4.9-1.2-6-.4-3.9-.1-8.9.2-13.7.3-5.7.7-11.7,0-17-.2-1.3-.6-2.6-1.2-3.7-.2-3.2,0-7,.3-10.9.3-5.5.7-11.2,0-16.6-.2-1.2-.5-2.4-1.1-3.4,0-.6,0-1.3.1-2,.2-2.4.3-5,0-7.7-.2-1.1-.4-2.2-.5-3.2-.3-1.8-.6-3.2-.5-4.5.9-2,1.6-4.8,1-8.7-.9-5.6-.7-11.5-.5-17.7.2-5.8.3-11.8-.3-18,0-.1,0-.2,0-.4.3-1.4.3-3,0-4.8-.2-1-.5-2-.9-2.9,0-1.4.2-3,0-4.7,0-.7-.2-1.3-.4-1.9.2-.6.3-1.2.4-1.9.3-2.3.3-7.8,0-10.1,0-.3,0-.6-.2-1,0-.4.2-.7.2-1,.3-2.5,0-4.8-1.2-6.7,0-1.7,0-4.1,0-5.9.5-1,.8-1.9,1-2.4.8-3.7,0-6.9-.6-9.3,0-.2-.1-.4-.2-.6.4-.8.6-1.5.8-2,.7-3,0-5.6-.5-7.3.3-.7.5-1.5.6-2.5.5-3.7.5-14.9,0-18.3,0-.1,0-.2,0-.3.2-1.7,0-3.4-.6-4.9.1-.7.2-1.6.2-2.6-.1-3.4,0-7.1.3-11,.4-7.5.8-15.3-.9-23,0-.7.3-2.1.4-3.1.5-2.9,1.1-6.5.6-10.2,0-.6-.2-1.4-.6-2.3,0-.1,0-.2,0-.3.8-1.2,1.3-2.6,1.5-4.1.5-3.6.5-14.4,0-18.2-.2-1.3-.5-2.4-1.1-3.5v-.8c.6-1.1.9-2.2,1.1-3.5.3-2.1.2-4.1.1-6,1,0,2-.3,3-.8.4,0,.8.2,1.1.2,2.9.6,7.6,1.6,11.8-1.2.7,0,1.4-.1,2.1-.2,2.1.5,4.3.2,6.2-.9.5,0,1.3,0,1.8,0,1.6.1,3.6.2,5.8,0,.8-.1,1.5-.3,2.1-.5,3.9.9,7.9.7,11.6.5,1.1,0,2.2-.1,3.3-.1,1,.5,1.9.8,2.5.9.3,0,.7.1,1.1.2,2.4.6,3.6.8,4.6.9,2.4.2,4.4-.2,5.8-.8.3,0,.6.1.9.2,2.4.4,5.8,1,9.7.6.6,0,1.5-.2,2.4-.6.9,0,1.7.1,2.5.2.3,0,.6,0,.9,0,1.1.7,2.4,1.1,3.9,1.3,3.6.5,7.2.2,10.8,0,2.3-.1,4.7-.3,6.5-.2.9.5,2.2,1.2,3.8,1.5,5.9,1.1,11.9,1.3,17.8,1.4,5,.1,9.8.3,14.1,1,1.5,1,3,1.4,4,1.6,1.4.2,2.6.2,3.6.1.9.4,1.8.6,2.8.8,2.2.3,4,.3,5.4.3,1.7,0,2.7,0,4.3.4,2.1.5,4.5.6,7,.8,1.5,0,3.1.2,4,.3,4.9.8,9.7,1.5,14.4,2.1,2,.3,4,.5,6,.8,2.2.3,4.6.1,6.9,0,0,0,.1,0,.2,0,2.9,2.4,7.2,3.3,11.5.9,1.6,0,4.2,0,5.9,0,.8.4,1.8.9,3.1,1.2,3.5.9,6.5.2,8.4-.3.4,0,.9-.2,1.2-.2.5,0,1.1.1,1.8.2,6.4.9,12,1.5,16.4-.3,1.4-.6,3-.8,4.5-.7,1.3.7,3.7,1.8,6.8,1.6.8,0,1.6-.2,2.3-.4,1.8.6,3.9.7,6.1.4,1.2-.2,2.9-.6,4.6-1.6,2.5,0,6.1,0,8.5,0,2.1,1.3,4.4,1.7,6.3,1.7,2.5,0,4.4-.8,5.8-1.4,6.6,2.4,14.1,2.8,21.4,3.2,3.8.2,7.4.4,10.3.9,2.5.4,4.2.6,6.5.9,1.1.5,3,1.2,5.3,1.2.2,0,.5,0,.7,0,0,0,.1,0,.2.1.6.3,1.2.5,1.8.6,1,.6,2.2.9,3.4,1.1,2.5.4,4.5.1,6.2-.4.3.1.7.2,1.1.3l1.4.3c3.1.6,6.6,1.3,10.1,1.8,1.8.3,3.5.1,4.9,0,.3,0,.7,0,1,0,4,.9,7.1.8,9.6.8.7,0,1.4,0,2.1,0,1.1.6,2.3,1,3.6,1.2,2.3.3,4.9.1,7.3,0,.5,0,1.1,0,1.7-.1.8.5,1.6.9,2.3,1.1,2.8.9,5.6.8,7.7.6.9.4,2,.7,3,.9,3.6.5,7.4.2,11,0,2.4-.1,4.8-.3,6.7-.2,1,.5,2.6,1.2,4.6,1.2h0c1.3,0,2.5-.3,3.3-.6,1.7.8,3.4,1.5,5.4,1.6,1.5,0,3.1-.3,4.6-1.1.2,0,.4,0,.6,0,1.1,0,2.1.1,3,0,.8,0,1.9,0,3.2-.1,1.3,0,3.8-.2,5.7-.2h0c1.1.6,2.3,1,3.6,1.2,3.2.4,5.7-.2,7.3-.7.6.3,1.2.4,1.6.5,1.9.4,4.1.6,6.2.7.4,0,.8,0,1.2,0,1.2.8,2.7,1.2,4.2,1.4,1.2.1,2.2,0,3.2,0,1,.5,2,.8,3.2,1,3.8.5,7.8.3,11.6,0,2-.1,4.1-.2,5.9-.2,1.1.6,2.3,1,3.6,1.2,3.5.4,6.3-.3,8.1-.8h0c.9.4,1.8.7,2.8.8,3.1.4,6.1.1,8.8,0,1.4-.1,3.6-.3,4.3-.2.3,0,.8.2,1.3.3,2.3.6,5.7,1.6,9.7.7.3,0,.6.1.9.2,3.3.4,6-.2,7.8-.6,2.2,1.5,5,2.1,8,1.6,2.9.9,6.2,1.4,8.7.7.7-.2,2-.6,3.2-1.5.7-.1,1.5-.2,2.2-.3,1.3.7,2.8,1.1,4.5,1.2,2.2.1,4.3-.3,6-1.2,1.5,0,3.6,0,5.1,0,1.1.6,2.3,1,3.5,1.1,2.8.4,5.6.2,8.2,0,.7,0,1.5,0,2.2-.1.9.5,1.7.7,2.2.9,2.2.5,4.2.4,5.9.3.1,0,.3,0,.4,0,1.1.5,2.7,1,4.6.9.5,0,1,0,1.5-.2.3,0,.6.1.9.1,1.6.2,3.1.1,4.5,0,.8.6,1.8,1,2.8,1.2,2,.5,4,.4,5.9-.3.3.1.6.2.9.2,3.3.8,7,1.5,11,1.2.6.3,1.4.6,2.2.8,1.7.4,3.3.3,4.5.2,1,.7,2.4,1.4,4.2,1.7,1.1.2,2.4.2,4.1.2,1.3,1,2.8,1.6,4.4,1.8.4.1.8.3,1.4.5,0,1.9-.2,3.9-.3,5.8-.3,5.2-.6,10.5,0,15.5,0,.7.2,1.3.5,1.9-.2,4,.1,8.1.4,12,.3,4,.6,7.8.4,11.3-1.2,2.1-1.7,4.7-1.2,7.6h.1ZM71.8,211.9c0-.1,0-.3,0-.4.9-1.3,1.3-2.7,1.5-4,.2-1.4,0-2.7-.2-3.7,0,0,0,0,0-.1.2-.8.3-2,.3-3.2.2-.5.4-1,.6-1.5.4-.8.8-1.6,1-2.4.5-2.1.4-4,.2-5.3.3-.7.6-1.5.8-2.4,1-3.8.7-6.4.3-8.5.4-.9.7-1.8.8-2.8.3-2.3.4-4.7.5-6.9,0-1.5.1-3,.2-4.3,1-1.1,2.2-2.8,2.6-5.2.2-1,.5-4.6-.1-7.1-.1-.5-.3-1-.6-1.6.2-.4.4-.9.5-1.4,1.3,0,2.8,0,4.5,0,.8,0,1.7,0,2.7,0,2.6.1,5.9.3,9.1-.2,4.2-.6,7.9-.6,12.2-.6,2.7,0,5.5,0,8.7-.2,7.2-.4,13-.1,20.3.9,2.6.4,5.2,0,7.4-.4.6.2,1.2.3,1.8.4,2.6.3,5.3.2,7.6,0,1,0,2-.1,2.9-.1.2,0,.4.2.6.3,1.7.9,2.3,1.2,3.5,1.5,2.8.7,5.8.5,8.6.3.4,0,1,0,1.5,0,1,.5,2.1.8,3.2,1,3.1.4,5.5-.1,7.1-.6.7.2,1.5.5,2.4.6,2.7.4,5.5.2,7.9,0,.7,0,1.5,0,2.2-.1,1,.5,2.2.9,3.4,1.1.4,0,6.9.5,10.1-.2,3.1.5,6.2.4,8.9.2.5,0,1.1,0,1.6,0,.8.4,1.5.6,2,.8,1.2.3,2.3.4,3.3.3,2.3,1.1,5,1.3,7.8.5.5-.1,1.3-.4,2.1-.9,5.2-.2,15.3-.2,17.8.2,6.2.9,12.3,1,18.2,1.1,4.2,0,8.3.2,12.1.5,1.1.7,2.4,1.1,3.8,1.3,2,.2,6.2.2,8.1,0,.5,0,1-.2,1.4-.3.5.1,1,.2,1.5.3,3.5.5,7.2.3,10.7,0,2.5-.1,4.8-.2,6.6-.1.2,0,.8.2,1.2.3,2,.5,5,1.2,8.8.6.4,0,.7,0,.9-.1.6,0,1.3.2,2.3.2,3.3.3,14.1.5,18.4,0,.1,0,.2,0,.4,0,.2,0,.3,0,.5,0,4.6.6,13.5.1,15.2,0,1.4,0,2.5-.4,3.4-.7,4.8.3,9.5.3,14.1.3,4.8,0,9.4,0,13.8.4,1.4.1,2.8.3,4.4.5,5,.6,10.7,1.2,16.3.5.2,0,.5,0,.8-.1.3,0,.6,0,.9.1,3.6.4,7.2.2,10.7,0,2.6-.2,5.4-.3,7.5-.1.9.5,2.5,1.2,4.5,1.5,2.9.4,5.7.2,8.2,0,1.2,0,2.4-.1,3.4-.1.7.4,1.8.8,3.1,1-.5.3-1.1.6-1.6.9-.2.2-1.3.9-2.6,2-2.2.4-4,1.5-5.5,2.9,0,0,0,0,0,0-.6.3-1.1.7-1.6,1.1-.6.2-1.3.4-1.9.7-1.6.8-7.6,5.9-8.8,9.3-.1.3-.2.6-.3.9-.2.2-.4.4-.6.6-.9.9-2.2,2.7-2.5,5.4-.2.4-.5.9-.8,1.3-.2.4-.5.8-.7,1.2-1.6,1.5-2.3,3.3-2.6,4.4-.8,2.9-.5,5.7.6,8.1-.1,1.7-.2,3.9.6,6.1.5,1.3,1.4,3,3.1,4.3,1,1.7,2.3,3.7,4.9,5.9.8.7,1.6,1.2,2.4,1.5,1.2,1.5,2.8,3.1,4.9,4.1,1.9.9,5.1,1.2,7.8,1.2s3.7-.2,4.5-.4c1.2-.3,3.1-1,4.7-2.8.7,0,1.5,0,2.2.2,3,.2,6.1.5,9.1-.3.8-.2,1.9-.6,3-1.4,0,0,0,0,.1,0,.5-.1,1.3-.4,2.2-.8,0,0,.1,0,.2,0,1.3,0,2.7.2,4.1,0,.2,0,5.8-.5,8.6-2,2.9-1.5,4.2-4.1,4.9-5.5.2-.2.5-.5.7-.7.6-.2,1.2-.5,1.8-.9,2.1-1.3,3.6-3,4.5-5.1.1,0,.2-.1.3-.2,2.7-1.8,4.2-4.9,4-8.1,0-.1,0-.2,0-.3,0-.5,0-1.1,0-1.8,1.6-1.1,2.8-2.8,3.4-4.8,1.2-4,.1-7.1-.7-8.8-.3-2.1-1.4-3.9-2.9-5.3-.3-.5-.6-1-.9-1.4-.3-2.1-1.2-5-4.5-7.6-1.1-.9-1.5-1.4-2.5-2.6-.2-.2-.4-.5-.6-.8-.1-.3-.3-.7-.4-1,2.2,0,4.4,0,6.3.2,3.8.5,7.2.6,10.2.6,1.5,0,3,0,4.4.1,1.1.7,2.4,1.1,3.7,1.2,4.5.6,9.3.3,13.9,0,3-.2,5.9-.3,8.3-.3,1.1.6,2.3,1,3.7,1.2,3.8.5,7.7.2,11.4,0,.8,0,1.6,0,2.3-.1-.7.9-1.3,2-1.8,3.2-.8,1-1.4,2.1-1.8,3.2-.3.3-.6.6-.9,1-.9.3-1.8.7-2.6,1.2-2.6,1.6-3.5,3.7-5,7.2-.2.6-.6,1.4-.8,1.7-.3.6-.7,1.2-1,1.7-.4.7-.8,1.3-1.2,2-2.2,2.1-3.3,4.6-3.3,7.5,0,2.8.8,5,1.8,6.7,0,.6,0,1.2.1,1.8.5,2.8,2.3,5.3,5,6.5l1,.5c.3.2.7.3,1,.4.2.4.4.9.7,1.3.5.8,1,1.3,1.5,1.9,0,.5.2,1,.5,1.6,1.5,4.1,5.1,5.7,7.7,6.7.8,3.4,3.5,6.1,7,6.8,1,.2,2,.3,3,.2.7.4,1.4.6,1.8.7,1.2.3,2.5.4,3.7.4,3.5,0,6.7-1.1,8.9-2.2,1.5-.7,2.9-1.5,4.2-2.3,1.3-.8,2.7-1.5,3.8-2,.2,0,.5-.1.8-.2,1.5-.3,3.2-.6,4.9-1.5,1.7-.9,3-2.1,3.8-3.1,1.2-.6,2.4-1.5,3.2-2.6,1.6-2,2.2-4.6,1.7-7,.3-.6.6-1.2.9-1.9,2-2,3-4.9,2.5-7.9,0-.4,0-1.5.2-2.4.1-.8.2-1.7.3-2.6.2.7.3,1.3.6,2,0,.9,0,2.1.3,3.3.1.6.4,1.5,1,2.4.1.7.4,1.4.7,2.2.7,1.6,1.8,3,3.1,4.2.4,1.7,1.2,3.5,2.2,5.1.8,1.2,1.9,2.3,3.1,3,.8.5,1.9.9,3.2,1.2,1,.8,1.9,1.2,2.6,1.4.3.3.5.7.8.9,2.1,2.7,3.4,4.3,6,5.2.1,0,.2,0,.3.1,1.9,1.3,3.8,1.7,5.3,1.7s1.7-.1,2.3-.3c0,0,0,0,0,0,.4,0,.7.1,1,.1,1,0,2,0,2.9-.2,1.8.2,3.6,0,5.2-.9.4-.1,1.3-.2,1.9-.3,1.4-.2,3-.4,4.6-1,1.3-.4,2.5-1.2,3.9-2,.2-.1.5-.3.8-.5,1.2,0,2.7-.3,4.4-1.1,2.8-1.3,4.2-3.5,5.1-5.2.3-.1.5-.3.8-.5,1.2-.8,5-3.3,5.4-8.2,0-.7,0-1.6-.2-2.5,2-1.1,3.5-3,4.2-5.3,1.3-4.4,0-8-.6-9.9,0-.1,0-.2-.1-.3,0-.7,0-1.9,0-2.7.2-5.5.3-8.6-2.5-11.6-.7-.8-1.5-1.4-2.5-1.8-1.1-1.6-2.5-3.4-4.5-4.7-.9-.6-3.7-2.1-5.9-3.2.2,0,.5,0,.7,0,.6,0,1.3-.2,1.9-.4,1.8.4,4.2.8,6.9.4,2.2-.3,4.3-.4,6.6-.4,2.5,0,5.1-.1,7.8-.5.5,0,.9-.2,1.3-.3.4.3.8.6,1.1.9.6.5,1.3,1,2,1.5.4.3.8.5,1.1.7.2,1.6.5,4.2,2.2,6.9.4.6.8,1.1,1.3,1.6,0,1.2,0,2.6.2,4.1.2,1,.5,1.9.8,2.7-.2,1.2-.1,2.7.3,4.3.3.9.7,1.8,1.3,2.6.4,1,1,1.9,1.7,2.7,0,.6.1,1.3.3,2,.5,1.9,1.1,4.4,1.7,6.8.4,1.6.8,3.1,1.1,4.4,0,.2,0,.6,0,.8-.1,1.4-.2,3.3.1,5.3.2,1,.5,2,1,2.8-.4,1.5-.4,3.1,0,4.7.3,1.2.8,2.4,1.6,3.4.2,1.3.4,2.6.7,3.6-.4,1.1-.7,2.4-.6,4,.1,2,.8,3.6,1.2,4.5.2,1.4.3,3.1.4,4.8.2,3.8.4,7.6,1.8,11.3,0,.2.2.9.2,1.4.1.9.3,2.1.7,3.4.2.7.5,1.4,1,2.2v1.9c-.2.1-.5.3-.7.4,0,0-.2.1-.3.2h-15.4c-2.5-2-5.1-2.7-7.2-2.9-2.2-.2-4.3.2-6,1.2-1.1,0-2.3,0-3.4,0-1-.6-2-.8-2.6-1-.6-.1-1.3-.3-2-.5-2.9-.7-6.1-1.4-8.7-1.6-2.4-.2-4.5.4-5.8.9,0,0-.2,0-.3,0-.4,0-.9,0-1.3,0-.2,0-.5,0-.7,0-1.3,0-3.3-.3-5.4-.7-3.8-2.1-7-2-9.4-1.2-1.4-.4-3.1-.7-5.1-.4-.3,0-.5.1-.8.2-2.2-.6-4.2-.4-5.8,0-2.2-.6-4.4-.5-6.1-.4h-.1c-1.1-.5-2.7-1-4.6-1h0c-1.4,0-2.5.3-3.5.6-1-.3-2.4-.6-3.9-.6-1.8,0-3.3.5-4.4,1-.2,0-.4-.1-.7-.2-.7-.2-1.6-.4-2.8-.6-2.4-.4-11.6.7-13.8,1.2-.3,0-.6-.2-1-.2-.6-.1-1.7-.3-7.8-.3-3.2,0-5.2,0-6.8.3-1.8-.4-3.5-.3-5-.2-.9-.4-2.2-.8-3.6-.8s-3.1.3-4.5.5c-.4,0-.8.1-1.3.2-.8-.4-1.5-.6-1.9-.7-3.5-.8-6.7-.5-8.9-.3h-.2c-.8-.3-1.8-.7-3.2-.9-2-.2-3.9-.1-5.5,0-.4,0-1,0-1.4,0-2.5-1.4-5.5-1.5-8.1-.3-.8-.4-1.8-.6-2.7-.8-2.9-.4-5.8-.2-8.7,0-1.6,0-4,.2-5.5.1-1.4-1.2-2.9-1.7-3.9-1.9-2.4-.6-4.8-.2-6.9,1.1-2.8,0-7,0-9.7,0-1.3-.6-2.7-1-4.2-1.1-2.1-.2-3.8.2-5,.6-1.3-.8-2.5-1.3-4.1-1.5-3.8-.5-14.5-.5-18.2,0-.3,0-.6.1-1,.2-.3,0-.7-.1-1-.2-3.3-.4-6.6-.2-9.8,0-1.5,0-2.9.2-4.2.2-1-.5-1.8-.8-2.4-.9-4.1-1-7.9-.3-10.9.4-.2,0-.3-.1-.5-.2-1.7-.5-3.3-.7-4.5-.6-2.9-1.2-7.2-2.6-12-1.5-.4,0-1,.3-1.6.5,0,0,0,0,0,0-2.4-2.4-5.3-2.8-7.4-2.7-2.7-1.7-6-2.1-9.5-1-.3,0-.6-.2-.9-.2-2-.4-3.9-.2-5.3-.1-.3,0-.8,0-1.1,0-3.3-.4-6.5-.7-9.6-1-3.1-.3-6-.5-8.9-.9-2-.3-4-.1-5.7,0,0,0-.1,0-.2,0-1-.5-2.1-.8-3.2-1-3.2-.4-5.7-.5-7.7-.5-2.8,0-4.6-.1-7.7-1.1-3-.9-5.9-.6-8-.4-.4,0-.8,0-1.2.1-2.6-1.1-4.9-1.3-6.9-.9-2.1-.5-3.9-.3-5.4.2-.4-.1-.8-.2-1.1-.2-3.2-.4-12-.4-15.3,0-1.4.2-2.6.6-3.8,1.3-2.9.2-6,.2-9.4.2-4.4,0-8.9,0-13.4.5-.2,0-.3,0-.3,0,0,0-.4-.1-.6-.2-.7-.2-1.9-.6-3.3-.8-2.5-.3-5.7-.2-9,0-1.8,0-4.5.2-6.2.1-1.1-.9-2.4-1.6-3.9-1.9-3.1-.7-6.2-.4-9.3-.2-1.2,0-2.6.2-3.6.2-.4-.1-.8-.3-1.2-.5-2.8-1.1-3.5-1.4-4.8-1.6-2.9-.4-5.9-.2-8.5,0-1,0-2,.1-2.9.1-1.1-.6-2.2-.9-3.5-1.1-2.3-.3-4.6-.1-6.5,0-.9,0-2.1.1-2.8.1-.2,0-.4,0-.6-.1-1.3-1.2-2.8-1.8-3.9-2.1-2.8-.7-5.9-.5-8.9-.3-1.2,0-3,.2-3.5.1-.4,0-1.6-.5-2.4-.7-1.6-.5-3.2-1-4.8-1.2-2.2-.3-4.1,0-5.4.4-.5-.2-1-.3-1.6-.4-3.8-.6-7.6-.7-11.3-.7-2,0-3.9,0-5.6-.2-1.1-.6-2.7-1.2-4.6-1.2s-1.8.1-2.6.4c-.5-.1-1-.2-1.5-.3-2-.3-3.9-.1-5.6,0,0,0-.2,0-.3,0-1-.5-2.1-.8-3.2-1-2.5-.3-4.9-.2-7,0-.5,0-1.1,0-1.6,0-1-.5-2.1-.9-3.4-1-2.7-.3-5.7-.3-8.6-.3-2,0-4.3,0-6.1-.1-1.2-.8-2.6-1.2-4-1.4-2.6-.3-5.9-.7-9-1-1.9-.2-3.6,0-5.2.8-.2,0-.4-.2-.6-.2-6-2-11.9-1.7-17.2-1.4-2,.1-3.9.2-5.7.2-1.1-.6-2.3-1-3.6-1.2-1.8-.2-3.7-.1-5.6,0-.1,0-.3,0-.4,0-1.5-.9-2.9-1.3-3.8-1.4.2-.8.4-1.4.4-1.8.2-1.4.4-2.6.5-3.7h0ZM501.7,189.1c0-.5.1-.9.2-1.4h.9c0,.1,0,.2,0,.2-.3.4-.6.8-1,1.2ZM623.7,168.4c-.1,0-.3.1-.4.2-.6.3-1.1.6-1.6,1-1.2,0-2.2.2-3.1.5-3,1-5.3,3.4-6.2,6.6-.7,2.3-.7,4.6-.1,6.6-1.5,1.4-2.5,3.4-3,5.7h0c-.5-3.5-2.2-6-3.4-7.6-.4-2.3-1.5-3.9-2.5-4.9-1-1-2.1-1.7-3.4-2.2-.7-1-1.3-1.8-2.1-2.5-1.2-1.1-4.5-2.9-7.3-4.3,8.3,0,16.6-.2,20.4-.8.9-.1,1.8-.3,2.6-.4,2.3-.4,4.5-.7,6.5-.7,1.5.8,3.2,1.2,5.1,1.3-.6.5-1.1,1-1.6,1.6h0Z"/>
  </g>
</svg>